SplineFontDB: 3.2
FontName: Quicksand-VariableFont_wght-W300
FullName: Quicksand-VariableFont_wght W300
FamilyName: Quicksand-VariableFont_wght
Weight: Regular
StyleMapFamilyName: 
ItalicAngle: 0
UnderlinePosition: 0
UnderlineWidth: 0
Ascent: 800
Descent: 200
InvalidEm: 1
UFOAscent: 1000
UFODescent: -250
LayerCount: 2
Layer: 0 0 "Back" 1
Layer: 1 1 "public.default" 0 "glyphs"
PreferredKerning: 1
StyleMap: 0x0000
FSType: 0
OS2Version: 0
OS2_WeightWidthSlopeOnly: 0
OS2_UseTypoMetrics: 0
CreationTime: 1773233631
ModificationTime: 1773233631
PfmFamily: 16
TTFWeight: 300
TTFWidth: 5
LineGap: 0
VLineGap: 0
OS2TypoAscent: 0
OS2TypoAOffset: 1
OS2TypoDescent: 0
OS2TypoDOffset: 1
OS2TypoLinegap: 0
OS2WinAscent: 0
OS2WinAOffset: 1
OS2WinDescent: 0
OS2WinDOffset: 1
HheadAscent: 0
HheadAOffset: 1
HheadDescent: 0
HheadDOffset: 1
OS2CapHeight: 700
OS2XHeight: 503
DEI: 91125
PickledDataWithLists: "(dp0
Vpublic.glyphOrder
p1
(lp2
V.notdef
p3
aVA
p4
aVAacute
p5
aVAbreve
p6
aVuni1EAE
p7
aVuni1EB6
p8
aVuni1EB0
p9
aVuni1EB2
p10
aVuni1EB4
p11
aVuni01CD
p12
aVAcircumflex
p13
aVuni1EA4
p14
aVuni1EAC
p15
aVuni1EA6
p16
aVuni1EA8
p17
aVuni1EAA
p18
aVuni0200
p19
aVAdieresis
p20
aVuni1EA0
p21
aVAgrave
p22
aVuni1EA2
p23
aVuni0202
p24
aVAmacron
p25
aVAogonek
p26
aVAring
p27
aVAringacute
p28
aVAtilde
p29
aVAE
p30
aVAEacute
p31
aVB
p32
aVC
p33
aVCacute
p34
aVCcaron
p35
aVCcedilla
p36
aVuni1E08
p37
aVCcircumflex
p38
aVCdotaccent
p39
aVD
p40
aVuni01C4
p41
aVEth
p42
aVDcaron
p43
aVuni1E12
p44
aVDcroat
p45
aVuni1E0C
p46
aVuni1E0E
p47
aVuni01F2
p48
aVuni01C5
p49
aVE
p50
aVEacute
p51
aVEbreve
p52
aVEcaron
p53
aVuni1E1C
p54
aVEcircumflex
p55
aVuni1EBE
p56
aVuni1EC6
p57
aVuni1EC0
p58
aVuni1EC2
p59
aVuni1EC4
p60
aVuni0204
p61
aVEdieresis
p62
aVEdotaccent
p63
aVuni1EB8
p64
aVEgrave
p65
aVuni1EBA
p66
aVuni0206
p67
aVEmacron
p68
aVuni1E16
p69
aVuni1E14
p70
aVEogonek
p71
aVuni1EBC
p72
aVF
p73
aVG
p74
aVGbreve
p75
aVGcaron
p76
aVGcircumflex
p77
aVuni0122
p78
aVGdotaccent
p79
aVuni1E20
p80
aVH
p81
aVHbar
p82

StartChar: .notdef
Encoding: 0 -1 0
GlifName: .notdef
Width: 584
VWidth: 0
Flags: W
LayerCount: 2
Fore
SplineSet
40 665 m 257
 40 700 40 700 75 700 c 257
 509 700 l 257
 544 700 544 700 544 665 c 257
 544 35 l 257
 544 0 544 0 509 0 c 257
 75 0 l 257
 40 0 40 0 40 35 c 257
 40 665 l 257
95 670 m 257
 88 670 88 670 92 664 c 257
 508 65 l 257
 510 62 510 62 512 62.5 c 128
 514 63 514 63 514 67 c 257
 514 665 l 257
 514 670 514 670 509 670 c 257
 95 670 l 257
70 35 m 257
 70 30 70 30 75 30 c 257
 488 30 l 257
 495 30 495 30 491 36 c 257
 76 635 l 257
 74 638 74 638 72 637.5 c 128
 70 637 70 637 70 633 c 257
 70 35 l 257
EndSplineSet
EndChar

StartChar: A
Encoding: 1 65 1
GlifName: A
Width: 649
VWidth: 0
Flags: W
LayerCount: 2
Fore
SplineSet
327 649 m 257
 74 13 l 257
 72 7 72 7 67 3.5 c 128
 62 0 62 0 56 0 c 257
 46 0 46 0 41 5 c 128
 36 10 36 10 35 17 c 257
 34 21 34 21 36 27 c 257
 305 689 l 257
 308 697 308 697 312.5 699.5 c 128
 317 702 317 702 324 702 c 257
 332 702 332 702 337 698.5 c 128
 342 695 342 695 344 689 c 257
 613 27 l 257
 614 24 614 24 614 19 c 257
 614 10 614 10 608 5 c 128
 602 0 602 0 593 0 c 257
 586 0 586 0 580.5 3.5 c 128
 575 7 575 7 573 13 c 257
 312 657 l 257
 327 649 l 257
142 217 m 257
 156 257 l 257
 480 257 l 257
 490 217 l 257
 142 217 l 257
EndSplineSet
EndChar

StartChar: Aogonek
Encoding: 23 260 23
GlifName: Aogonek
Width: 649
VWidth: 0
Flags: W
LayerCount: 2
Fore
SplineSet
574 -185 m 257
 541 -185 541 -185 513.5 -160 c 128
 486 -135 486 -135 486 -93 c 257
 486 -70 486 -70 493.5 -51 c 128
 501 -32 501 -32 513.5 -17 c 128
 526 -2 526 -2 541 8 c 128
 556 18 556 18 572 23 c 257
 582 20 l 257
 573 13 l 257
 312 657 l 257
 327 649 l 257
 74 13 l 257
 72 7 72 7 67 3.5 c 128
 62 0 62 0 56 0 c 257
 46 0 46 0 41 5 c 128
 36 10 36 10 35 17 c 257
 34 21 34 21 36 27 c 257
 305 689 l 257
 308 697 308 697 312.5 699.5 c 128
 317 702 317 702 324 702 c 257
 332 702 332 702 337 698.5 c 128
 342 695 342 695 344 689 c 257
 613 27 l 257
 615 21 615 21 615 18 c 257
 615 9 615 9 609.5 5.5 c 128
 604 2 604 2 595 0 c 257
 568 -5 568 -5 546 -30.5 c 128
 524 -56 524 -56 524 -85 c 257
 524 -115 524 -115 541 -131.5 c 128
 558 -148 558 -148 579 -148 c 257
 604 -148 604 -148 611 -136 c 257
 615 -130 615 -130 619 -126 c 128
 623 -122 623 -122 630 -122 c 257
 637 -122 637 -122 641.5 -126.5 c 128
 646 -131 646 -131 646 -136 c 257
 646 -149 646 -149 635.5 -160.5 c 128
 625 -172 625 -172 608.5 -178.5 c 128
 592 -185 592 -185 574 -185 c 257
142 217 m 257
 156 257 l 257
 480 257 l 257
 490 217 l 257
 142 217 l 257
EndSplineSet
EndChar

StartChar: Aring
Encoding: 24 197 24
GlifName: Aring
Width: 649
VWidth: 0
Flags: W
LayerCount: 2
Fore
SplineSet
325 671 m 257
 299 671 299 671 276.5 683.5 c 128
 254 696 254 696 240.5 717.5 c 128
 227 739 227 739 227 765 c 257
 227 791 227 791 240.5 812.5 c 128
 254 834 254 834 276.5 846.5 c 128
 299 859 299 859 325 859 c 257
 351 859 351 859 373.5 846.5 c 128
 396 834 396 834 409.5 812.5 c 128
 423 791 423 791 423 765 c 257
 423 739 423 739 409.5 717.5 c 128
 396 696 396 696 373.5 683.5 c 128
 351 671 351 671 325 671 c 257
325 703 m 257
 351 703 351 703 369 721.5 c 128
 387 740 387 740 387 765 c 257
 387 791 387 791 369 809 c 128
 351 827 351 827 325 827 c 257
 300 827 300 827 281.5 809 c 128
 263 791 263 791 263 765 c 257
 263 740 263 740 281.5 721.5 c 128
 300 703 300 703 325 703 c 257
327 649 m 257
 74 13 l 257
 72 7 72 7 67 3.5 c 128
 62 0 62 0 56 0 c 257
 46 0 46 0 41 5 c 128
 36 10 36 10 35 17 c 257
 34 21 34 21 36 27 c 257
 305 689 l 257
 308 697 308 697 312.5 699.5 c 128
 317 702 317 702 324 702 c 257
 332 702 332 702 337 698.5 c 128
 342 695 342 695 344 689 c 257
 613 27 l 257
 614 24 614 24 614 19 c 257
 614 10 614 10 608 5 c 128
 602 0 602 0 593 0 c 257
 586 0 586 0 580.5 3.5 c 128
 575 7 575 7 573 13 c 257
 312 657 l 257
 327 649 l 257
142 217 m 257
 156 257 l 257
 480 257 l 257
 490 217 l 257
 142 217 l 257
EndSplineSet
EndChar

StartChar: AE
Encoding: 27 198 27
GlifName: AE
Width: 931
VWidth: 0
Flags: W
LayerCount: 2
Fore
SplineSet
168 217 m 257
 491 217 l 257
 474 201 l 257
 474 662 l 257
 487 640 l 257
 45 8 l 257
 39 -1 39 -1 28 -1 c 257
 21 -1 21 -1 15 5 c 128
 9 11 9 11 9 20 c 257
 9 27 9 27 12 31 c 257
 474 691 l 257
 478 696 478 696 482.5 698 c 128
 487 700 487 700 492 700 c 257
 861 700 l 257
 869 700 869 700 875 694 c 128
 881 688 881 688 881 680 c 257
 881 671 881 671 875 665.5 c 128
 869 660 869 660 861 660 c 257
 507 660 l 257
 514 670 l 257
 514 371 l 257
 508 381 l 257
 816 381 l 257
 824 381 824 381 830 375 c 128
 836 369 836 369 836 361 c 257
 836 352 836 352 830 346.5 c 128
 824 341 824 341 816 341 c 257
 506 341 l 257
 514 350 l 257
 514 30 l 257
 508 40 l 257
 861 40 l 257
 869 40 869 40 875 34 c 128
 881 28 881 28 881 20 c 257
 881 11 881 11 875 5.5 c 128
 869 0 869 0 861 0 c 257
 494 0 l 257
 486 0 486 0 480 6 c 128
 474 12 474 12 474 20 c 257
 474 191 l 257
 491 177 l 257
 129 177 l 257
 168 217 l 257
EndSplineSet
EndChar

StartChar: B
Encoding: 29 66 29
GlifName: B
Width: 650
VWidth: 0
Flags: W
LayerCount: 2
Fore
SplineSet
389 700 m 257
 469 700 469 700 517 654 c 128
 565 608 565 608 565 530 c 257
 565 489 565 489 548.5 450.5 c 128
 532 412 532 412 500 387 c 128
 468 362 468 362 421 358 c 257
 414 370 l 257
 453 370 453 370 487 358.5 c 128
 521 347 521 347 546 324 c 128
 571 301 571 301 585.5 267.5 c 128
 600 234 600 234 600 189 c 257
 600 141 600 141 584 105.5 c 128
 568 70 568 70 540 46.5 c 128
 512 23 512 23 475 11.5 c 128
 438 0 438 0 396 0 c 257
 120 0 l 257
 112 0 112 0 106 6 c 128
 100 12 100 12 100 20 c 257
 100 680 l 257
 100 688 100 688 106 694 c 128
 112 700 112 700 120 700 c 257
 389 700 l 257
384 660 m 257
 131 660 l 257
 142 679 l 257
 142 362 l 257
 132 379 l 257
 384 379 l 257
 443 380 443 380 483 418 c 128
 523 456 523 456 523 531 c 257
 523 589 523 589 487 624.5 c 128
 451 660 451 660 384 660 c 257
391 338 m 257
 138 338 l 257
 142 344 l 257
 142 32 l 257
 137 40 l 257
 391 40 l 257
 462 40 462 40 510 75.5 c 128
 558 111 558 111 558 189 c 257
 558 241 558 241 536 274 c 128
 514 307 514 307 476 322.5 c 128
 438 338 438 338 391 338 c 257
EndSplineSet
EndChar

StartChar: C
Encoding: 30 67 30
GlifName: C
Width: 662
VWidth: 0
Flags: W
LayerCount: 2
Fore
SplineSet
618 642 m 257
 626 636 626 636 627 628.5 c 128
 628 621 628 621 623 613 c 257
 618 606 618 606 610.5 605.5 c 128
 603 605 603 605 596 609 c 257
 554 638 554 638 504.5 655 c 128
 455 672 455 672 399 672 c 257
 335 672 335 672 279.5 648.5 c 128
 224 625 224 625 182 582 c 128
 140 539 140 539 116 480 c 128
 92 421 92 421 92 350 c 257
 92 279 92 279 116 220 c 128
 140 161 140 161 182 118 c 128
 224 75 224 75 279.5 51.5 c 128
 335 28 335 28 399 28 c 257
 455 28 455 28 504 45 c 128
 553 62 553 62 595 90 c 257
 602 95 602 95 610 94 c 128
 618 93 618 93 623 86 c 257
 628 79 628 79 627 71 c 128
 626 63 626 63 619 58 c 257
 595 41 595 41 558.5 25 c 128
 522 9 522 9 481 -0.5 c 128
 440 -10 440 -10 399 -10 c 257
 327 -10 327 -10 264 17 c 128
 201 44 201 44 153 92.5 c 128
 105 141 105 141 77.5 206.5 c 128
 50 272 50 272 50 350 c 257
 50 428 50 428 77.5 493.5 c 128
 105 559 105 559 153 607.5 c 128
 201 656 201 656 264 683 c 128
 327 710 327 710 399 710 c 257
 460 710 460 710 516.5 692 c 128
 573 674 573 674 618 642 c 257
EndSplineSet
EndChar

StartChar: D
Encoding: 37 68 37
GlifName: D
Width: 720
VWidth: 0
Flags: W
LayerCount: 2
Fore
SplineSet
380 700 m 257
 455 700 455 700 510 671.5 c 128
 565 643 565 643 600.5 593.5 c 128
 636 544 636 544 653 481 c 128
 670 418 670 418 670 350 c 257
 670 254 670 254 639.5 174.5 c 128
 609 95 609 95 545 47.5 c 128
 481 0 481 0 380 0 c 257
 120 0 l 257
 112 0 112 0 106 6 c 128
 100 12 100 12 100 20 c 257
 100 680 l 257
 100 688 100 688 106 694 c 128
 112 700 112 700 120 700 c 257
 380 700 l 257
370 40 m 257
 462 40 462 40 518.5 81.5 c 128
 575 123 575 123 601.5 193.5 c 128
 628 264 628 264 628 350 c 257
 628 411 628 411 613.5 467 c 128
 599 523 599 523 568 566.5 c 128
 537 610 537 610 488 635 c 128
 439 660 439 660 370 660 c 257
 136 660 l 257
 142 668 l 257
 142 31 l 257
 136 40 l 257
 370 40 l 257
EndSplineSet
EndChar

StartChar: E
Encoding: 47 69 47
GlifName: E
Width: 567
VWidth: 0
Flags: W
LayerCount: 2
Fore
SplineSet
120 700 m 257
 497 700 l 257
 505 700 505 700 511 694 c 128
 517 688 517 688 517 680 c 257
 517 671 517 671 511 665.5 c 128
 505 660 505 660 497 660 c 257
 132 660 l 257
 142 677 l 257
 142 367 l 257
 130 381 l 257
 452 381 l 257
 460 381 460 381 466 375 c 128
 472 369 472 369 472 361 c 257
 472 352 472 352 466 346.5 c 128
 460 341 460 341 452 341 c 257
 132 341 l 257
 142 352 l 257
 142 35 l 257
 138 40 l 257
 497 40 l 257
 505 40 505 40 511 34 c 128
 517 28 517 28 517 20 c 257
 517 11 517 11 511 5.5 c 128
 505 0 505 0 497 0 c 257
 120 0 l 257
 112 0 112 0 106 6 c 128
 100 12 100 12 100 20 c 257
 100 680 l 257
 100 688 100 688 106 694 c 128
 112 700 112 700 120 700 c 257
EndSplineSet
EndChar

StartChar: Eogonek
Encoding: 68 280 68
GlifName: Eogonek
Width: 581
VWidth: 0
Flags: W
LayerCount: 2
Fore
SplineSet
459 -185 m 257
 426 -185 426 -185 398.5 -160 c 128
 371 -135 371 -135 371 -93 c 257
 371 -70 371 -70 378.5 -51.5 c 128
 386 -33 386 -33 398.5 -20 c 128
 411 -7 411 -7 426 2.5 c 128
 441 12 441 12 457 17 c 257
 465 0 l 257
 120 0 l 257
 112 0 112 0 106 6 c 128
 100 12 100 12 100 20 c 257
 100 680 l 257
 100 688 100 688 106 694 c 128
 112 700 112 700 120 700 c 257
 497 700 l 257
 505 700 505 700 511 694 c 128
 517 688 517 688 517 680 c 257
 517 671 517 671 511 665.5 c 128
 505 660 505 660 497 660 c 257
 132 660 l 257
 142 677 l 257
 142 367 l 257
 130 381 l 257
 452 381 l 257
 460 381 460 381 466 375 c 128
 472 369 472 369 472 361 c 257
 472 352 472 352 466 346.5 c 128
 460 341 460 341 452 341 c 257
 132 341 l 257
 142 352 l 257
 142 35 l 257
 138 40 l 257
 497 40 l 257
 505 40 505 40 511 34 c 128
 517 28 517 28 517 20 c 257
 517 11 517 11 510.5 5.5 c 128
 504 0 504 0 492 -1 c 257
 474 -2 474 -2 455 -13.5 c 128
 436 -25 436 -25 422.5 -43.5 c 128
 409 -62 409 -62 409 -85 c 257
 409 -115 409 -115 426 -131.5 c 128
 443 -148 443 -148 464 -148 c 257
 491 -148 491 -148 496 -137 c 257
 500 -130 500 -130 505 -126 c 128
 510 -122 510 -122 517 -122 c 257
 524 -122 524 -122 527.5 -126.5 c 128
 531 -131 531 -131 531 -136 c 257
 531 -149 531 -149 521.5 -160.5 c 128
 512 -172 512 -172 496 -178.5 c 128
 480 -185 480 -185 459 -185 c 257
EndSplineSet
EndChar

StartChar: F
Encoding: 70 70 70
GlifName: F
Width: 567
VWidth: 0
Flags: W
LayerCount: 2
Fore
SplineSet
120 0 m 257
 111 0 111 0 105.5 6 c 128
 100 12 100 12 100 20 c 257
 100 680 l 257
 100 688 100 688 106 694 c 128
 112 700 112 700 120 700 c 257
 497 700 l 257
 505 700 505 700 511 694 c 128
 517 688 517 688 517 680 c 257
 517 671 517 671 511 665.5 c 128
 505 660 505 660 497 660 c 257
 137 660 l 257
 140 664 l 257
 140 376 l 257
 136 384 l 257
 452 384 l 257
 460 384 460 384 466 378 c 128
 472 372 472 372 472 364 c 257
 472 355 472 355 466 349.5 c 128
 460 344 460 344 452 344 c 257
 134 344 l 257
 140 352 l 257
 140 20 l 257
 140 12 140 12 134.5 6 c 128
 129 0 129 0 120 0 c 257
EndSplineSet
EndChar

StartChar: G
Encoding: 71 71 71
GlifName: G
Width: 694
VWidth: 0
Flags: W
LayerCount: 2
Fore
SplineSet
409 -10 m 257
 331 -10 331 -10 265.5 16.5 c 128
 200 43 200 43 151.5 91.5 c 128
 103 140 103 140 76.5 206 c 128
 50 272 50 272 50 350 c 257
 50 428 50 428 76.5 494 c 128
 103 560 103 560 151.5 608.5 c 128
 200 657 200 657 265.5 683.5 c 128
 331 710 331 710 409 710 c 257
 464 710 464 710 515 696.5 c 128
 566 683 566 683 606 656 c 257
 611 653 611 653 613 648.5 c 128
 615 644 615 644 615 639 c 257
 615 629 615 629 608 624 c 128
 601 619 601 619 596 619 c 257
 592 619 592 619 589 620.5 c 128
 586 622 586 622 583 623 c 257
 546 644 546 644 502 657 c 128
 458 670 458 670 409 670 c 257
 316 670 316 670 244.5 628.5 c 128
 173 587 173 587 132.5 515 c 128
 92 443 92 443 92 350 c 257
 92 257 92 257 132.5 184.5 c 128
 173 112 173 112 244.5 71 c 128
 316 30 316 30 409 30 c 257
 459 30 459 30 507.5 45.5 c 128
 556 61 556 61 593 86 c 257
 589 68 l 257
 589 318 l 257
 603 305 l 257
 409 305 l 257
 401 305 401 305 395 311 c 128
 389 317 389 317 389 325 c 257
 389 334 389 334 395 339.5 c 128
 401 345 401 345 409 345 c 257
 609 345 l 257
 618 345 618 345 623.5 339 c 128
 629 333 629 333 629 325 c 257
 629 74 l 257
 629 70 629 70 627 65 c 128
 625 60 625 60 620 56 c 257
 576 26 576 26 521.5 8 c 128
 467 -10 467 -10 409 -10 c 257
EndSplineSet
EndChar

StartChar: H
Encoding: 78 72 78
GlifName: H
Width: 720
VWidth: 0
Flags: W
LayerCount: 2
Fore
SplineSet
121 700 m 257
 130 700 130 700 136 694 c 128
 142 688 142 688 142 679 c 257
 142 21 l 257
 141 12 141 12 135 6 c 128
 129 0 129 0 121 0 c 257
 111 0 111 0 105.5 6 c 128
 100 12 100 12 100 21 c 257
 100 679 l 257
 100 688 100 688 106 694 c 128
 112 700 112 700 121 700 c 257
599 700 m 257
 608 700 608 700 614 694 c 128
 620 688 620 688 620 679 c 257
 620 21 l 257
 619 12 619 12 613 6 c 128
 607 0 607 0 599 0 c 257
 589 0 589 0 583.5 6 c 128
 578 12 578 12 578 21 c 257
 578 679 l 257
 578 688 578 688 584 694 c 128
 590 700 590 700 599 700 c 257
116 380 m 257
 601 380 l 257
 599 340 l 257
 110 340 l 257
 116 380 l 257
EndSplineSet
EndChar

StartChar: Hbar
Encoding: 79 294 79
GlifName: Hbar
Width: 841
VWidth: 0
Flags: W
LayerCount: 2
Fore
SplineSet
120 489 m 257
 112 489 112 489 106 495 c 128
 100 501 100 501 100 509 c 257
 100 518 100 518 106 523.5 c 128
 112 529 112 529 120 529 c 257
 721 529 l 257
 729 529 729 529 735 523 c 128
 741 517 741 517 741 509 c 257
 741 500 741 500 735 494.5 c 128
 729 489 729 489 721 489 c 257
 120 489 l 257
181 700 m 257
 190 700 190 700 196 694 c 128
 202 688 202 688 202 679 c 257
 202 21 l 257
 201 12 201 12 195 6 c 128
 189 0 189 0 181 0 c 257
 171 0 171 0 165.5 6 c 128
 160 12 160 12 160 21 c 257
 160 679 l 257
 160 688 160 688 166 694 c 128
 172 700 172 700 181 700 c 257
659 700 m 257
 668 700 668 700 674 694 c 128
 680 688 680 688 680 679 c 257
 680 21 l 257
 679 12 679 12 673 6 c 128
 667 0 667 0 659 0 c 257
 649 0 649 0 643.5 6 c 128
 638 12 638 12 638 21 c 257
 638 679 l 257
 638 688 638 688 644 694 c 128
 650 700 650 700 659 700 c 257
176 380 m 257
 661 380 l 257
 659 340 l 257
 170 340 l 257
 176 380 l 257
EndSplineSet
EndChar

StartChar: I
Encoding: 83 73 83
GlifName: I
Width: 242
VWidth: 0
Flags: W
LayerCount: 2
Fore
SplineSet
142 21 m 257
 141 12 141 12 135 6 c 128
 129 0 129 0 121 0 c 257
 111 0 111 0 105.5 6 c 128
 100 12 100 12 100 21 c 257
 100 679 l 257
 100 688 100 688 106 694 c 128
 112 700 112 700 121 700 c 257
 130 700 130 700 136 694 c 128
 142 688 142 688 142 679 c 257
 142 21 l 257
EndSplineSet
EndChar

StartChar: IJ
Encoding: 84 306 84
GlifName: IJ
Width: 603
VWidth: 0
Flags: W
LayerCount: 2
Fore
SplineSet
158 251 m 257
 157 242 157 242 151 236 c 128
 145 230 145 230 137 230 c 257
 127 230 127 230 121.5 236 c 128
 116 242 116 242 116 251 c 257
 116 679 l 257
 116 688 116 688 122 694 c 128
 128 700 128 700 137 700 c 257
 146 700 146 700 152 694 c 128
 158 688 158 688 158 679 c 257
 158 251 l 257
292 -10 m 257
 227 -10 227 -10 177 29 c 128
 127 68 127 68 102 129 c 257
 100 135 100 135 100 139 c 257
 100 148 100 148 106.5 152.5 c 128
 113 157 113 157 120 157 c 257
 128 157 128 157 132 153.5 c 128
 136 150 136 150 139 144 c 257
 158 94 158 94 199 62 c 128
 240 30 240 30 292 30 c 257
 344 30 344 30 381.5 51 c 128
 419 72 419 72 440 110 c 128
 461 148 461 148 461 199 c 257
 461 680 l 257
 461 688 461 688 467 694 c 128
 473 700 473 700 483 700 c 257
 492 700 492 700 497.5 694 c 128
 503 688 503 688 503 680 c 257
 503 199 l 257
 503 137 503 137 476.5 89.5 c 128
 450 42 450 42 402.5 16 c 128
 355 -10 355 -10 292 -10 c 257
EndSplineSet
EndChar

StartChar: Iogonek
Encoding: 98 302 98
GlifName: Iogonek
Width: 220
VWidth: 0
Flags: W
LayerCount: 2
Fore
SplineSet
103 -185 m 257
 70 -185 70 -185 42.5 -160 c 128
 15 -135 15 -135 15 -93 c 257
 15 -70 15 -70 22 -51 c 128
 29 -32 29 -32 41 -17 c 128
 53 -2 53 -2 68 8 c 128
 83 18 83 18 99 23 c 257
 104 19 l 257
 98 21 l 257
 98 679 l 257
 98 688 98 688 104 694 c 128
 110 700 110 700 119 700 c 257
 128 700 128 700 134 694 c 128
 140 688 140 688 140 679 c 257
 140 30 l 257
 140 20 140 20 135.5 15.5 c 128
 131 11 131 11 120 6 c 257
 98 -3 98 -3 75.5 -26.5 c 128
 53 -50 53 -50 53 -85 c 257
 53 -115 53 -115 70 -131.5 c 128
 87 -148 87 -148 108 -148 c 257
 127 -148 127 -148 135 -141.5 c 128
 143 -135 143 -135 148 -128.5 c 128
 153 -122 153 -122 161 -122 c 257
 168 -122 168 -122 171.5 -126.5 c 128
 175 -131 175 -131 175 -136 c 257
 175 -149 175 -149 165.5 -160.5 c 128
 156 -172 156 -172 140 -178.5 c 128
 124 -185 124 -185 103 -185 c 257
EndSplineSet
EndChar

StartChar: J
Encoding: 100 74 100
GlifName: J
Width: 578
VWidth: 0
Flags: W
LayerCount: 2
Fore
SplineSet
267 -10 m 257
 202 -10 202 -10 152 29 c 128
 102 68 102 68 77 129 c 257
 75 135 75 135 75 139 c 257
 75 148 75 148 81.5 152.5 c 128
 88 157 88 157 95 157 c 257
 103 157 103 157 107 153.5 c 128
 111 150 111 150 114 144 c 257
 133 94 133 94 174 62 c 128
 215 30 215 30 267 30 c 257
 319 30 319 30 356.5 51 c 128
 394 72 394 72 415 110 c 128
 436 148 436 148 436 199 c 257
 436 680 l 257
 436 688 436 688 442 694 c 128
 448 700 448 700 458 700 c 257
 467 700 467 700 472.5 694 c 128
 478 688 478 688 478 680 c 257
 478 199 l 257
 478 137 478 137 451.5 89.5 c 128
 425 42 425 42 377.5 16 c 128
 330 -10 330 -10 267 -10 c 257
EndSplineSet
EndChar

StartChar: K
Encoding: 103 75 103
GlifName: K
Width: 682
VWidth: 0
Flags: W
LayerCount: 2
Fore
SplineSet
606 -5 m 257
 598 -5 598 -5 592 2 c 257
 290 376 l 257
 322 408 l 257
 624 30 l 257
 629 23 629 23 629 16 c 257
 629 4 629 4 620.5 -0.5 c 128
 612 -5 612 -5 606 -5 c 257
588 696 m 257
 596 696 596 696 602 690 c 128
 608 684 608 684 608 676 c 257
 608 668 608 668 602 662 c 257
 136 228 l 257
 127 271 l 257
 574 690 l 257
 580 696 580 696 588 696 c 257
121 0 m 257
 111 0 111 0 105.5 6 c 128
 100 12 100 12 100 21 c 257
 100 679 l 257
 100 688 100 688 106 694 c 128
 112 700 112 700 121 700 c 257
 130 700 130 700 136 694 c 128
 142 688 142 688 142 679 c 257
 142 21 l 257
 141 12 141 12 135 6 c 128
 129 0 129 0 121 0 c 257
EndSplineSet
EndChar

StartChar: L
Encoding: 105 76 105
GlifName: L
Width: 522
VWidth: 0
Flags: W
LayerCount: 2
Fore
SplineSet
487 40 m 257
 495 40 495 40 501 34 c 128
 507 28 507 28 507 20 c 257
 507 11 507 11 501 5.5 c 128
 495 0 495 0 487 0 c 257
 120 0 l 257
 111 0 111 0 105.5 6 c 128
 100 12 100 12 100 20 c 257
 100 680 l 257
 100 688 100 688 106 694 c 128
 112 700 112 700 121 700 c 257
 130 700 130 700 136 694 c 128
 142 688 142 688 142 680 c 257
 142 22 l 257
 124 40 l 257
 487 40 l 257
EndSplineSet
EndChar

StartChar: Lslash
Encoding: 115 321 115
GlifName: Lslash
Width: 561
VWidth: 0
Flags: W
LayerCount: 2
Fore
SplineSet
68 348 m 257
 59 348 59 348 54.5 353.5 c 128
 50 359 50 359 50 367 c 257
 50 380 50 380 62 386 c 257
 262 474 l 257
 268 477 268 477 273 477 c 257
 284 477 284 477 287.5 469.5 c 128
 291 462 291 462 291 457 c 257
 291 444 291 444 278 438 c 257
 78 350 l 257
 76 349 76 349 73 348.5 c 128
 70 348 70 348 68 348 c 257
179 32 m 257
 172 40 l 257
 526 40 l 257
 534 40 534 40 540 34 c 128
 546 28 546 28 546 20 c 257
 546 11 546 11 540 5.5 c 128
 534 0 534 0 526 0 c 257
 159 0 l 257
 150 0 150 0 144.5 6 c 128
 139 12 139 12 139 20 c 257
 139 680 l 257
 139 688 139 688 145 694 c 128
 151 700 151 700 159 700 c 257
 168 700 168 700 173.5 694 c 128
 179 688 179 688 179 680 c 257
 179 32 l 257
EndSplineSet
EndChar

StartChar: M
Encoding: 116 77 116
GlifName: M
Width: 829
VWidth: 0
Flags: W
LayerCount: 2
Fore
SplineSet
119 700 m 257
 124 700 124 700 129 698 c 128
 134 696 134 696 138 691 c 257
 425 264 l 257
 405 264 l 257
 692 691 l 257
 700 702 700 702 711 700 c 257
 719 699 719 699 724 693.5 c 128
 729 688 729 688 729 680 c 257
 729 20 l 257
 729 12 729 12 722.5 6 c 128
 716 0 716 0 708 0 c 257
 699 0 699 0 693 6 c 128
 687 12 687 12 687 20 c 257
 687 635 l 257
 698 635 l 257
 429 228 l 257
 427 224 427 224 423.5 222 c 128
 420 220 420 220 415 220 c 257
 410 220 410 220 405.5 222 c 128
 401 224 401 224 399 228 c 257
 124 643 l 257
 140 643 l 257
 140 20 l 257
 140 12 140 12 134 6 c 128
 128 0 128 0 120 0 c 257
 111 0 111 0 105.5 6 c 128
 100 12 100 12 100 20 c 257
 100 680 l 257
 100 687 100 687 105 693.5 c 128
 110 700 110 700 119 700 c 257
EndSplineSet
EndChar

StartChar: N
Encoding: 118 78 118
GlifName: N
Width: 725
VWidth: 0
Flags: W
LayerCount: 2
Fore
SplineSet
606 700 m 257
 615 700 615 700 620 694.5 c 128
 625 689 625 689 625 681 c 257
 625 22 l 257
 625 11 625 11 618.5 5.5 c 128
 612 0 612 0 604 0 c 257
 600 0 600 0 595.5 2 c 128
 591 4 591 4 588 8 c 257
 124 642 l 257
 138 649 l 257
 138 17 l 257
 138 10 138 10 132.5 5 c 128
 127 0 127 0 119 0 c 257
 110 0 110 0 105 5 c 128
 100 10 100 10 100 17 c 257
 100 680 l 257
 100 691 100 691 106 695.5 c 128
 112 700 112 700 118 700 c 257
 122 700 122 700 126 698.5 c 128
 130 697 130 697 133 693 c 257
 595 63 l 257
 587 43 l 257
 587 681 l 257
 587 689 587 689 593 694.5 c 128
 599 700 599 700 606 700 c 257
EndSplineSet
EndChar

StartChar: uni019D
Encoding: 126 413 126
GlifName: uni019D
Width: 725
VWidth: 0
Flags: W
LayerCount: 2
Fore
SplineSet
4 -198 m 257
 -6 -199 -6 -199 -12 -193.5 c 128
 -18 -188 -18 -188 -18 -180 c 257
 -18 -170 -18 -170 -12.5 -165 c 128
 -7 -160 -7 -160 0 -159 c 257
 22 -155 22 -155 45 -144 c 128
 68 -133 68 -133 84 -112 c 128
 100 -91 100 -91 100 -58 c 257
 100 680 l 257
 100 691 100 691 106 695.5 c 128
 112 700 112 700 118 700 c 257
 122 700 122 700 126 698.5 c 128
 130 697 130 697 133 693 c 257
 595 63 l 257
 587 43 l 257
 587 681 l 257
 587 689 587 689 593 694.5 c 128
 599 700 599 700 606 700 c 257
 615 700 615 700 620 694.5 c 128
 625 689 625 689 625 681 c 257
 625 22 l 257
 625 11 625 11 618.5 5.5 c 128
 612 0 612 0 604 0 c 257
 600 0 600 0 595.5 2 c 128
 591 4 591 4 588 8 c 257
 124 642 l 257
 138 649 l 257
 138 -58 l 257
 138 -84 138 -84 130 -105 c 128
 122 -126 122 -126 109 -142 c 128
 96 -158 96 -158 78.5 -169.5 c 128
 61 -181 61 -181 42 -188 c 128
 23 -195 23 -195 4 -198 c 257
EndSplineSet
EndChar

StartChar: Eng
Encoding: 130 330 130
GlifName: Eng
Width: 745
VWidth: 0
Flags: W
LayerCount: 2
Fore
SplineSet
470 -200 m 257
 460 -200 460 -200 454 -194.5 c 128
 448 -189 448 -189 448 -180 c 257
 448 -171 448 -171 454 -165.5 c 128
 460 -160 460 -160 469 -160 c 257
 527 -160 527 -160 556 -145 c 128
 585 -130 585 -130 595 -103.5 c 128
 605 -77 605 -77 605 -44 c 257
 606 37 l 257
 612 4 l 257
 139 623 l 257
 140 626 l 257
 140 20 l 257
 140 12 140 12 134 6 c 128
 128 0 128 0 120 0 c 257
 111 0 111 0 105.5 6 c 128
 100 12 100 12 100 20 c 257
 100 680 l 257
 100 690 100 690 106.5 695 c 128
 113 700 113 700 121 700 c 257
 126 700 126 700 131 696.5 c 128
 136 693 136 693 137 691 c 257
 611 71 l 257
 605 63 l 257
 605 676 l 257
 605 684 605 684 611 690 c 128
 617 696 617 696 625 696 c 257
 634 696 634 696 639.5 690 c 128
 645 684 645 684 645 676 c 257
 645 42 l 257
 645 -44 l 257
 645 -83 645 -83 630.5 -119 c 128
 616 -155 616 -155 578.5 -177.5 c 128
 541 -200 541 -200 470 -200 c 257
EndSplineSet
EndChar

StartChar: O
Encoding: 131 79 131
GlifName: O
Width: 768
VWidth: 0
Flags: W
LayerCount: 2
Fore
SplineSet
718 350 m 257
 718 270 718 270 693.5 204 c 128
 669 138 669 138 624 90 c 128
 579 42 579 42 518 16 c 128
 457 -10 457 -10 384 -10 c 257
 311 -10 311 -10 250 16 c 128
 189 42 189 42 144 90 c 128
 99 138 99 138 74.5 204 c 128
 50 270 50 270 50 350 c 257
 50 430 50 430 74.5 496 c 128
 99 562 99 562 144 610 c 128
 189 658 189 658 250 684 c 128
 311 710 311 710 384 710 c 257
 457 710 457 710 518 684 c 128
 579 658 579 658 624 610 c 128
 669 562 669 562 693.5 496 c 128
 718 430 718 430 718 350 c 257
676 350 m 257
 676 446 676 446 638.5 518 c 128
 601 590 601 590 535.5 630 c 128
 470 670 470 670 384 670 c 257
 299 670 299 670 233 630 c 128
 167 590 167 590 129.5 518 c 128
 92 446 92 446 92 350 c 257
 92 254 92 254 129.5 182 c 128
 167 110 167 110 233 70 c 128
 299 30 299 30 384 30 c 257
 470 30 470 30 535.5 70 c 128
 601 110 601 110 638.5 182 c 128
 676 254 676 254 676 350 c 257
EndSplineSet
EndChar

StartChar: uni01EA
Encoding: 159 490 159
GlifName: uni01EA
Width: 768
VWidth: 0
Flags: W
LayerCount: 2
Fore
SplineSet
429 -185 m 257
 396 -185 396 -185 368.5 -160 c 128
 341 -135 341 -135 341 -93 c 257
 341 -70 341 -70 348.5 -51.5 c 128
 356 -33 356 -33 368.5 -20 c 128
 381 -7 381 -7 396 2.5 c 128
 411 12 411 12 427 17 c 257
 471 1 l 257
 451 2 451 2 429.5 -10 c 128
 408 -22 408 -22 393.5 -42 c 128
 379 -62 379 -62 379 -85 c 257
 379 -115 379 -115 396 -131.5 c 128
 413 -148 413 -148 434 -148 c 257
 444 -148 444 -148 450.5 -147 c 128
 457 -146 457 -146 461 -141 c 257
 467 -133 467 -133 473 -127.5 c 128
 479 -122 479 -122 487 -122 c 257
 494 -122 494 -122 497.5 -126.5 c 128
 501 -131 501 -131 501 -136 c 257
 501 -149 501 -149 491.5 -160.5 c 128
 482 -172 482 -172 466 -178.5 c 128
 450 -185 450 -185 429 -185 c 257
718 350 m 257
 718 270 718 270 693.5 204 c 128
 669 138 669 138 624 90 c 128
 579 42 579 42 518 16 c 128
 457 -10 457 -10 384 -10 c 257
 311 -10 311 -10 250 16 c 128
 189 42 189 42 144 90 c 128
 99 138 99 138 74.5 204 c 128
 50 270 50 270 50 350 c 257
 50 430 50 430 74.5 496 c 128
 99 562 99 562 144 610 c 128
 189 658 189 658 250 684 c 128
 311 710 311 710 384 710 c 257
 457 710 457 710 518 684 c 128
 579 658 579 658 624 610 c 128
 669 562 669 562 693.5 496 c 128
 718 430 718 430 718 350 c 257
676 350 m 257
 676 446 676 446 638.5 518 c 128
 601 590 601 590 535.5 630 c 128
 470 670 470 670 384 670 c 257
 299 670 299 670 233 630 c 128
 167 590 167 590 129.5 518 c 128
 92 446 92 446 92 350 c 257
 92 254 92 254 129.5 182 c 128
 167 110 167 110 233 70 c 128
 299 30 299 30 384 30 c 257
 470 30 470 30 535.5 70 c 128
 601 110 601 110 638.5 182 c 128
 676 254 676 254 676 350 c 257
EndSplineSet
EndChar

StartChar: Oslash
Encoding: 160 216 160
GlifName: Oslash
Width: 721
VWidth: 0
Flags: W
LayerCount: 2
Fore
SplineSet
89 -20 m 257
 82 -20 82 -20 77 -15 c 128
 72 -10 72 -10 72 -3 c 257
 72 3 72 3 77 10 c 257
 657 707 l 257
 663 715 663 715 667.5 716.5 c 128
 672 718 672 718 679 718 c 257
 685 718 685 718 690.5 714 c 128
 696 710 696 710 696 702 c 257
 696 694 696 694 690 687 c 257
 114 -4 l 257
 110 -10 110 -10 104.5 -15 c 128
 99 -20 99 -20 89 -20 c 257
718 350 m 257
 718 270 718 270 693.5 204 c 128
 669 138 669 138 624 90 c 128
 579 42 579 42 518 16 c 128
 457 -10 457 -10 384 -10 c 257
 311 -10 311 -10 250 16 c 128
 189 42 189 42 144 90 c 128
 99 138 99 138 74.5 204 c 128
 50 270 50 270 50 350 c 257
 50 430 50 430 74.5 496 c 128
 99 562 99 562 144 610 c 128
 189 658 189 658 250 684 c 128
 311 710 311 710 384 710 c 257
 457 710 457 710 518 684 c 128
 579 658 579 658 624 610 c 128
 669 562 669 562 693.5 496 c 128
 718 430 718 430 718 350 c 257
676 350 m 257
 676 446 676 446 638.5 518 c 128
 601 590 601 590 535.5 630 c 128
 470 670 470 670 384 670 c 257
 299 670 299 670 233 630 c 128
 167 590 167 590 129.5 518 c 128
 92 446 92 446 92 350 c 257
 92 254 92 254 129.5 182 c 128
 167 110 167 110 233 70 c 128
 299 30 299 30 384 30 c 257
 470 30 470 30 535.5 70 c 128
 601 110 601 110 638.5 182 c 128
 676 254 676 254 676 350 c 257
EndSplineSet
EndChar

StartChar: OE
Encoding: 166 338 166
GlifName: OE
Width: 998
VWidth: 0
Flags: W
LayerCount: 2
Fore
SplineSet
928 40 m 257
 936 40 936 40 942 34 c 128
 948 28 948 28 948 20 c 257
 948 11 948 11 942 5.5 c 128
 936 0 936 0 928 0 c 257
 340 0 l 257
 240 0 240 0 175.5 47.5 c 128
 111 95 111 95 80.5 174.5 c 128
 50 254 50 254 50 350 c 257
 50 418 50 418 67 481 c 128
 84 544 84 544 119.5 593.5 c 128
 155 643 155 643 210 671.5 c 128
 265 700 265 700 340 700 c 257
 928 700 l 257
 936 700 936 700 942 694 c 128
 948 688 948 688 948 680 c 257
 948 671 948 671 942 665.5 c 128
 936 660 936 660 928 660 c 257
 576 660 l 257
 581 664 l 257
 581 375 l 257
 575 386 l 257
 883 386 l 257
 891 386 891 386 897 380 c 128
 903 374 903 374 903 366 c 257
 903 357 903 357 897 351.5 c 128
 891 346 891 346 883 346 c 257
 575 346 l 257
 581 352 l 257
 581 33 l 257
 575 40 l 257
 928 40 l 257
547 40 m 257
 540 30 l 257
 540 666 l 257
 544 660 l 257
 350 660 l 257
 281 660 281 660 232 635 c 128
 183 610 183 610 151.5 566.5 c 128
 120 523 120 523 105 467 c 128
 90 411 90 411 90 350 c 257
 90 264 90 264 117 193.5 c 128
 144 123 144 123 201.5 81.5 c 128
 259 40 259 40 350 40 c 257
 547 40 l 257
EndSplineSet
EndChar

StartChar: P
Encoding: 167 80 167
GlifName: P
Width: 594
VWidth: 0
Flags: W
LayerCount: 2
Fore
SplineSet
360 700 m 257
 417 700 417 700 459.5 676 c 128
 502 652 502 652 525.5 609 c 128
 549 566 549 566 549 509 c 257
 549 453 549 453 525.5 408 c 128
 502 363 502 363 459.5 337 c 128
 417 311 417 311 360 311 c 257
 138 311 l 257
 142 318 l 257
 142 20 l 257
 142 12 142 12 135.5 6 c 128
 129 0 129 0 121 0 c 257
 111 0 111 0 105.5 6 c 128
 100 12 100 12 100 20 c 257
 100 680 l 257
 100 688 100 688 106 694 c 128
 112 700 112 700 120 700 c 257
 360 700 l 257
360 351 m 257
 406 351 406 351 438.5 371.5 c 128
 471 392 471 392 489 428 c 128
 507 464 507 464 507 509 c 257
 507 555 507 555 489 588.5 c 128
 471 622 471 622 438.5 641 c 128
 406 660 406 660 360 660 c 257
 139 660 l 257
 142 665 l 257
 142 348 l 257
 138 351 l 257
 360 351 l 257
EndSplineSet
EndChar

StartChar: Thorn
Encoding: 168 222 168
GlifName: Thorn
Width: 583
VWidth: 0
Flags: W
LayerCount: 2
Fore
SplineSet
140 20 m 257
 140 12 140 12 134 6 c 128
 128 0 128 0 120 0 c 257
 111 0 111 0 105.5 6 c 128
 100 12 100 12 100 20 c 257
 100 720 l 257
 100 728 100 728 106 734 c 128
 112 740 112 740 120 740 c 257
 129 740 129 740 134.5 734 c 128
 140 728 140 728 140 720 c 257
 140 20 l 257
127 238 m 257
 349 238 l 257
 395 238 395 238 427.5 258.5 c 128
 460 279 460 279 478 315 c 128
 496 351 496 351 496 396 c 257
 496 442 496 442 478 475.5 c 128
 460 509 460 509 427.5 528 c 128
 395 547 395 547 349 547 c 257
 128 547 l 257
 109 587 l 257
 349 587 l 257
 406 587 406 587 448.5 563 c 128
 491 539 491 539 514.5 496 c 128
 538 453 538 453 538 396 c 257
 538 340 538 340 514.5 295 c 128
 491 250 491 250 448.5 224 c 128
 406 198 406 198 349 198 c 257
 127 198 l 257
 127 238 l 257
EndSplineSet
EndChar

StartChar: Q
Encoding: 169 81 169
GlifName: Q
Width: 782
VWidth: 0
Flags: W
LayerCount: 2
Fore
SplineSet
780 -65 m 257
 788 -65 788 -65 792.5 -69.5 c 128
 797 -74 797 -74 797 -82 c 257
 797 -97 797 -97 780.5 -111.5 c 128
 764 -126 764 -126 737 -138.5 c 128
 710 -151 710 -151 679.5 -158 c 128
 649 -165 649 -165 621 -165 c 257
 562 -165 562 -165 521.5 -151.5 c 128
 481 -138 481 -138 448.5 -120.5 c 128
 416 -103 416 -103 382 -89.5 c 128
 348 -76 348 -76 301 -76 c 257
 283 -76 283 -76 268.5 -81.5 c 128
 254 -87 254 -87 243.5 -92.5 c 128
 233 -98 233 -98 224 -98 c 257
 216 -98 216 -98 210 -92 c 128
 204 -86 204 -86 204 -77 c 257
 204 -65 204 -65 215 -60 c 257
 376 -4 l 257
 468 0 l 257
 321 -48 l 257
 320 -40 l 257
 364 -40 364 -40 399 -53 c 128
 434 -66 434 -66 466.5 -83.5 c 128
 499 -101 499 -101 536 -114 c 128
 573 -127 573 -127 621 -127 c 257
 664 -127 664 -127 692 -115 c 128
 720 -103 720 -103 736 -94 c 257
 750 -86 750 -86 759.5 -75.5 c 128
 769 -65 769 -65 780 -65 c 257
718 350 m 257
 718 270 718 270 693.5 204 c 128
 669 138 669 138 624 90 c 128
 579 42 579 42 518 16 c 128
 457 -10 457 -10 384 -10 c 257
 311 -10 311 -10 250 16 c 128
 189 42 189 42 144 90 c 128
 99 138 99 138 74.5 204 c 128
 50 270 50 270 50 350 c 257
 50 430 50 430 74.5 496 c 128
 99 562 99 562 144 610 c 128
 189 658 189 658 250 684 c 128
 311 710 311 710 384 710 c 257
 457 710 457 710 518 684 c 128
 579 658 579 658 624 610 c 128
 669 562 669 562 693.5 496 c 128
 718 430 718 430 718 350 c 257
676 350 m 257
 676 446 676 446 638.5 518 c 128
 601 590 601 590 535.5 630 c 128
 470 670 470 670 384 670 c 257
 299 670 299 670 233 630 c 128
 167 590 167 590 129.5 518 c 128
 92 446 92 446 92 350 c 257
 92 254 92 254 129.5 182 c 128
 167 110 167 110 233 70 c 128
 299 30 299 30 384 30 c 257
 470 30 470 30 535.5 70 c 128
 601 110 601 110 638.5 182 c 128
 676 254 676 254 676 350 c 257
EndSplineSet
EndChar

StartChar: R
Encoding: 170 82 170
GlifName: R
Width: 664
VWidth: 0
Flags: W
LayerCount: 2
Fore
SplineSet
121 0 m 257
 111 0 111 0 105.5 6 c 128
 100 12 100 12 100 20 c 257
 100 680 l 257
 100 688 100 688 106 694 c 128
 112 700 112 700 120 700 c 257
 384 700 l 257
 443 700 443 700 487.5 676.5 c 128
 532 653 532 653 557 612 c 128
 582 571 582 571 582 519 c 257
 582 473 582 473 565.5 436 c 128
 549 399 549 399 519.5 374.5 c 128
 490 350 490 350 452 339 c 257
 406 347 l 257
 446 347 446 347 482 326.5 c 128
 518 306 518 306 541 266.5 c 128
 564 227 564 227 564 170 c 257
 564 121 564 121 568.5 95.5 c 128
 573 70 573 70 580.5 58 c 128
 588 46 588 46 598 39 c 257
 604 35 604 35 607 29 c 128
 610 23 610 23 608 15 c 257
 606 9 606 9 601.5 5.5 c 128
 597 2 597 2 592 1 c 128
 587 0 587 0 581 3 c 257
 567 11 567 11 553.5 27 c 128
 540 43 540 43 531 76 c 128
 522 109 522 109 522 170 c 257
 522 217 522 217 507.5 245 c 128
 493 273 493 273 470.5 288 c 128
 448 303 448 303 422.5 308 c 128
 397 313 397 313 376 313 c 257
 133 313 l 257
 142 325 l 257
 142 20 l 257
 142 12 142 12 136 6 c 128
 130 0 130 0 121 0 c 257
132 353 m 257
 389 353 l 257
 429 357 429 357 463 377 c 128
 497 397 497 397 518.5 433 c 128
 540 469 540 469 540 518 c 257
 540 579 540 579 496.5 619.5 c 128
 453 660 453 660 379 660 c 257
 137 660 l 257
 142 667 l 257
 142 342 l 257
 132 353 l 257
EndSplineSet
EndChar

StartChar: S
Encoding: 178 83 178
GlifName: S
Width: 550
VWidth: 0
Flags: W
LayerCount: 2
Fore
SplineSet
283 -10 m 257
 205 -11 205 -11 149 16 c 128
 93 43 93 43 41 95 c 257
 39 97 39 97 37 100.5 c 128
 35 104 35 104 35 110 c 257
 35 118 35 118 42 125.5 c 128
 49 133 49 133 57 133 c 257
 66 133 66 133 74 124 c 257
 114 78 114 78 167.5 54 c 128
 221 30 221 30 279 30 c 257
 330 30 330 30 370 46.5 c 128
 410 63 410 63 433 93.5 c 128
 456 124 456 124 456 165 c 257
 455 216 455 216 428 247 c 128
 401 278 401 278 358.5 298 c 128
 316 318 316 318 269 335 c 257
 232 349 232 349 196 364 c 128
 160 379 160 379 131 400.5 c 128
 102 422 102 422 85 454.5 c 128
 68 487 68 487 68 535 c 257
 68 584 68 584 94.5 623.5 c 128
 121 663 121 663 170.5 686.5 c 128
 220 710 220 710 288 710 c 257
 345 710 345 710 399 689.5 c 128
 453 669 453 669 484 628 c 257
 494 614 494 614 494 607 c 257
 494 600 494 600 486.5 593 c 128
 479 586 479 586 470 586 c 257
 462 586 462 586 457 592 c 257
 439 616 439 616 413.5 633.5 c 128
 388 651 388 651 356 660.5 c 128
 324 670 324 670 288 670 c 257
 239 670 239 670 199 654 c 128
 159 638 159 638 135 608.5 c 128
 111 579 111 579 111 536 c 257
 111 490 111 490 137.5 460.5 c 128
 164 431 164 431 205 411.5 c 128
 246 392 246 392 289 376 c 257
 327 363 327 363 364.5 347.5 c 128
 402 332 402 332 432.5 309 c 128
 463 286 463 286 481 251 c 128
 499 216 499 216 499 163 c 257
 499 117 499 117 472.5 78 c 128
 446 39 446 39 398 15 c 128
 350 -9 350 -9 283 -10 c 257
EndSplineSet
EndChar

StartChar: uni1E9E
Encoding: 189 7838 189
GlifName: uni1E9E
Width: 692
VWidth: 0
Flags: W
LayerCount: 2
Fore
SplineSet
455 -10 m 257
 419 -10 419 -10 390.5 -0.5 c 128
 362 9 362 9 338.5 28 c 128
 315 47 315 47 293 75 c 257
 292 77 292 77 289 82 c 128
 286 87 286 87 286 92 c 257
 286 100 286 100 293.5 106.5 c 128
 301 113 301 113 309 113 c 257
 313 113 313 113 317.5 111 c 128
 322 109 322 109 326 104 c 257
 351 69 351 69 384 49.5 c 128
 417 30 417 30 451 30 c 257
 490 30 490 30 523.5 46.5 c 128
 557 63 557 63 577.5 93.5 c 128
 598 124 598 124 598 165 c 257
 596 208 596 208 578.5 236.5 c 128
 561 265 561 265 535 285 c 128
 509 305 509 305 480 322 c 257
 448 342 448 342 418 363 c 128
 388 384 388 384 369 415.5 c 128
 350 447 350 447 350 495 c 257
 350 528 350 528 364.5 555.5 c 128
 379 583 379 583 407 604 c 128
 435 625 435 625 475.5 638 c 128
 516 651 516 651 568 654 c 257
 565 633 l 257
 547 651 547 651 519 663 c 128
 491 675 491 675 459.5 681.5 c 128
 428 688 428 688 396 688 c 257
 322 688 322 688 272.5 668.5 c 128
 223 649 223 649 194.5 615.5 c 128
 166 582 166 582 154 540 c 128
 142 498 142 498 142 453 c 257
 140 24 l 257
 140 14 140 14 135 9 c 128
 130 4 130 4 120 4 c 257
 110 4 110 4 105 9 c 128
 100 14 100 14 100 24 c 257
 102 453 l 257
 102 502 102 502 116 550 c 128
 130 598 130 598 163.5 638 c 128
 197 678 197 678 254 702 c 128
 311 726 311 726 396 726 c 257
 449 726 449 726 500.5 710.5 c 128
 552 695 552 695 585 670 c 257
 602 656 602 656 602 645 c 257
 602 639 602 639 599.5 635 c 128
 597 631 597 631 592.5 629 c 128
 588 627 588 627 582 626 c 257
 519 619 519 619 477 600 c 128
 435 581 435 581 414 554.5 c 128
 393 528 393 528 393 496 c 257
 393 460 393 460 408 436 c 128
 423 412 423 412 447.5 395 c 128
 472 378 472 378 499 362 c 257
 524 347 524 347 549 330.5 c 128
 574 314 574 314 595 292 c 128
 616 270 616 270 628.5 238.5 c 128
 641 207 641 207 641 163 c 257
 641 117 641 117 618.5 78 c 128
 596 39 596 39 554.5 15 c 128
 513 -9 513 -9 455 -10 c 257
EndSplineSet
EndChar

StartChar: uni018F
Encoding: 190 399 190
GlifName: uni018F
Width: 753
VWidth: 0
Flags: W
LayerCount: 2
Fore
SplineSet
376 -10 m 257
 311 -10 311 -10 252.5 16.5 c 128
 194 43 194 43 149 90.5 c 128
 104 138 104 138 78 200 c 128
 52 262 52 262 50 333 c 257
 50 350 l 257
 50 358 50 358 56 362.5 c 128
 62 367 62 367 70 367 c 257
 675 367 l 257
 677 327 l 257
 91 327 l 257
 94 266 94 266 117.5 212 c 128
 141 158 141 158 180.5 117 c 128
 220 76 220 76 270 53 c 128
 320 30 320 30 376 30 c 257
 433 30 433 30 484 54 c 128
 535 78 535 78 574.5 121 c 128
 614 164 614 164 637 222 c 128
 660 280 660 280 660 347 c 257
 660 415 660 415 637 473.5 c 128
 614 532 614 532 574.5 576 c 128
 535 620 535 620 484 645 c 128
 433 670 433 670 376 670 c 257
 291 670 291 670 230.5 639 c 128
 170 608 170 608 123 545 c 257
 118 539 118 539 111 537.5 c 128
 104 536 104 536 97 540 c 257
 89 545 89 545 87.5 554 c 128
 86 563 86 563 92 570 c 257
 145 639 145 639 213.5 674.5 c 128
 282 710 282 710 376 710 c 257
 444 710 444 710 503 682 c 128
 562 654 562 654 607 604.5 c 128
 652 555 652 555 677.5 490 c 128
 703 425 703 425 703 350 c 257
 703 275 703 275 677.5 210 c 128
 652 145 652 145 607 95.5 c 128
 562 46 562 46 503 18 c 128
 444 -10 444 -10 376 -10 c 257
EndSplineSet
EndChar

StartChar: T
Encoding: 191 84 191
GlifName: T
Width: 596
VWidth: 0
Flags: W
LayerCount: 2
Fore
SplineSet
298 0 m 257
 289 0 289 0 283.5 6 c 128
 278 12 278 12 278 20 c 257
 278 676 l 257
 318 676 l 257
 318 20 l 257
 318 12 318 12 312 6 c 128
 306 0 306 0 298 0 c 257
55 662 m 257
 47 662 47 662 41 667.5 c 128
 35 673 35 673 35 681 c 257
 35 689 35 689 41 694.5 c 128
 47 700 47 700 55 700 c 257
 541 700 l 257
 549 700 549 700 555 694.5 c 128
 561 689 561 689 561 681 c 257
 561 672 561 672 555 667 c 128
 549 662 549 662 541 662 c 257
 55 662 l 257
EndSplineSet
EndChar

StartChar: U
Encoding: 199 85 199
GlifName: U
Width: 715
VWidth: 0
Flags: W
LayerCount: 2
Fore
SplineSet
595 700 m 257
 604 700 604 700 609.5 694 c 128
 615 688 615 688 615 680 c 257
 615 248 l 257
 615 177 615 177 580 118.5 c 128
 545 60 545 60 487 25 c 128
 429 -10 429 -10 358 -10 c 257
 287 -10 287 -10 228.5 25 c 128
 170 60 170 60 135 118.5 c 128
 100 177 100 177 100 248 c 257
 100 680 l 257
 100 688 100 688 105.5 694 c 128
 111 700 111 700 121 700 c 257
 130 700 130 700 136 694 c 128
 142 688 142 688 142 680 c 257
 142 248 l 257
 142 188 142 188 171 138.5 c 128
 200 89 200 89 249.5 59.5 c 128
 299 30 299 30 358 30 c 257
 418 30 418 30 467 59.5 c 128
 516 89 516 89 545.5 138.5 c 128
 575 188 575 188 575 248 c 257
 575 680 l 257
 575 688 575 688 580.5 694 c 128
 586 700 586 700 595 700 c 257
EndSplineSet
EndChar

StartChar: Uogonek
Encoding: 219 370 219
GlifName: Uogonek
Width: 715
VWidth: 0
Flags: W
LayerCount: 2
Fore
SplineSet
429 -185 m 257
 396 -185 396 -185 368.5 -160 c 128
 341 -135 341 -135 341 -93 c 257
 341 -70 341 -70 349 -51.5 c 128
 357 -33 357 -33 370 -19 c 128
 383 -5 383 -5 399 4.5 c 128
 415 14 415 14 431 19 c 257
 396 -7 l 257
 387 -8 387 -8 377.5 -9 c 128
 368 -10 368 -10 358 -10 c 257
 287 -10 287 -10 228.5 25 c 128
 170 60 170 60 135 118.5 c 128
 100 177 100 177 100 248 c 257
 100 680 l 257
 100 688 100 688 105.5 694 c 128
 111 700 111 700 121 700 c 257
 130 700 130 700 136 694 c 128
 142 688 142 688 142 680 c 257
 142 248 l 257
 142 188 142 188 171 138.5 c 128
 200 89 200 89 249.5 59.5 c 128
 299 30 299 30 358 30 c 257
 420 30 420 30 469 59.5 c 128
 518 89 518 89 546.5 138.5 c 128
 575 188 575 188 575 248 c 257
 575 680 l 257
 575 688 575 688 580.5 694 c 128
 586 700 586 700 595 700 c 257
 604 700 604 700 609.5 694 c 128
 615 688 615 688 615 680 c 257
 615 248 l 257
 615 199 615 199 598.5 154.5 c 128
 582 110 582 110 551.5 75 c 128
 521 40 521 40 479 21 c 257
 463 14 463 14 439 2 c 128
 415 -10 415 -10 397 -30.5 c 128
 379 -51 379 -51 379 -85 c 257
 379 -115 379 -115 396 -131.5 c 128
 413 -148 413 -148 434 -148 c 257
 459 -148 459 -148 465 -138 c 257
 470 -130 470 -130 474.5 -126 c 128
 479 -122 479 -122 486 -122 c 257
 493 -122 493 -122 497 -126.5 c 128
 501 -131 501 -131 501 -136 c 257
 501 -149 501 -149 491.5 -160.5 c 128
 482 -172 482 -172 466 -178.5 c 128
 450 -185 450 -185 429 -185 c 257
EndSplineSet
EndChar

StartChar: V
Encoding: 223 86 223
GlifName: V
Width: 660
VWidth: 0
Flags: W
LayerCount: 2
Fore
SplineSet
605 700 m 257
 615 700 615 700 620 695 c 128
 625 690 625 690 625 682 c 257
 625 678 625 678 623 672 c 257
 349 13 l 257
 346 7 346 7 341 3.5 c 128
 336 0 336 0 330 0 c 257
 324 0 324 0 318.5 3.5 c 128
 313 7 313 7 311 13 c 257
 39 669 l 257
 38 671 38 671 37 674 c 128
 36 677 36 677 36 681 c 257
 36 689 36 689 42 694.5 c 128
 48 700 48 700 55 700 c 257
 70 700 70 700 77 684 c 257
 337 58 l 257
 325 59 l 257
 586 687 l 257
 593 700 593 700 605 700 c 257
EndSplineSet
EndChar

StartChar: W
Encoding: 224 87 224
GlifName: W
Width: 974
VWidth: 0
Flags: W
LayerCount: 2
Fore
SplineSet
918 702 m 257
 927 702 927 702 933 697.5 c 128
 939 693 939 693 939 683 c 257
 939 679 939 679 937 673 c 257
 708 13 l 257
 706 7 706 7 700.5 3.5 c 128
 695 0 695 0 690 0 c 257
 683 0 683 0 677.5 2.5 c 128
 672 5 672 5 670 12 c 257
 483 484 l 257
 491 484 l 257
 304 12 l 257
 301 5 301 5 295.5 2.5 c 128
 290 0 290 0 283 0 c 257
 278 0 278 0 273 3.5 c 128
 268 7 268 7 266 13 c 257
 37 673 l 257
 35 679 35 679 35 682 c 257
 35 692 35 692 42.5 697 c 128
 50 702 50 702 57 702 c 257
 63 702 63 702 68.5 698.5 c 128
 74 695 74 695 76 689 c 257
 291 68 l 257
 284 67 l 257
 468 532 l 257
 470 538 470 538 475 541.5 c 128
 480 545 480 545 487 545 c 257
 493 545 493 545 498.5 541.5 c 128
 504 538 504 538 506 532 c 257
 692 64 l 257
 683 63 l 257
 898 689 l 257
 900 695 900 695 905 698.5 c 128
 910 702 910 702 918 702 c 257
EndSplineSet
EndChar

StartChar: X
Encoding: 229 88 229
GlifName: X
Width: 589
VWidth: 0
Flags: W
LayerCount: 2
Fore
SplineSet
539 704 m 257
 547 704 547 704 553 700 c 128
 559 696 559 696 559 688 c 257
 559 681 559 681 554 674 c 257
 315 345 l 257
 293 379 l 257
 524 696 l 257
 530 704 530 704 539 704 c 257
50 703 m 257
 62 703 62 703 67 695 c 257
 554 29 l 257
 559 22 559 22 559 17 c 257
 559 8 559 8 552.5 2.5 c 128
 546 -3 546 -3 538 -3 c 257
 527 -3 527 -3 522 5 c 257
 34 671 l 257
 30 676 30 676 30 683 c 257
 30 692 30 692 36 697.5 c 128
 42 703 42 703 50 703 c 257
50 -3 m 257
 40 -3 40 -3 35.5 3 c 128
 31 9 31 9 31 14 c 257
 31 19 31 19 36 27 c 257
 275 353 l 257
 295 319 l 257
 65 5 l 257
 60 -3 60 -3 50 -3 c 257
EndSplineSet
EndChar

StartChar: Y
Encoding: 230 89 230
GlifName: Y
Width: 547
VWidth: 0
Flags: W
LayerCount: 2
Fore
SplineSet
507 704 m 257
 517 704 517 704 522 697 c 128
 527 690 527 690 527 685 c 257
 527 681 527 681 526 678 c 128
 525 675 525 675 523 672 c 257
 286 350 l 257
 295 379 l 257
 295 20 l 257
 295 12 295 12 289 6 c 128
 283 0 283 0 274 0 c 257
 264 0 264 0 258.5 6 c 128
 253 12 253 12 253 20 c 257
 253 372 l 257
 258 351 l 257
 24 672 l 257
 22 675 22 675 21 678 c 128
 20 681 20 681 20 685 c 257
 20 693 20 693 27 698.5 c 128
 34 704 34 704 41 704 c 257
 52 704 52 704 58 695 c 257
 280 392 l 257
 270 394 l 257
 490 695 l 257
 496 704 496 704 507 704 c 257
EndSplineSet
EndChar

StartChar: Z
Encoding: 240 90 240
GlifName: Z
Width: 643
VWidth: 0
Flags: W
LayerCount: 2
Fore
SplineSet
570 700 m 257
 583 700 583 700 588 693.5 c 128
 593 687 593 687 593 680 c 257
 593 673 593 673 589 668 c 257
 111 28 l 257
 112 38 l 257
 572 38 l 257
 580 38 580 38 586 32 c 128
 592 26 592 26 592 19 c 257
 592 11 592 11 586 5.5 c 128
 580 0 580 0 572 0 c 257
 80 0 l 257
 70 0 70 0 65 7 c 128
 60 14 60 14 60 21 c 257
 60 28 60 28 64 33 c 257
 539 666 l 257
 545 662 l 257
 100 662 l 257
 92 662 92 662 86 668 c 128
 80 674 80 674 80 681 c 257
 80 689 80 689 86 694.5 c 128
 92 700 92 700 100 700 c 257
 570 700 l 257
EndSplineSet
EndChar

StartChar: a
Encoding: 245 97 245
GlifName: a__1
Width: 599
VWidth: 0
Flags: W
LayerCount: 2
Fore
SplineSet
496 499 m 257
 505 499 505 499 510.5 493 c 128
 516 487 516 487 516 479 c 257
 516 20 l 257
 516 12 516 12 510 6 c 128
 504 0 504 0 496 0 c 257
 487 0 487 0 481.5 6 c 128
 476 12 476 12 476 20 c 257
 476 162 l 257
 492 175 l 257
 492 143 492 143 476 110 c 128
 460 77 460 77 432 50 c 128
 404 23 404 23 366 6.5 c 128
 328 -10 328 -10 284 -10 c 257
 217 -10 217 -10 164.5 25 c 128
 112 60 112 60 82 120 c 128
 52 180 52 180 52 255 c 257
 52 331 52 331 82.5 389.5 c 128
 113 448 113 448 165.5 481.5 c 128
 218 515 218 515 284 515 c 257
 327 515 327 515 365 499.5 c 128
 403 484 403 484 431.5 456 c 128
 460 428 460 428 476 390.5 c 128
 492 353 492 353 492 309 c 257
 476 334 l 257
 476 479 l 257
 476 487 476 487 481.5 493 c 128
 487 499 487 499 496 499 c 257
286 28 m 257
 342 28 342 28 386 57.5 c 128
 430 87 430 87 455 138.5 c 128
 480 190 480 190 480 255 c 257
 480 317 480 317 455 367.5 c 128
 430 418 430 418 386 447.5 c 128
 342 477 342 477 286 477 c 257
 231 477 231 477 187 448.5 c 128
 143 420 143 420 117.5 370 c 128
 92 320 92 320 92 255 c 257
 92 190 92 190 117 138.5 c 128
 142 87 142 87 186 57.5 c 128
 230 28 230 28 286 28 c 257
EndSplineSet
EndChar

StartChar: aogonek
Encoding: 267 261 267
GlifName: aogonek__1
Width: 597
VWidth: 0
Flags: W
LayerCount: 2
Fore
SplineSet
286 28 m 257
 342 28 342 28 386 57.5 c 128
 430 87 430 87 455 138.5 c 128
 480 190 480 190 480 255 c 257
 480 317 480 317 455 367.5 c 128
 430 418 430 418 386 447.5 c 128
 342 477 342 477 286 477 c 257
 231 477 231 477 187 448.5 c 128
 143 420 143 420 117.5 370 c 128
 92 320 92 320 92 255 c 257
 92 190 92 190 117 138.5 c 128
 142 87 142 87 186 57.5 c 128
 230 28 230 28 286 28 c 257
480 -185 m 257
 447 -185 447 -185 419.5 -160 c 128
 392 -135 392 -135 392 -93 c 257
 392 -70 392 -70 399.5 -51.5 c 128
 407 -33 407 -33 419.5 -20 c 128
 432 -7 432 -7 447 2.5 c 128
 462 12 462 12 478 17 c 257
 476 9 l 257
 476 162 l 257
 492 175 l 257
 492 143 492 143 476 110 c 128
 460 77 460 77 432 50 c 128
 404 23 404 23 366 6.5 c 128
 328 -10 328 -10 284 -10 c 257
 217 -10 217 -10 164.5 25 c 128
 112 60 112 60 82 120 c 128
 52 180 52 180 52 255 c 257
 52 331 52 331 82.5 389.5 c 128
 113 448 113 448 165.5 481.5 c 128
 218 515 218 515 284 515 c 257
 327 515 327 515 365 499.5 c 128
 403 484 403 484 431.5 456 c 128
 460 428 460 428 476 390.5 c 128
 492 353 492 353 492 309 c 257
 476 334 l 257
 476 479 l 257
 476 487 476 487 481.5 493 c 128
 487 499 487 499 496 499 c 257
 505 499 505 499 510.5 493 c 128
 516 487 516 487 516 479 c 257
 516 20 l 257
 516 13 516 13 510.5 5.5 c 128
 505 -2 505 -2 488 -8 c 257
 464 -16 464 -16 447 -37.5 c 128
 430 -59 430 -59 430 -85 c 257
 430 -115 430 -115 447 -131.5 c 128
 464 -148 464 -148 485 -148 c 257
 496 -148 496 -148 504 -145.5 c 128
 512 -143 512 -143 517 -136 c 257
 522 -131 522 -131 526.5 -126.5 c 128
 531 -122 531 -122 538 -122 c 257
 545 -122 545 -122 548.5 -126.5 c 128
 552 -131 552 -131 552 -136 c 257
 552 -149 552 -149 542.5 -160.5 c 128
 533 -172 533 -172 517 -178.5 c 128
 501 -185 501 -185 480 -185 c 257
EndSplineSet
EndChar

StartChar: ae
Encoding: 271 230 271
GlifName: ae__1
Width: 895
VWidth: 0
Flags: W
LayerCount: 2
Fore
SplineSet
270 515 m 257
 302 515 302 515 330.5 508.5 c 128
 359 502 359 502 381.5 487.5 c 128
 404 473 404 473 417 448.5 c 128
 430 424 430 424 430 388 c 257
 430 252 l 257
 394 251 l 257
 394 370 l 257
 394 414 394 414 375 437 c 128
 356 460 356 460 327.5 468.5 c 128
 299 477 299 477 270 477 c 257
 237 477 237 477 203.5 463 c 128
 170 449 170 449 142.5 428 c 128
 115 407 115 407 100 384 c 257
 93 375 93 375 83 375 c 257
 76 375 76 375 71 380.5 c 128
 66 386 66 386 66 393 c 257
 66 396 66 396 67 399 c 128
 68 402 68 402 70 405 c 257
 91 432 91 432 122.5 457.5 c 128
 154 483 154 483 192.5 499 c 128
 231 515 231 515 270 515 c 257
202 -10 m 257
 167 -10 167 -10 132.5 6.5 c 128
 98 23 98 23 75 55.5 c 128
 52 88 52 88 52 136 c 257
 52 193 52 193 89.5 230 c 128
 127 267 127 267 193 285.5 c 128
 259 304 259 304 344 304 c 257
 812 304 l 257
 802 295 l 257
 802 313 l 257
 797 366 797 366 768.5 402 c 128
 740 438 740 438 700 456.5 c 128
 660 475 660 475 617 475 c 257
 587 475 587 475 554 461.5 c 128
 521 448 521 448 493 420.5 c 128
 465 393 465 393 447.5 351 c 128
 430 309 430 309 430 253 c 257
 430 192 430 192 454.5 141 c 128
 479 90 479 90 527.5 59 c 128
 576 28 576 28 647 28 c 257
 681 28 681 28 711 39.5 c 128
 741 51 741 51 765 70 c 128
 789 89 789 89 804 111 c 257
 812 120 812 120 821 120 c 257
 828 120 828 120 833 114.5 c 128
 838 109 838 109 838 102 c 257
 838 95 838 95 834 90 c 257
 803 50 803 50 754.5 20 c 128
 706 -10 706 -10 647 -10 c 257
 572 -10 572 -10 514 22 c 128
 456 54 456 54 423.5 112.5 c 128
 391 171 391 171 391 250 c 257
 391 334 391 334 423.5 393 c 128
 456 452 456 452 507.5 483.5 c 128
 559 515 559 515 617 515 c 257
 659 515 659 515 699 501.5 c 128
 739 488 739 488 770.5 459.5 c 128
 802 431 802 431 821.5 388.5 c 128
 841 346 841 346 843 287 c 257
 843 279 843 279 837 272.5 c 128
 831 266 831 266 823 266 c 257
 346 266 l 257
 272 266 272 266 214.5 252 c 128
 157 238 157 238 124.5 209 c 128
 92 180 92 180 92 136 c 257
 92 100 92 100 110 76 c 128
 128 52 128 52 154.5 40 c 128
 181 28 181 28 206 28 c 257
 250 28 250 28 291.5 49.5 c 128
 333 71 333 71 364.5 101.5 c 128
 396 132 396 132 408 157 c 257
 430 125 l 257
 412 98 412 98 381.5 66.5 c 128
 351 35 351 35 307 12.5 c 128
 263 -10 263 -10 202 -10 c 257
EndSplineSet
EndChar

StartChar: b
Encoding: 273 98 273
GlifName: b__1
Width: 599
VWidth: 0
Flags: W
LayerCount: 2
Fore
SplineSet
315 515 m 257
 382 515 382 515 434 481.5 c 128
 486 448 486 448 516.5 389.5 c 128
 547 331 547 331 547 255 c 257
 547 180 547 180 516.5 120 c 128
 486 60 486 60 433.5 25 c 128
 381 -10 381 -10 315 -10 c 257
 282 -10 282 -10 251.5 0 c 128
 221 10 221 10 195 28.5 c 128
 169 47 169 47 147.5 73.5 c 128
 126 100 126 100 110 133 c 257
 123 147 l 257
 123 20 l 257
 123 12 123 12 117.5 6 c 128
 112 0 112 0 103 0 c 257
 95 0 95 0 89 6 c 128
 83 12 83 12 83 20 c 257
 83 719 l 257
 83 727 83 727 88.5 733 c 128
 94 739 94 739 103 739 c 257
 112 739 112 739 117.5 733 c 128
 123 727 123 727 123 719 c 257
 123 357 l 257
 110 364 l 257
 124 401 124 401 145 429 c 128
 166 457 166 457 193 476 c 128
 220 495 220 495 251 505 c 128
 282 515 282 515 315 515 c 257
313 477 m 257
 256 477 256 477 212.5 448.5 c 128
 169 420 169 420 144 370 c 128
 119 320 119 320 119 255 c 257
 119 190 119 190 144 138.5 c 128
 169 87 169 87 212.5 57.5 c 128
 256 28 256 28 313 28 c 257
 369 28 369 28 412.5 58 c 128
 456 88 456 88 481.5 139.5 c 128
 507 191 507 191 507 255 c 257
 507 320 507 320 481.5 370 c 128
 456 420 456 420 412.5 448.5 c 128
 369 477 369 477 313 477 c 257
EndSplineSet
EndChar

StartChar: c
Encoding: 274 99 274
GlifName: c__1
Width: 517
VWidth: 0
Flags: W
LayerCount: 2
Fore
SplineSet
304 515 m 257
 349 515 349 515 388.5 505 c 128
 428 495 428 495 452.5 478.5 c 128
 477 462 477 462 477 444 c 257
 477 437 477 437 471.5 430.5 c 128
 466 424 466 424 458 424 c 257
 447 424 447 424 440.5 430 c 128
 434 436 434 436 427 444.5 c 128
 420 453 420 453 405 460 c 257
 391 467 391 467 365.5 472 c 128
 340 477 340 477 303 477 c 257
 245 477 245 477 197 447 c 128
 149 417 149 417 120.5 366.5 c 128
 92 316 92 316 92 253 c 257
 92 189 92 189 118.5 138 c 128
 145 87 145 87 192.5 57.5 c 128
 240 28 240 28 303 28 c 257
 348 28 348 28 371.5 36.5 c 128
 395 45 395 45 412 55 c 257
 433 67 433 67 441 78 c 128
 449 89 449 89 460 89 c 257
 468 89 468 89 472.5 84 c 128
 477 79 477 79 477 71 c 257
 477 59 477 59 455 39.5 c 128
 433 20 433 20 393.5 5 c 128
 354 -10 354 -10 300 -10 c 257
 227 -10 227 -10 171 24.5 c 128
 115 59 115 59 83.5 118.5 c 128
 52 178 52 178 52 253 c 257
 52 323 52 323 83.5 382.5 c 128
 115 442 115 442 171.5 478.5 c 128
 228 515 228 515 304 515 c 257
EndSplineSet
EndChar

StartChar: d
Encoding: 281 100 281
GlifName: d__1
Width: 599
VWidth: 0
Flags: W
LayerCount: 2
Fore
SplineSet
496 740 m 257
 505 740 505 740 510.5 734 c 128
 516 728 516 728 516 720 c 257
 516 20 l 257
 516 12 516 12 510 6 c 128
 504 0 504 0 496 0 c 257
 487 0 487 0 481.5 6 c 128
 476 12 476 12 476 20 c 257
 476 162 l 257
 492 184 l 257
 492 150 492 150 476.5 115.5 c 128
 461 81 461 81 432.5 52.5 c 128
 404 24 404 24 366 7 c 128
 328 -10 328 -10 284 -10 c 257
 218 -10 218 -10 165.5 24.5 c 128
 113 59 113 59 82.5 118.5 c 128
 52 178 52 178 52 253 c 257
 52 328 52 328 82.5 387.5 c 128
 113 447 113 447 165.5 481 c 128
 218 515 218 515 284 515 c 257
 325 515 325 515 362.5 499.5 c 128
 400 484 400 484 429 456 c 128
 458 428 458 428 475 390.5 c 128
 492 353 492 353 492 309 c 257
 476 334 l 257
 476 720 l 257
 476 728 476 728 481.5 734 c 128
 487 740 487 740 496 740 c 257
286 28 m 257
 343 28 343 28 386.5 57 c 128
 430 86 430 86 455 137 c 128
 480 188 480 188 480 253 c 257
 480 318 480 318 455 368.5 c 128
 430 419 430 419 386 448 c 128
 342 477 342 477 286 477 c 257
 231 477 231 477 187 448 c 128
 143 419 143 419 117.5 368.5 c 128
 92 318 92 318 92 253 c 257
 92 189 92 189 117.5 138 c 128
 143 87 143 87 187 57.5 c 128
 231 28 231 28 286 28 c 257
EndSplineSet
EndChar

StartChar: eth
Encoding: 282 240 282
GlifName: eth__1
Width: 569
VWidth: 0
Flags: W
LayerCount: 2
Fore
SplineSet
284 -1 m 257
 220 -1 220 -1 167 35 c 128
 114 71 114 71 83 130.5 c 128
 52 190 52 190 52 261 c 257
 52 314 52 314 70 359.5 c 128
 88 405 88 405 119.5 439.5 c 128
 151 474 151 474 193.5 493.5 c 128
 236 513 236 513 284 513 c 257
 337 513 337 513 376 490.5 c 128
 415 468 415 468 441 433.5 c 128
 467 399 467 399 481 362 c 257
 464 368 l 257
 454 423 454 423 433 477 c 128
 412 531 412 531 379 577 c 128
 346 623 346 623 298.5 655.5 c 128
 251 688 251 688 187 700 c 257
 180 702 180 702 175.5 706.5 c 128
 171 711 171 711 171 718 c 257
 171 729 171 729 175.5 734.5 c 128
 180 740 180 740 189 740 c 257
 194 740 194 740 196 739 c 257
 270 724 270 724 324.5 685 c 128
 379 646 379 646 416 593 c 128
 453 540 453 540 475 483.5 c 128
 497 427 497 427 507 374.5 c 128
 517 322 517 322 517 285 c 257
 517 202 517 202 485.5 137 c 128
 454 72 454 72 401.5 35.5 c 128
 349 -1 349 -1 284 -1 c 257
284 37 m 257
 337 37 337 37 380.5 68 c 128
 424 99 424 99 450 150 c 128
 476 201 476 201 476 261 c 257
 476 316 476 316 450.5 365 c 128
 425 414 425 414 381.5 444.5 c 128
 338 475 338 475 284 475 c 257
 231 475 231 475 187 446.5 c 128
 143 418 143 418 117.5 369.5 c 128
 92 321 92 321 92 261 c 257
 92 201 92 201 118 150 c 128
 144 99 144 99 188 68 c 128
 232 37 232 37 284 37 c 257
235 553 m 257
 227 550 227 550 219.5 553 c 128
 212 556 212 556 209 564 c 257
 206 572 206 572 209.5 579.5 c 128
 213 587 213 587 221 590 c 257
 327 631 l 257
 362 644 l 257
 458 682 l 257
 466 686 466 686 473.5 682.5 c 128
 481 679 481 679 484 671 c 257
 487 663 487 663 483.5 655.5 c 128
 480 648 480 648 472 645 c 257
 390 613 l 257
 358 601 l 257
 235 553 l 257
EndSplineSet
EndChar

StartChar: e
Encoding: 289 101 289
GlifName: e__1
Width: 556
VWidth: 0
Flags: W
LayerCount: 2
Fore
SplineSet
308 -10 m 257
 233 -10 233 -10 175.5 22 c 128
 118 54 118 54 85 112.5 c 128
 52 171 52 171 52 250 c 257
 52 334 52 334 84.5 393 c 128
 117 452 117 452 168.5 483.5 c 128
 220 515 220 515 278 515 c 257
 320 515 320 515 360 501.5 c 128
 400 488 400 488 431.5 459.5 c 128
 463 431 463 431 482.5 388.5 c 128
 502 346 502 346 504 287 c 257
 504 279 504 279 498 272.5 c 128
 492 266 492 266 484 266 c 257
 76 266 l 257
 70 304 l 257
 473 304 l 257
 463 295 l 257
 463 313 l 257
 458 366 458 366 429.5 402 c 128
 401 438 401 438 361 456.5 c 128
 321 475 321 475 278 475 c 257
 248 475 248 475 215 461.5 c 128
 182 448 182 448 154 420.5 c 128
 126 393 126 393 108.5 351 c 128
 91 309 91 309 91 253 c 257
 91 192 91 192 115.5 141 c 128
 140 90 140 90 188.5 59 c 128
 237 28 237 28 308 28 c 257
 342 28 342 28 372 39.5 c 128
 402 51 402 51 426 70 c 128
 450 89 450 89 465 111 c 257
 473 120 473 120 482 120 c 257
 489 120 489 120 494 114.5 c 128
 499 109 499 109 499 102 c 257
 499 95 499 95 495 90 c 257
 464 50 464 50 415.5 20 c 128
 367 -10 367 -10 308 -10 c 257
EndSplineSet
EndChar

StartChar: eogonek
Encoding: 310 281 310
GlifName: eogonek__1
Width: 556
VWidth: 0
Flags: W
LayerCount: 2
Fore
SplineSet
424 -185 m 257
 402 -185 402 -185 381 -173.5 c 128
 360 -162 360 -162 346 -141.5 c 128
 332 -121 332 -121 332 -93 c 257
 332 -75 332 -75 337 -59 c 128
 342 -43 342 -43 351 -29 c 128
 360 -15 360 -15 372.5 -2.5 c 128
 385 10 385 10 401 20 c 257
 405 14 l 257
 384 3 384 3 359 -3.5 c 128
 334 -10 334 -10 308 -10 c 257
 233 -10 233 -10 175.5 22 c 128
 118 54 118 54 85 112.5 c 128
 52 171 52 171 52 250 c 257
 52 334 52 334 84.5 393 c 128
 117 452 117 452 168.5 483.5 c 128
 220 515 220 515 278 515 c 257
 320 515 320 515 360 501.5 c 128
 400 488 400 488 431.5 459.5 c 128
 463 431 463 431 482.5 388.5 c 128
 502 346 502 346 504 287 c 257
 504 279 504 279 498 272.5 c 128
 492 266 492 266 484 266 c 257
 74 266 l 257
 77 304 l 257
 474 304 l 257
 463 292 l 257
 463 313 l 257
 458 366 458 366 429.5 402 c 128
 401 438 401 438 361 456.5 c 128
 321 475 321 475 278 475 c 257
 230 475 230 475 187.5 449 c 128
 145 423 145 423 118 373.5 c 128
 91 324 91 324 91 253 c 257
 91 192 91 192 115.5 141 c 128
 140 90 140 90 188.5 59 c 128
 237 28 237 28 308 28 c 257
 342 28 342 28 372 39.5 c 128
 402 51 402 51 426 70 c 128
 450 89 450 89 465 111 c 257
 473 120 473 120 482 120 c 257
 489 120 489 120 494 114.5 c 128
 499 109 499 109 499 102 c 257
 499 99 499 99 498 96 c 128
 497 93 497 93 495 90 c 257
 467 53 467 53 438 26.5 c 128
 409 0 409 0 389.5 -26 c 128
 370 -52 370 -52 370 -87 c 257
 370 -113 370 -113 386.5 -130.5 c 128
 403 -148 403 -148 429 -148 c 257
 453 -148 453 -148 461 -137 c 257
 466 -130 466 -130 470.5 -126 c 128
 475 -122 475 -122 482 -122 c 257
 490 -122 490 -122 493.5 -125.5 c 128
 497 -129 497 -129 497 -136 c 257
 497 -146 497 -146 485.5 -157.5 c 128
 474 -169 474 -169 457 -177 c 128
 440 -185 440 -185 424 -185 c 257
EndSplineSet
EndChar

StartChar: uni0259
Encoding: 312 601 312
GlifName: uni0259
Width: 556
VWidth: 0
Flags: W
LayerCount: 2
Fore
SplineSet
248 515 m 257
 323 515 323 515 381 483 c 128
 439 451 439 451 471.5 392.5 c 128
 504 334 504 334 504 255 c 257
 504 172 504 172 471.5 112.5 c 128
 439 53 439 53 387.5 21.5 c 128
 336 -10 336 -10 278 -10 c 257
 236 -10 236 -10 196 3.5 c 128
 156 17 156 17 124.5 45.5 c 128
 93 74 93 74 73.5 117 c 128
 54 160 54 160 52 218 c 257
 52 226 52 226 58 232.5 c 128
 64 239 64 239 72 239 c 257
 480 239 l 257
 486 201 l 257
 83 201 l 257
 93 210 l 257
 93 192 l 257
 99 139 99 139 127 103 c 128
 155 67 155 67 195.5 48.5 c 128
 236 30 236 30 278 30 c 257
 308 30 308 30 341 43.5 c 128
 374 57 374 57 402 84.5 c 128
 430 112 430 112 447.5 154 c 128
 465 196 465 196 465 252 c 257
 465 313 465 313 440.5 364 c 128
 416 415 416 415 367.5 446 c 128
 319 477 319 477 248 477 c 257
 215 477 215 477 184.5 465.5 c 128
 154 454 154 454 130 435.5 c 128
 106 417 106 417 91 394 c 257
 84 385 84 385 74 385 c 257
 67 385 67 385 62 390.5 c 128
 57 396 57 396 57 403 c 257
 57 410 57 410 61 415 c 257
 92 456 92 456 140.5 485.5 c 128
 189 515 189 515 248 515 c 257
EndSplineSet
EndChar

StartChar: f
Encoding: 313 102 313
GlifName: f__1
Width: 334
VWidth: 0
Flags: W
LayerCount: 2
Fore
SplineSet
239 735 m 257
 251 735 251 735 267.5 733 c 128
 284 731 284 731 296.5 725 c 128
 309 719 309 719 309 707 c 257
 309 700 309 700 303.5 693.5 c 128
 298 687 298 687 290 687 c 257
 280 687 280 687 266 693 c 128
 252 699 252 699 235 699 c 257
 215 699 215 699 199.5 690 c 128
 184 681 184 681 175.5 662.5 c 128
 167 644 167 644 167 615 c 257
 167 20 l 257
 167 12 167 12 161 6 c 128
 155 0 155 0 147 0 c 257
 138 0 138 0 132.5 6 c 128
 127 12 127 12 127 20 c 257
 127 615 l 257
 127 677 127 677 160 706 c 128
 193 735 193 735 239 735 c 257
285 493 m 257
 293 493 293 493 298.5 487.5 c 128
 304 482 304 482 304 474 c 257
 304 466 304 466 298.5 460.5 c 128
 293 455 293 455 285 455 c 257
 47 455 l 257
 40 455 40 455 34 461 c 128
 28 467 28 467 28 474 c 257
 28 483 28 483 34 488 c 128
 40 493 40 493 47 493 c 257
 285 493 l 257
EndSplineSet
EndChar

StartChar: g
Encoding: 314 103 314
GlifName: g__1
Width: 619
VWidth: 0
Flags: W
LayerCount: 2
Fore
SplineSet
294 515 m 257
 339 515 339 515 378 499 c 128
 417 483 417 483 446.5 457 c 128
 476 431 476 431 492.5 401 c 128
 509 371 509 371 509 342 c 257
 496 379 l 257
 496 479 l 257
 496 487 496 487 501.5 493 c 128
 507 499 507 499 516 499 c 257
 525 499 525 499 530.5 493 c 128
 536 487 536 487 536 479 c 257
 536 49 l 257
 536 -28 536 -28 504.5 -84 c 128
 473 -140 473 -140 418 -170 c 128
 363 -200 363 -200 290 -200 c 257
 250 -200 250 -200 209.5 -189.5 c 128
 169 -179 169 -179 142 -163 c 128
 115 -147 115 -147 115 -129 c 257
 115 -121 115 -121 119.5 -116 c 128
 124 -111 124 -111 132 -111 c 257
 142 -111 142 -111 150.5 -122 c 128
 159 -133 159 -133 181 -142 c 257
 190 -145 190 -145 205.5 -150 c 128
 221 -155 221 -155 243 -158.5 c 128
 265 -162 265 -162 292 -162 c 257
 387 -162 387 -162 441.5 -103.5 c 128
 496 -45 496 -45 496 49 c 257
 496 148 l 257
 506 147 l 257
 494 104 494 104 471 74 c 128
 448 44 448 44 418.5 25.5 c 128
 389 7 389 7 356.5 -1.5 c 128
 324 -10 324 -10 294 -10 c 257
 225 -10 225 -10 170.5 24.5 c 128
 116 59 116 59 84 118.5 c 128
 52 178 52 178 52 253 c 257
 52 328 52 328 84 387.5 c 128
 116 447 116 447 170.5 481 c 128
 225 515 225 515 294 515 c 257
296 477 m 257
 238 477 238 477 191.5 448 c 128
 145 419 145 419 118.5 368.5 c 128
 92 318 92 318 92 253 c 257
 92 189 92 189 118.5 138 c 128
 145 87 145 87 191.5 57.5 c 128
 238 28 238 28 296 28 c 257
 354 28 354 28 400 56.5 c 128
 446 85 446 85 473 135.5 c 128
 500 186 500 186 500 253 c 257
 500 320 500 320 473 370.5 c 128
 446 421 446 421 400 449 c 128
 354 477 354 477 296 477 c 257
EndSplineSet
EndChar

StartChar: h
Encoding: 321 104 321
GlifName: h__1
Width: 562
VWidth: 0
Flags: W
LayerCount: 2
Fore
SplineSet
301 505 m 257
 361 505 361 505 400.5 479 c 128
 440 453 440 453 459.5 409 c 128
 479 365 479 365 479 312 c 257
 479 20 l 257
 479 12 479 12 473 6 c 128
 467 0 467 0 459 0 c 257
 450 0 450 0 444.5 6 c 128
 439 12 439 12 439 20 c 257
 439 312 l 257
 439 355 439 355 425 390 c 128
 411 425 411 425 381 446 c 128
 351 467 351 467 301 467 c 257
 258 467 258 467 217 446 c 128
 176 425 176 425 149.5 390 c 128
 123 355 123 355 123 312 c 257
 123 20 l 257
 123 12 123 12 117 6 c 128
 111 0 111 0 103 0 c 257
 94 0 94 0 88.5 6 c 128
 83 12 83 12 83 20 c 257
 83 720 l 257
 83 728 83 728 89 734 c 128
 95 740 95 740 103 740 c 257
 112 740 112 740 117.5 734 c 128
 123 728 123 728 123 720 c 257
 123 371 l 257
 98 323 l 257
 98 359 98 359 116 392 c 128
 134 425 134 425 163.5 450.5 c 128
 193 476 193 476 229 490.5 c 128
 265 505 265 505 301 505 c 257
EndSplineSet
EndChar

StartChar: dotlessi
Encoding: 327 305 327
GlifName: dotlessi
Width: 206
VWidth: 0
Flags: W
LayerCount: 2
Fore
SplineSet
123 20 m 257
 123 12 123 12 117 6 c 128
 111 0 111 0 103 0 c 257
 94 0 94 0 88.5 6 c 128
 83 12 83 12 83 20 c 257
 83 495 l 257
 83 503 83 503 89 509 c 128
 95 515 95 515 103 515 c 257
 112 515 112 515 117.5 509 c 128
 123 503 123 503 123 495 c 257
 123 20 l 257
EndSplineSet
EndChar

StartChar: iogonek
Encoding: 342 303 342
GlifName: iogonek__1
Width: 206
VWidth: 0
Flags: W
LayerCount: 2
Fore
SplineSet
74 -185 m 257
 41 -185 41 -185 13.5 -160 c 128
 -14 -135 -14 -135 -14 -93 c 257
 -14 -70 -14 -70 -6 -51.5 c 128
 2 -33 2 -33 16.5 -19 c 128
 31 -5 31 -5 49 5 c 128
 67 15 67 15 86 21 c 257
 83 9 l 257
 83 495 l 257
 83 503 83 503 89 509 c 128
 95 515 95 515 103 515 c 257
 112 515 112 515 117.5 509 c 128
 123 503 123 503 123 495 c 257
 123 28 l 257
 123 16 123 16 113 7 c 128
 103 -2 103 -2 88.5 -10.5 c 128
 74 -19 74 -19 59 -28.5 c 128
 44 -38 44 -38 34 -51.5 c 128
 24 -65 24 -65 24 -85 c 257
 24 -115 24 -115 41 -131.5 c 128
 58 -148 58 -148 79 -148 c 257
 89 -148 89 -148 96 -147 c 128
 103 -146 103 -146 107 -141 c 257
 113 -133 113 -133 118.5 -127.5 c 128
 124 -122 124 -122 132 -122 c 257
 139 -122 139 -122 142.5 -126.5 c 128
 146 -131 146 -131 146 -136 c 257
 146 -149 146 -149 136.5 -160.5 c 128
 127 -172 127 -172 111 -178.5 c 128
 95 -185 95 -185 74 -185 c 257
103 583 m 257
 87 583 87 583 77.5 592 c 128
 68 601 68 601 68 615 c 257
 68 623 l 257
 68 637 68 637 78 646 c 128
 88 655 88 655 104 655 c 257
 118 655 118 655 127.5 646 c 128
 137 637 137 637 137 623 c 257
 137 615 l 257
 137 601 137 601 127.5 592 c 128
 118 583 118 583 103 583 c 257
EndSplineSet
EndChar

StartChar: uni0237
Encoding: 345 567 345
GlifName: uni0237
Width: 229
VWidth: 0
Flags: W
LayerCount: 2
Fore
SplineSet
136 -58 m 257
 136 -103 136 -103 113 -134 c 128
 90 -165 90 -165 58.5 -181.5 c 128
 27 -198 27 -198 -1 -198 c 257
 -10 -198 -10 -198 -15 -192.5 c 128
 -20 -187 -20 -187 -20 -180 c 257
 -20 -178 l 257
 -20 -170 -20 -170 -14.5 -165 c 128
 -9 -160 -9 -160 -2 -159 c 257
 20 -155 20 -155 42.5 -144 c 128
 65 -133 65 -133 80.5 -112 c 128
 96 -91 96 -91 96 -58 c 257
 96 480 l 257
 96 488 96 488 101.5 494 c 128
 107 500 107 500 116 500 c 257
 125 500 125 500 130.5 494 c 128
 136 488 136 488 136 480 c 257
 136 -58 l 257
EndSplineSet
EndChar

StartChar: k
Encoding: 348 107 348
GlifName: k__1
Width: 524
VWidth: 0
Flags: W
LayerCount: 2
Fore
SplineSet
108 0 m 257
 99 0 99 0 93.5 6 c 128
 88 12 88 12 88 20 c 257
 88 720 l 257
 88 728 88 728 93.5 734 c 128
 99 740 99 740 108 740 c 257
 117 740 117 740 122.5 734 c 128
 128 728 128 728 128 720 c 257
 128 20 l 257
 128 12 128 12 122.5 6 c 128
 117 0 117 0 108 0 c 257
455 505 m 257
 463 505 463 505 469 499 c 128
 475 493 475 493 475 484 c 257
 475 475 475 475 468 469 c 257
 121 180 l 257
 119 228 l 257
 442 499 l 257
 448 505 448 505 455 505 c 257
461 0 m 257
 453 0 453 0 446 7 c 257
 204 265 l 257
 234 291 l 257
 475 35 l 257
 481 29 481 29 481 20 c 257
 481 10 481 10 473 5 c 128
 465 0 465 0 461 0 c 257
EndSplineSet
EndChar

StartChar: kgreenlandic
Encoding: 350 312 350
GlifName: kgreenlandic
Width: 524
VWidth: 0
Flags: W
LayerCount: 2
Fore
SplineSet
108 0 m 257
 99 0 99 0 93.5 6 c 128
 88 12 88 12 88 20 c 257
 88 479 l 257
 88 487 88 487 93.5 493 c 128
 99 499 99 499 108 499 c 257
 117 499 117 499 122.5 493 c 128
 128 487 128 487 128 479 c 257
 128 20 l 257
 128 12 128 12 122.5 6 c 128
 117 0 117 0 108 0 c 257
455 505 m 257
 463 505 463 505 469 499 c 128
 475 493 475 493 475 484 c 257
 475 475 475 475 468 469 c 257
 121 180 l 257
 119 228 l 257
 442 499 l 257
 448 505 448 505 455 505 c 257
461 0 m 257
 453 0 453 0 446 7 c 257
 204 265 l 257
 234 291 l 257
 475 35 l 257
 481 29 481 29 481 20 c 257
 481 9 481 9 472 4.5 c 128
 463 0 463 0 461 0 c 257
EndSplineSet
EndChar

StartChar: l
Encoding: 351 108 351
GlifName: l__1
Width: 216
VWidth: 0
Flags: W
LayerCount: 2
Fore
SplineSet
128 20 m 257
 128 12 128 12 122 6 c 128
 116 0 116 0 108 0 c 257
 99 0 99 0 93.5 6 c 128
 88 12 88 12 88 20 c 257
 88 720 l 257
 88 728 88 728 94 734 c 128
 100 740 100 740 108 740 c 257
 117 740 117 740 122.5 734 c 128
 128 728 128 728 128 720 c 257
 128 20 l 257
EndSplineSet
EndChar

StartChar: lcaron
Encoding: 353 318 353
GlifName: lcaron__1
Width: 210
VWidth: 0
Flags: W
LayerCount: 2
Fore
SplineSet
128 20 m 257
 128 12 128 12 122 6 c 128
 116 0 116 0 108 0 c 257
 99 0 99 0 93.5 6 c 128
 88 12 88 12 88 20 c 257
 88 720 l 257
 88 728 88 728 94 734 c 128
 100 740 100 740 108 740 c 257
 117 740 117 740 122.5 734 c 128
 128 728 128 728 128 720 c 257
 128 20 l 257
268 685 m 257
 268 660 268 660 253 637 c 128
 238 614 238 614 217.5 599.5 c 128
 197 585 197 585 178 585 c 257
 171 585 171 585 165.5 588.5 c 128
 160 592 160 592 160 603 c 257
 160 614 160 614 167.5 615 c 128
 175 616 175 616 191 624 c 257
 209 633 209 633 218.5 646 c 128
 228 659 228 659 228 675 c 257
 228 689 228 689 221.5 695.5 c 128
 215 702 215 702 207 702 c 257
 200 702 200 702 193 699.5 c 128
 186 697 186 697 181 693 c 257
 177 698 177 698 174.5 704 c 128
 172 710 172 710 173 716 c 257
 175 728 175 728 188 737 c 128
 201 746 201 746 217 746 c 257
 239 746 239 746 253.5 726.5 c 128
 268 707 268 707 268 685 c 257
EndSplineSet
EndChar

StartChar: lslash
Encoding: 360 322 360
GlifName: lslash__1
Width: 218
VWidth: 0
Flags: W
LayerCount: 2
Fore
SplineSet
11 350 m 257
 5 350 5 350 0 355 c 128
 -5 360 -5 360 -5 369 c 257
 -5 381 -5 381 8 386 c 257
 193 470 l 257
 196 472 196 472 200 473 c 128
 204 474 204 474 208 474 c 257
 214 474 214 474 218.5 469.5 c 128
 223 465 223 465 223 458 c 257
 223 449 223 449 218.5 444 c 128
 214 439 214 439 208 437 c 257
 23 353 l 257
 19 352 19 352 16 351 c 128
 13 350 13 350 11 350 c 257
128 20 m 257
 128 12 128 12 122 6 c 128
 116 0 116 0 108 0 c 257
 99 0 99 0 93.5 6 c 128
 88 12 88 12 88 20 c 257
 88 720 l 257
 88 728 88 728 94 734 c 128
 100 740 100 740 108 740 c 257
 117 740 117 740 122.5 734 c 128
 128 728 128 728 128 720 c 257
 128 20 l 257
EndSplineSet
EndChar

StartChar: m
Encoding: 361 109 361
GlifName: m__1
Width: 909
VWidth: 0
Flags: W
LayerCount: 2
Fore
SplineSet
296 505 m 257
 352 505 352 505 398.5 474.5 c 128
 445 444 445 444 462 379 c 257
 449 370 l 257
 454 389 l 257
 467 422 467 422 499.5 448 c 128
 532 474 532 474 572.5 489.5 c 128
 613 505 613 505 651 505 c 257
 711 505 711 505 750 479 c 128
 789 453 789 453 807.5 409.5 c 128
 826 366 826 366 826 311 c 257
 826 20 l 257
 826 12 826 12 820.5 6 c 128
 815 0 815 0 806 0 c 257
 797 0 797 0 791.5 6 c 128
 786 12 786 12 786 20 c 257
 786 307 l 257
 786 351 786 351 771.5 387.5 c 128
 757 424 757 424 726.5 445.5 c 128
 696 467 696 467 647 467 c 257
 604 467 604 467 563 445.5 c 128
 522 424 522 424 495.5 387.5 c 128
 469 351 469 351 469 307 c 257
 469 20 l 257
 469 12 469 12 463.5 6 c 128
 458 0 458 0 449 0 c 257
 440 0 440 0 434.5 6 c 128
 429 12 429 12 429 20 c 257
 429 312 l 257
 429 355 429 355 415.5 390 c 128
 402 425 402 425 373 446 c 128
 344 467 344 467 296 467 c 257
 254 467 254 467 214.5 446 c 128
 175 425 175 425 149 390 c 128
 123 355 123 355 123 312 c 257
 123 20 l 257
 123 12 123 12 117 6 c 128
 111 0 111 0 103 0 c 257
 94 0 94 0 88.5 6 c 128
 83 12 83 12 83 20 c 257
 83 479 l 257
 83 487 83 487 89 493 c 128
 95 499 95 499 103 499 c 257
 112 499 112 499 117.5 493 c 128
 123 487 123 487 123 479 c 257
 123 370 l 257
 93 319 l 257
 93 354 93 354 110 387 c 128
 127 420 127 420 155.5 446.5 c 128
 184 473 184 473 220.5 489 c 128
 257 505 257 505 296 505 c 257
EndSplineSet
EndChar

StartChar: n
Encoding: 363 110 363
GlifName: n__1
Width: 572
VWidth: 0
Flags: W
LayerCount: 2
Fore
SplineSet
310 515 m 257
 373 515 373 515 412.5 490 c 128
 452 465 452 465 470.5 422 c 128
 489 379 489 379 489 326 c 257
 489 20 l 257
 489 12 489 12 483 6 c 128
 477 0 477 0 469 0 c 257
 460 0 460 0 454.5 6 c 128
 449 12 449 12 449 20 c 257
 449 322 l 257
 449 365 449 365 434.5 400 c 128
 420 435 420 435 388.5 456 c 128
 357 477 357 477 306 477 c 257
 262 477 262 477 220 456 c 128
 178 435 178 435 150.5 400 c 128
 123 365 123 365 123 322 c 257
 123 20 l 257
 123 12 123 12 117 6 c 128
 111 0 111 0 103 0 c 257
 94 0 94 0 88.5 6 c 128
 83 12 83 12 83 20 c 257
 83 479 l 257
 83 487 83 487 89 493 c 128
 95 499 95 499 103 499 c 257
 112 499 112 499 117.5 493 c 128
 123 487 123 487 123 479 c 257
 123 381 l 257
 98 333 l 257
 98 369 98 369 117 402 c 128
 136 435 136 435 167 460.5 c 128
 198 486 198 486 235.5 500.5 c 128
 273 515 273 515 310 515 c 257
EndSplineSet
EndChar

StartChar: uni0272
Encoding: 371 626 371
GlifName: uni0272
Width: 572
VWidth: 0
Flags: W
LayerCount: 2
Fore
SplineSet
-14 -198 m 257
 -22 -198 -22 -198 -27.5 -192.5 c 128
 -33 -187 -33 -187 -33 -180 c 257
 -33 -170 -33 -170 -27.5 -165 c 128
 -22 -160 -22 -160 -15 -159 c 257
 7 -155 7 -155 29.5 -144 c 128
 52 -133 52 -133 67.5 -112 c 128
 83 -91 83 -91 83 -58 c 257
 83 479 l 257
 83 487 83 487 89 493 c 128
 95 499 95 499 103 499 c 257
 112 499 112 499 117.5 493 c 128
 123 487 123 487 123 479 c 257
 123 381 l 257
 98 333 l 257
 98 369 98 369 117 402 c 128
 136 435 136 435 167 460.5 c 128
 198 486 198 486 235.5 500.5 c 128
 273 515 273 515 310 515 c 257
 373 515 373 515 412.5 490 c 128
 452 465 452 465 470.5 422 c 128
 489 379 489 379 489 326 c 257
 489 20 l 257
 489 12 489 12 483 6 c 128
 477 0 477 0 469 0 c 257
 460 0 460 0 454.5 6 c 128
 449 12 449 12 449 20 c 257
 449 322 l 257
 449 365 449 365 434.5 400 c 128
 420 435 420 435 388.5 456 c 128
 357 477 357 477 306 477 c 257
 262 477 262 477 220 456 c 128
 178 435 178 435 150.5 400 c 128
 123 365 123 365 123 322 c 257
 123 -58 l 257
 123 -95 123 -95 111 -119.5 c 128
 99 -144 99 -144 81 -160 c 128
 63 -176 63 -176 43.5 -184 c 128
 24 -192 24 -192 8 -195 c 128
 -8 -198 -8 -198 -14 -198 c 257
EndSplineSet
EndChar

StartChar: eng
Encoding: 375 331 375
GlifName: eng__1
Width: 572
VWidth: 0
Flags: W
LayerCount: 2
Fore
SplineSet
311 -200 m 257
 301 -200 301 -200 295 -194.5 c 128
 289 -189 289 -189 289 -180 c 257
 289 -171 289 -171 295 -165.5 c 128
 301 -160 301 -160 310 -160 c 257
 368 -160 368 -160 397.5 -145 c 128
 427 -130 427 -130 438 -103.5 c 128
 449 -77 449 -77 449 -44 c 257
 449 322 l 257
 449 365 449 365 434.5 400 c 128
 420 435 420 435 388.5 456 c 128
 357 477 357 477 306 477 c 257
 262 477 262 477 220 456 c 128
 178 435 178 435 150.5 400 c 128
 123 365 123 365 123 322 c 257
 123 20 l 257
 123 12 123 12 117 6 c 128
 111 0 111 0 103 0 c 257
 94 0 94 0 88.5 6 c 128
 83 12 83 12 83 20 c 257
 83 479 l 257
 83 487 83 487 89 493 c 128
 95 499 95 499 103 499 c 257
 112 499 112 499 117.5 493 c 128
 123 487 123 487 123 479 c 257
 123 381 l 257
 98 333 l 257
 98 369 98 369 117 402 c 128
 136 435 136 435 167 460.5 c 128
 198 486 198 486 235.5 500.5 c 128
 273 515 273 515 310 515 c 257
 373 515 373 515 412.5 490 c 128
 452 465 452 465 470.5 422 c 128
 489 379 489 379 489 326 c 257
 489 -44 l 257
 490 -83 490 -83 474.5 -119 c 128
 459 -155 459 -155 420.5 -177.5 c 128
 382 -200 382 -200 311 -200 c 257
EndSplineSet
EndChar

StartChar: o
Encoding: 376 111 376
GlifName: o__1
Width: 597
VWidth: 0
Flags: W
LayerCount: 2
Fore
SplineSet
545 252 m 257
 545 178 545 178 513 118.5 c 128
 481 59 481 59 425.5 24.5 c 128
 370 -10 370 -10 299 -10 c 257
 229 -10 229 -10 173 24.5 c 128
 117 59 117 59 84.5 118.5 c 128
 52 178 52 178 52 252 c 257
 52 327 52 327 84.5 386.5 c 128
 117 446 117 446 173 480.5 c 128
 229 515 229 515 299 515 c 257
 370 515 370 515 425.5 480.5 c 128
 481 446 481 446 513 386.5 c 128
 545 327 545 327 545 252 c 257
505 252 m 257
 505 317 505 317 478.5 367.5 c 128
 452 418 452 418 405.5 447.5 c 128
 359 477 359 477 299 477 c 257
 240 477 240 477 193 447.5 c 128
 146 418 146 418 119 367.5 c 128
 92 317 92 317 92 252 c 257
 92 188 92 188 119 137.5 c 128
 146 87 146 87 193 57.5 c 128
 240 28 240 28 299 28 c 257
 359 28 359 28 405.5 57.5 c 128
 452 87 452 87 478.5 137.5 c 128
 505 188 505 188 505 252 c 257
EndSplineSet
EndChar

StartChar: uni01EB
Encoding: 404 491 404
GlifName: uni01EB
Width: 589
VWidth: 0
Flags: W
LayerCount: 2
Fore
SplineSet
501 252 m 257
 501 317 501 317 474.5 367.5 c 128
 448 418 448 418 401.5 447.5 c 128
 355 477 355 477 295 477 c 257
 236 477 236 477 189 447.5 c 128
 142 418 142 418 115 367.5 c 128
 88 317 88 317 88 252 c 257
 88 188 88 188 115 137.5 c 128
 142 87 142 87 189 57.5 c 128
 236 28 236 28 295 28 c 257
 355 28 355 28 401.5 57.5 c 128
 448 87 448 87 474.5 137.5 c 128
 501 188 501 188 501 252 c 257
339 -185 m 257
 306 -185 306 -185 278.5 -160 c 128
 251 -135 251 -135 251 -93 c 257
 251 -70 251 -70 258.5 -51.5 c 128
 266 -33 266 -33 278.5 -20 c 128
 291 -7 291 -7 306 2.5 c 128
 321 12 321 12 337 17 c 257
 334 4 334 4 321.5 -3 c 128
 309 -10 309 -10 295 -10 c 257
 225 -10 225 -10 169 24.5 c 128
 113 59 113 59 80.5 118.5 c 128
 48 178 48 178 48 252 c 257
 48 327 48 327 80.5 386.5 c 128
 113 446 113 446 169 480.5 c 128
 225 515 225 515 295 515 c 257
 366 515 366 515 421.5 480.5 c 128
 477 446 477 446 509 386.5 c 128
 541 327 541 327 541 252 c 257
 541 188 541 188 516 135.5 c 128
 491 83 491 83 448 47 c 128
 405 11 405 11 349 -4 c 257
 325 -11 325 -11 307 -35 c 128
 289 -59 289 -59 289 -85 c 257
 289 -115 289 -115 306 -131.5 c 128
 323 -148 323 -148 344 -148 c 257
 364 -148 364 -148 373 -139 c 257
 379 -132 379 -132 384.5 -127 c 128
 390 -122 390 -122 397 -122 c 257
 404 -122 404 -122 407.5 -126.5 c 128
 411 -131 411 -131 411 -136 c 257
 411 -149 411 -149 401.5 -160.5 c 128
 392 -172 392 -172 376 -178.5 c 128
 360 -185 360 -185 339 -185 c 257
EndSplineSet
EndChar

StartChar: oslash
Encoding: 405 248 405
GlifName: oslash__1
Width: 597
VWidth: 0
Flags: W
LayerCount: 2
Fore
SplineSet
78 -30 m 257
 71 -30 71 -30 64.5 -24 c 128
 58 -18 58 -18 58 -10 c 257
 58 -2 58 -2 63 4 c 257
 510 526 l 257
 516 534 516 534 525 534 c 257
 533 534 533 534 539 528 c 128
 545 522 545 522 545 514 c 257
 545 505 545 505 540 500 c 257
 93 -22 l 257
 87 -30 87 -30 78 -30 c 257
545 252 m 257
 545 178 545 178 513 118.5 c 128
 481 59 481 59 425.5 24.5 c 128
 370 -10 370 -10 299 -10 c 257
 229 -10 229 -10 173 24.5 c 128
 117 59 117 59 84.5 118.5 c 128
 52 178 52 178 52 252 c 257
 52 327 52 327 84.5 386.5 c 128
 117 446 117 446 173 480.5 c 128
 229 515 229 515 299 515 c 257
 370 515 370 515 425.5 480.5 c 128
 481 446 481 446 513 386.5 c 128
 545 327 545 327 545 252 c 257
505 252 m 257
 505 317 505 317 478.5 367.5 c 128
 452 418 452 418 405.5 447.5 c 128
 359 477 359 477 299 477 c 257
 240 477 240 477 193 447.5 c 128
 146 418 146 418 119 367.5 c 128
 92 317 92 317 92 252 c 257
 92 188 92 188 119 137.5 c 128
 146 87 146 87 193 57.5 c 128
 240 28 240 28 299 28 c 257
 359 28 359 28 405.5 57.5 c 128
 452 87 452 87 478.5 137.5 c 128
 505 188 505 188 505 252 c 257
EndSplineSet
EndChar

StartChar: p
Encoding: 412 112 412
GlifName: p__1
Width: 599
VWidth: 0
Flags: W
LayerCount: 2
Fore
SplineSet
315 505 m 257
 382 505 382 505 434 472 c 128
 486 439 486 439 516.5 381.5 c 128
 547 324 547 324 547 250 c 257
 547 177 547 177 516.5 119 c 128
 486 61 486 61 433.5 27.5 c 128
 381 -6 381 -6 315 -6 c 257
 282 -6 282 -6 251.5 3.5 c 128
 221 13 221 13 195 30.5 c 128
 169 48 169 48 147.5 74 c 128
 126 100 126 100 110 133 c 257
 123 147 l 257
 123 -180 l 257
 123 -188 123 -188 117.5 -194 c 128
 112 -200 112 -200 103 -200 c 257
 95 -200 95 -200 89 -194 c 128
 83 -188 83 -188 83 -180 c 257
 83 485 l 257
 83 493 83 493 88.5 499 c 128
 94 505 94 505 103 505 c 257
 112 505 112 505 117.5 499 c 128
 123 493 123 493 123 485 c 257
 123 357 l 257
 110 364 l 257
 124 401 124 401 145 428 c 128
 166 455 166 455 193 472 c 128
 220 489 220 489 251 497 c 128
 282 505 282 505 315 505 c 257
313 467 m 257
 256 467 256 467 212.5 439 c 128
 169 411 169 411 144 362.5 c 128
 119 314 119 314 119 250 c 257
 119 187 119 187 144 137.5 c 128
 169 88 169 88 212.5 60 c 128
 256 32 256 32 313 32 c 257
 369 32 369 32 412.5 60 c 128
 456 88 456 88 481.5 137.5 c 128
 507 187 507 187 507 250 c 257
 507 313 507 313 481.5 362 c 128
 456 411 456 411 412.5 439 c 128
 369 467 369 467 313 467 c 257
EndSplineSet
EndChar

StartChar: thorn
Encoding: 413 254 413
GlifName: thorn__1
Width: 599
VWidth: 0
Flags: W
LayerCount: 2
Fore
SplineSet
315 505 m 257
 382 505 382 505 434 472 c 128
 486 439 486 439 516.5 381.5 c 128
 547 324 547 324 547 250 c 257
 547 177 547 177 516.5 119 c 128
 486 61 486 61 433.5 27.5 c 128
 381 -6 381 -6 315 -6 c 257
 282 -6 282 -6 251.5 3.5 c 128
 221 13 221 13 195 30.5 c 128
 169 48 169 48 147.5 74 c 128
 126 100 126 100 110 133 c 257
 123 147 l 257
 123 -180 l 257
 123 -188 123 -188 117.5 -194 c 128
 112 -200 112 -200 103 -200 c 257
 95 -200 95 -200 89 -194 c 128
 83 -188 83 -188 83 -180 c 257
 83 720 l 257
 83 728 83 728 88.5 734 c 128
 94 740 94 740 103 740 c 257
 112 740 112 740 117.5 734 c 128
 123 728 123 728 123 720 c 257
 123 357 l 257
 110 364 l 257
 124 401 124 401 145 428 c 128
 166 455 166 455 193 472 c 128
 220 489 220 489 251 497 c 128
 282 505 282 505 315 505 c 257
313 467 m 257
 256 467 256 467 212.5 439 c 128
 169 411 169 411 144 362.5 c 128
 119 314 119 314 119 250 c 257
 119 187 119 187 144 137.5 c 128
 169 88 169 88 212.5 60 c 128
 256 32 256 32 313 32 c 257
 369 32 369 32 412.5 60 c 128
 456 88 456 88 481.5 137.5 c 128
 507 187 507 187 507 250 c 257
 507 313 507 313 481.5 362 c 128
 456 411 456 411 412.5 439 c 128
 369 467 369 467 313 467 c 257
EndSplineSet
EndChar

StartChar: q
Encoding: 414 113 414
GlifName: q__1
Width: 599
VWidth: 0
Flags: W
LayerCount: 2
Fore
SplineSet
496 505 m 257
 505 505 505 505 510.5 499 c 128
 516 493 516 493 516 485 c 257
 516 -180 l 257
 516 -188 516 -188 510 -194 c 128
 504 -200 504 -200 496 -200 c 257
 487 -200 487 -200 481.5 -194 c 128
 476 -188 476 -188 476 -180 c 257
 476 162 l 257
 492 184 l 257
 492 150 492 150 476.5 115.5 c 128
 461 81 461 81 432.5 52.5 c 128
 404 24 404 24 366 7 c 128
 328 -10 328 -10 284 -10 c 257
 218 -10 218 -10 165.5 24.5 c 128
 113 59 113 59 82.5 118.5 c 128
 52 178 52 178 52 253 c 257
 52 328 52 328 82.5 387.5 c 128
 113 447 113 447 165.5 481 c 128
 218 515 218 515 284 515 c 257
 325 515 325 515 362.5 499.5 c 128
 400 484 400 484 429 456 c 128
 458 428 458 428 475 390.5 c 128
 492 353 492 353 492 309 c 257
 476 334 l 257
 476 485 l 257
 476 493 476 493 481.5 499 c 128
 487 505 487 505 496 505 c 257
286 28 m 257
 343 28 343 28 386.5 57 c 128
 430 86 430 86 455 137 c 128
 480 188 480 188 480 253 c 257
 480 318 480 318 455 368.5 c 128
 430 419 430 419 386 448 c 128
 342 477 342 477 286 477 c 257
 231 477 231 477 187 448 c 128
 143 419 143 419 117.5 368.5 c 128
 92 318 92 318 92 253 c 257
 92 189 92 189 117.5 138 c 128
 143 87 143 87 187 57.5 c 128
 231 28 231 28 286 28 c 257
EndSplineSet
EndChar

StartChar: r
Encoding: 415 114 415
GlifName: r__1
Width: 368
VWidth: 0
Flags: W
LayerCount: 2
Fore
SplineSet
103 0 m 257
 94 0 94 0 88.5 6 c 128
 83 12 83 12 83 20 c 257
 83 479 l 257
 83 487 83 487 89 493 c 128
 95 499 95 499 103 499 c 257
 112 499 112 499 117.5 493 c 128
 123 487 123 487 123 479 c 257
 123 310 l 257
 106 284 l 257
 106 323 106 323 119.5 363 c 128
 133 403 133 403 159 437.5 c 128
 185 472 185 472 222.5 493.5 c 128
 260 515 260 515 309 515 c 257
 323 515 323 515 339 511 c 128
 355 507 355 507 355 492 c 257
 355 483 355 483 350 477 c 128
 345 471 345 471 337 471 c 257
 331 471 331 471 322.5 475.5 c 128
 314 480 314 480 298 480 c 257
 266 480 266 480 235 461 c 128
 204 442 204 442 178.5 410.5 c 128
 153 379 153 379 138 342 c 128
 123 305 123 305 123 270 c 257
 123 20 l 257
 123 12 123 12 117 6 c 128
 111 0 111 0 103 0 c 257
EndSplineSet
EndChar

StartChar: s
Encoding: 423 115 423
GlifName: s__1
Width: 465
VWidth: 0
Flags: W
LayerCount: 2
Fore
SplineSet
55 80 m 257
 48 92 48 92 48.5 99.5 c 128
 49 107 49 107 56 112 c 257
 61 117 61 117 69.5 116.5 c 128
 78 116 78 116 84 109 c 257
 110 72 110 72 150.5 49 c 128
 191 26 191 26 246 26 c 257
 279 26 279 26 309.5 37 c 128
 340 48 340 48 359.5 70 c 128
 379 92 379 92 379 124 c 257
 379 158 379 158 360 178.5 c 128
 341 199 341 199 311 211 c 128
 281 223 281 223 248 231 c 257
 213 240 213 240 181.5 251.5 c 128
 150 263 150 263 126 280.5 c 128
 102 298 102 298 88 322 c 128
 74 346 74 346 74 379 c 257
 74 418 74 418 95 449 c 128
 116 480 116 480 154 497.5 c 128
 192 515 192 515 242 515 c 257
 266 515 266 515 293 509 c 128
 320 503 320 503 347 488.5 c 128
 374 474 374 474 397 448 c 257
 405 442 405 442 404.5 433.5 c 128
 404 425 404 425 397 418 c 257
 391 414 391 414 384 414 c 128
 377 414 377 414 372 420 c 257
 346 449 346 449 311.5 463 c 128
 277 477 277 477 238 477 c 257
 205 477 205 477 176.5 466 c 128
 148 455 148 455 130 433.5 c 128
 112 412 112 412 112 379 c 257
 114 348 114 348 133.5 328 c 128
 153 308 153 308 185.5 295 c 128
 218 282 218 282 259 271 c 257
 292 263 292 263 320.5 252.5 c 128
 349 242 349 242 370.5 226 c 128
 392 210 392 210 404.5 186 c 128
 417 162 417 162 417 126 c 257
 417 84 417 84 394.5 53.5 c 128
 372 23 372 23 332.5 6.5 c 128
 293 -10 293 -10 242 -10 c 257
 190 -10 190 -10 142 11 c 128
 94 32 94 32 55 80 c 257
EndSplineSet
EndChar

StartChar: germandbls
Encoding: 434 223 434
GlifName: germandbls
Width: 586
VWidth: 0
Flags: W
LayerCount: 2
Fore
SplineSet
118 0 m 257
 108 0 108 0 103 5 c 128
 98 10 98 10 98 20 c 257
 100 493 l 257
 100 528 100 528 109.5 568.5 c 128
 119 609 119 609 141.5 645 c 128
 164 681 164 681 201.5 703.5 c 128
 239 726 239 726 294 726 c 257
 349 726 349 726 384 706.5 c 128
 419 687 419 687 436 656.5 c 128
 453 626 453 626 453 591 c 257
 453 576 453 576 445 551.5 c 128
 437 527 437 527 418 504.5 c 128
 399 482 399 482 367 471 c 257
 367 475 l 257
 416 461 416 461 454.5 428 c 128
 493 395 493 395 515.5 347 c 128
 538 299 538 299 538 237 c 257
 538 165 538 165 508 109.5 c 128
 478 54 478 54 428 22 c 128
 378 -10 378 -10 319 -10 c 257
 297 -10 297 -10 274 -7 c 128
 251 -4 251 -4 235 6 c 257
 226 11 226 11 223 18.5 c 128
 220 26 220 26 225 34 c 257
 230 43 230 43 238 44.5 c 128
 246 46 246 46 255 40 c 257
 268 33 268 33 284 29 c 128
 300 25 300 25 319 25 c 257
 363 25 363 25 404 50.5 c 128
 445 76 445 76 471.5 123 c 128
 498 170 498 170 498 232 c 257
 498 302 498 302 471 346 c 128
 444 390 444 390 403.5 414 c 128
 363 438 363 438 323 447 c 257
 313 449 313 449 307.5 456.5 c 128
 302 464 302 464 302 471 c 257
 302 477 302 477 306.5 483 c 128
 311 489 311 489 319 491 c 257
 354 498 354 498 374.5 515.5 c 128
 395 533 395 533 404 553.5 c 128
 413 574 413 574 413 589 c 257
 413 627 413 627 382 656.5 c 128
 351 686 351 686 294 686 c 257
 250 686 250 686 220 668 c 128
 190 650 190 650 172.5 621 c 128
 155 592 155 592 147.5 558.5 c 128
 140 525 140 525 140 493 c 257
 138 20 l 257
 138 10 138 10 133 5 c 128
 128 0 128 0 118 0 c 257
47 465 m 257
 40 465 40 465 34 471 c 128
 28 477 28 477 28 484 c 257
 28 492 28 492 34 497.5 c 128
 40 503 40 503 47 503 c 257
 108 503 l 257
 116 503 116 503 121.5 497 c 128
 127 491 127 491 127 484 c 257
 127 476 127 476 121.5 470.5 c 128
 116 465 116 465 108 465 c 257
 47 465 l 257
EndSplineSet
EndChar

StartChar: t
Encoding: 435 116 435
GlifName: t__1
Width: 316
VWidth: 0
Flags: W
LayerCount: 2
Fore
SplineSet
37 503 m 257
 269 503 l 257
 277 503 277 503 282.5 497 c 128
 288 491 288 491 288 484 c 257
 288 476 288 476 282.5 470.5 c 128
 277 465 277 465 269 465 c 257
 37 465 l 257
 30 465 30 465 24 471 c 128
 18 477 18 477 18 484 c 257
 18 492 18 492 24 497.5 c 128
 30 503 30 503 37 503 c 257
139 650 m 257
 148 650 148 650 153.5 644 c 128
 159 638 159 638 159 630 c 257
 159 109 l 257
 159 76 159 76 167.5 60.5 c 128
 176 45 176 45 189 40.5 c 128
 202 36 202 36 214 36 c 257
 221 36 221 36 226 38 c 128
 231 40 231 40 238 40 c 257
 245 40 245 40 250 34.5 c 128
 255 29 255 29 255 22 c 257
 255 13 255 13 243.5 6.5 c 128
 232 0 232 0 215 0 c 257
 209 0 209 0 193.5 0.5 c 128
 178 1 178 1 160.5 9.5 c 128
 143 18 143 18 131 40.5 c 128
 119 63 119 63 119 107 c 257
 119 630 l 257
 119 638 119 638 125 644 c 128
 131 650 131 650 139 650 c 257
EndSplineSet
EndChar

StartChar: u
Encoding: 444 117 444
GlifName: u__1
Width: 563
VWidth: 0
Flags: W
LayerCount: 2
Fore
SplineSet
460 499 m 257
 469 499 469 499 474.5 493 c 128
 480 487 480 487 480 479 c 257
 480 188 l 257
 480 91 480 91 425.5 42.5 c 128
 371 -6 371 -6 281 -6 c 257
 192 -6 192 -6 137.5 42.5 c 128
 83 91 83 91 83 188 c 257
 83 479 l 257
 83 487 83 487 89 493 c 128
 95 499 95 499 103 499 c 257
 112 499 112 499 117.5 493 c 128
 123 487 123 487 123 479 c 257
 123 188 l 257
 123 112 123 112 165.5 72 c 128
 208 32 208 32 281 32 c 257
 355 32 355 32 397.5 72 c 128
 440 112 440 112 440 188 c 257
 440 479 l 257
 440 487 440 487 445.5 493 c 128
 451 499 451 499 460 499 c 257
EndSplineSet
EndChar

StartChar: uogonek
Encoding: 464 371 464
GlifName: uogonek__1
Width: 563
VWidth: 0
Flags: W
LayerCount: 2
Fore
SplineSet
377 -185 m 257
 340 -185 340 -185 309.5 -158.5 c 128
 279 -132 279 -132 279 -88 c 257
 279 -59 279 -59 287.5 -38 c 128
 296 -17 296 -17 309.5 -3 c 128
 323 11 323 11 340 20.5 c 128
 357 30 357 30 375 36 c 257
 346 1 l 257
 331 -3 331 -3 314.5 -4.5 c 128
 298 -6 298 -6 281 -6 c 257
 192 -6 192 -6 137.5 42.5 c 128
 83 91 83 91 83 188 c 257
 83 479 l 257
 83 487 83 487 89 493 c 128
 95 499 95 499 103 499 c 257
 112 499 112 499 117.5 493 c 128
 123 487 123 487 123 479 c 257
 123 188 l 257
 123 112 123 112 165.5 72 c 128
 208 32 208 32 281 32 c 257
 355 32 355 32 397.5 72 c 128
 440 112 440 112 440 188 c 257
 440 479 l 257
 440 487 440 487 445.5 493 c 128
 451 499 451 499 460 499 c 257
 469 499 469 499 474.5 493 c 128
 480 487 480 487 480 479 c 257
 480 188 l 257
 480 127 480 127 458.5 84.5 c 128
 437 42 437 42 396 20 c 257
 375 9 375 9 357 -3 c 128
 339 -15 339 -15 328 -32.5 c 128
 317 -50 317 -50 317 -80 c 257
 317 -112 317 -112 337 -130 c 128
 357 -148 357 -148 382 -148 c 257
 396 -148 396 -148 403.5 -144 c 128
 411 -140 411 -140 415 -136 c 257
 420 -131 420 -131 424 -126.5 c 128
 428 -122 428 -122 435 -122 c 257
 442 -122 442 -122 445.5 -126.5 c 128
 449 -131 449 -131 449 -136 c 257
 449 -149 449 -149 439.5 -160.5 c 128
 430 -172 430 -172 414 -178.5 c 128
 398 -185 398 -185 377 -185 c 257
EndSplineSet
EndChar

StartChar: v
Encoding: 468 118 468
GlifName: v__1
Width: 518
VWidth: 0
Flags: W
LayerCount: 2
Fore
SplineSet
59 517 m 257
 64 517 64 517 69.5 513.5 c 128
 75 510 75 510 77 504 c 257
 262 61 l 257
 252 54 l 257
 440 504 l 257
 445 517 445 517 461 517 c 257
 466 517 466 517 473 513 c 128
 480 509 480 509 480 501 c 257
 480 496 480 496 479 493.5 c 128
 478 491 478 491 477 489 c 257
 278 13 l 257
 273 0 273 0 259 0 c 257
 253 0 253 0 247.5 3.5 c 128
 242 7 242 7 240 13 c 257
 40 488 l 257
 39 490 39 490 38.5 492.5 c 128
 38 495 38 495 38 497 c 257
 38 505 38 505 43 511 c 128
 48 517 48 517 59 517 c 257
EndSplineSet
EndChar

StartChar: w
Encoding: 469 119 469
GlifName: w__1
Width: 746
VWidth: 0
Flags: W
LayerCount: 2
Fore
SplineSet
687 517 m 257
 695 517 695 517 701.5 512.5 c 128
 708 508 708 508 708 498 c 257
 708 497 708 497 707.5 493.5 c 128
 707 490 707 490 706 488 c 257
 551 13 l 257
 548 7 548 7 543 3.5 c 128
 538 0 538 0 532 0 c 257
 520 0 520 0 513 13 c 257
 359 360 l 257
 374 355 l 257
 238 13 l 257
 233 0 233 0 219 0 c 257
 213 0 213 0 207.5 3.5 c 128
 202 7 202 7 200 13 c 257
 40 488 l 257
 38 494 38 494 38 498 c 257
 38 507 38 507 44 512 c 128
 50 517 50 517 59 517 c 257
 65 517 65 517 70 513.5 c 128
 75 510 75 510 77 504 c 257
 226 45 l 257
 209 45 l 257
 351 397 l 257
 356 410 356 410 370 410 c 257
 376 410 376 410 381.5 406.5 c 128
 387 403 387 403 389 397 c 257
 542 44 l 257
 522 44 l 257
 669 504 l 257
 674 517 674 517 687 517 c 257
EndSplineSet
EndChar

StartChar: x
Encoding: 474 120 474
GlifName: x__1
Width: 483
VWidth: 0
Flags: W
LayerCount: 2
Fore
SplineSet
61 510 m 257
 71 510 71 510 77 501 c 257
 438 28 l 257
 442 23 442 23 442 16 c 257
 442 8 442 8 436.5 2 c 128
 431 -4 431 -4 423 -4 c 257
 414 -4 414 -4 406 5 c 257
 44 477 l 257
 40 482 40 482 40 489 c 257
 40 498 40 498 46.5 504 c 128
 53 510 53 510 61 510 c 257
61 -4 m 257
 54 -4 54 -4 48 0.5 c 128
 42 5 42 5 42 15 c 257
 42 22 42 22 46 27 c 257
 221 254 l 257
 245 223 l 257
 77 4 l 257
 71 -4 71 -4 61 -4 c 257
423 510 m 257
 433 510 433 510 437.5 505 c 128
 442 500 442 500 442 493 c 257
 442 490 442 490 440.5 486.5 c 128
 439 483 439 483 437 480 c 257
 262 246 l 257
 241 281 l 257
 406 501 l 257
 414 510 414 510 423 510 c 257
EndSplineSet
EndChar

StartChar: y
Encoding: 475 121 475
GlifName: y__1
Width: 562
VWidth: 0
Flags: W
LayerCount: 2
Fore
SplineSet
459 515 m 257
 468 515 468 515 473.5 509 c 128
 479 503 479 503 479 495 c 257
 479 49 l 257
 479 -28 479 -28 448 -84 c 128
 417 -140 417 -140 364 -170 c 128
 311 -200 311 -200 243 -200 c 257
 197 -200 197 -200 160.5 -189 c 128
 124 -178 124 -178 101 -162 c 257
 94 -157 94 -157 90 -150 c 128
 86 -143 86 -143 90 -135 c 257
 94 -127 94 -127 101.5 -124 c 128
 109 -121 109 -121 116 -126 c 257
 133 -136 133 -136 167.5 -150 c 128
 202 -164 202 -164 245 -164 c 257
 303 -164 303 -164 346.5 -137 c 128
 390 -110 390 -110 414.5 -62 c 128
 439 -14 439 -14 439 49 c 257
 439 123 l 257
 441 98 l 257
 427 68 427 68 398.5 43.5 c 128
 370 19 370 19 334.5 4.5 c 128
 299 -10 299 -10 261 -10 c 257
 199 -10 199 -10 159.5 14.5 c 128
 120 39 120 39 101.5 82 c 128
 83 125 83 125 83 183 c 257
 83 495 l 257
 83 503 83 503 88.5 509 c 128
 94 515 94 515 103 515 c 257
 112 515 112 515 117.5 509 c 128
 123 503 123 503 123 495 c 257
 123 183 l 257
 123 112 123 112 154.5 70 c 128
 186 28 186 28 261 28 c 257
 306 28 306 28 346.5 50.5 c 128
 387 73 387 73 413 109 c 128
 439 145 439 145 439 183 c 257
 439 495 l 257
 439 503 439 503 444.5 509 c 128
 450 515 450 515 459 515 c 257
EndSplineSet
EndChar

StartChar: z
Encoding: 485 122 485
GlifName: z__1
Width: 477
VWidth: 0
Flags: W
LayerCount: 2
Fore
SplineSet
397 38 m 257
 405 38 405 38 411 32 c 128
 417 26 417 26 417 19 c 257
 417 11 417 11 411 5.5 c 128
 405 0 405 0 397 0 c 257
 71 0 l 257
 61 0 61 0 55.5 7.5 c 128
 50 15 50 15 50 20 c 257
 50 24 50 24 51.5 27 c 128
 53 30 53 30 55 33 c 257
 377 485 l 257
 382 477 l 257
 101 477 l 257
 93 477 93 477 87 483 c 128
 81 489 81 489 81 496 c 257
 81 504 81 504 87 509.5 c 128
 93 515 93 515 101 515 c 257
 407 515 l 257
 415 515 415 515 420.5 509 c 128
 426 503 426 503 427 495 c 257
 427 491 427 491 425.5 487.5 c 128
 424 484 424 484 422 481 c 257
 102 33 l 257
 87 38 l 257
 397 38 l 257
EndSplineSet
EndChar

StartChar: a.ss01
Encoding: 490 -1 490
GlifName: a.ss01
Width: 529
VWidth: 0
Flags: W
LayerCount: 2
Fore
SplineSet
242 28 m 257
 308 28 308 28 349.5 60.5 c 128
 391 93 391 93 391 148 c 257
 391 204 391 204 349 235 c 128
 307 266 307 266 241 266 c 257
 178 266 178 266 135 235 c 128
 92 204 92 204 92 148 c 257
 92 92 92 92 135 60 c 128
 178 28 178 28 242 28 c 257
221 -10 m 257
 169 -10 169 -10 131 11.5 c 128
 93 33 93 33 72.5 69 c 128
 52 105 52 105 52 146 c 257
 52 196 52 196 80 231 c 128
 108 266 108 266 151 285 c 128
 194 304 194 304 239 304 c 257
 271 304 271 304 302 294.5 c 128
 333 285 333 285 358.5 268 c 128
 384 251 384 251 397 228 c 257
 388 215 l 257
 388 362 l 257
 388 421 388 421 346.5 449 c 128
 305 477 305 477 246 477 c 257
 200 477 200 477 155.5 454.5 c 128
 111 432 111 432 88 398 c 257
 81 389 81 389 71 389 c 257
 64 389 64 389 59 394.5 c 128
 54 400 54 400 54 407 c 257
 54 410 54 410 55 413 c 128
 56 416 56 416 58 419 c 257
 78 449 78 449 108 470.5 c 128
 138 492 138 492 174.5 503.5 c 128
 211 515 211 515 249 515 c 257
 300 515 300 515 340.5 501 c 128
 381 487 381 487 404.5 454.5 c 128
 428 422 428 422 428 365 c 257
 428 85 l 257
 428 60 428 60 439.5 48 c 128
 451 36 451 36 463 36 c 257
 476 36 476 36 485 43 c 128
 494 50 494 50 507 50 c 257
 515 50 515 50 519.5 44.5 c 128
 524 39 524 39 524 32 c 257
 524 19 524 19 500.5 9.5 c 128
 477 0 477 0 454 0 c 257
 429 0 429 0 412.5 18 c 128
 396 36 396 36 388 60 c 257
 406 85 l 257
 389 53 389 53 362.5 31.5 c 128
 336 10 336 10 300.5 0 c 128
 265 -10 265 -10 221 -10 c 257
EndSplineSet
EndChar

StartChar: aogonek.ss01
Encoding: 512 -1 512
GlifName: aogonek.ss01
Width: 507
VWidth: 0
Flags: W
LayerCount: 2
Fore
SplineSet
250 28 m 257
 312 28 312 28 350.5 60.5 c 128
 389 93 389 93 389 148 c 257
 389 204 389 204 353 235 c 128
 317 266 317 266 255 266 c 257
 189 266 189 266 149.5 235 c 128
 110 204 110 204 110 148 c 257
 110 93 110 93 147 60.5 c 128
 184 28 184 28 250 28 c 257
433 -195 m 257
 400 -195 400 -195 372.5 -170 c 128
 345 -145 345 -145 345 -103 c 257
 345 -80 345 -80 352.5 -61.5 c 128
 360 -43 360 -43 372.5 -30 c 128
 385 -17 385 -17 400 -7.5 c 128
 415 2 415 2 431 7 c 257
 452 0 l 257
 417 0 417 0 401.5 17.5 c 128
 386 35 386 35 386 66 c 257
 404 91 l 257
 395 57 395 57 370.5 34.5 c 128
 346 12 346 12 312 1 c 128
 278 -10 278 -10 239 -10 c 257
 184 -10 184 -10 144.5 10 c 128
 105 30 105 30 84 65 c 128
 63 100 63 100 63 145 c 257
 63 195 63 195 90.5 230.5 c 128
 118 266 118 266 161.5 285 c 128
 205 304 205 304 253 304 c 257
 283 304 283 304 311.5 295.5 c 128
 340 287 340 287 363 271 c 128
 386 255 386 255 398 232 c 257
 386 215 l 257
 386 362 l 257
 386 412 386 412 366 436.5 c 128
 346 461 346 461 314.5 469 c 128
 283 477 283 477 246 477 c 257
 200 477 200 477 159.5 454.5 c 128
 119 432 119 432 96 398 c 257
 89 389 89 389 79 389 c 257
 72 389 72 389 67 394.5 c 128
 62 400 62 400 62 407 c 257
 62 410 62 410 63 413 c 128
 64 416 64 416 66 419 c 257
 86 449 86 449 114 470.5 c 128
 142 492 142 492 176.5 503.5 c 128
 211 515 211 515 249 515 c 257
 297 515 297 515 337.5 503 c 128
 378 491 378 491 402 459 c 128
 426 427 426 427 426 365 c 257
 426 69 l 257
 426 47 426 47 437.5 41.5 c 128
 449 36 449 36 461 36 c 257
 468 36 468 36 473 38 c 128
 478 40 478 40 485 40 c 257
 493 40 493 40 497.5 34.5 c 128
 502 29 502 29 502 22 c 257
 502 12 502 12 491.5 8 c 128
 481 4 481 4 470 -1 c 257
 452 -10 452 -10 432 -23 c 128
 412 -36 412 -36 397.5 -54 c 128
 383 -72 383 -72 383 -95 c 257
 383 -125 383 -125 400 -141.5 c 128
 417 -158 417 -158 438 -158 c 257
 462 -158 462 -158 470 -147 c 257
 475 -140 475 -140 479.5 -136 c 128
 484 -132 484 -132 491 -132 c 257
 498 -132 498 -132 501.5 -136.5 c 128
 505 -141 505 -141 505 -146 c 257
 505 -159 505 -159 495.5 -170.5 c 128
 486 -182 486 -182 470 -188.5 c 128
 454 -195 454 -195 433 -195 c 257
EndSplineSet
EndChar

StartChar: g.ss01
Encoding: 516 -1 516
GlifName: g.ss01
Width: 520
VWidth: 0
Flags: W
LayerCount: 2
Fore
SplineSet
434 327 m 257
 434 272 434 272 407 230 c 128
 380 188 380 188 334.5 164 c 128
 289 140 289 140 232 140 c 257
 175 140 175 140 129.5 164 c 128
 84 188 84 188 57 230 c 128
 30 272 30 272 30 327 c 257
 30 382 30 382 57 424.5 c 128
 84 467 84 467 129.5 491 c 128
 175 515 175 515 232 515 c 257
 289 515 289 515 334.5 491 c 128
 380 467 380 467 407 424.5 c 128
 434 382 434 382 434 327 c 257
396 325 m 257
 396 395 396 395 349.5 436 c 128
 303 477 303 477 232 477 c 257
 161 477 161 477 115.5 436 c 128
 70 395 70 395 70 325 c 257
 70 256 70 256 115.5 215 c 128
 161 174 161 174 232 174 c 257
 303 174 303 174 349.5 215 c 128
 396 256 396 256 396 325 c 257
211 126 m 257
 196 126 196 126 184 130 c 128
 172 134 172 134 168 145 c 257
 159 168 l 257
 231 159 l 257
 354 159 354 159 420.5 110 c 128
 487 61 487 61 487 -15 c 257
 487 -73 487 -73 451 -114.5 c 128
 415 -156 415 -156 354.5 -178 c 128
 294 -200 294 -200 220 -200 c 257
 156 -200 156 -200 115 -184 c 128
 74 -168 74 -168 54 -149 c 128
 34 -130 34 -130 34 -121 c 257
 34 -110 34 -110 40 -104 c 128
 46 -98 46 -98 55 -98 c 257
 63 -98 63 -98 71.5 -106 c 128
 80 -114 80 -114 87 -123 c 257
 100 -137 100 -137 139.5 -149.5 c 128
 179 -162 179 -162 223 -162 c 257
 288 -162 288 -162 338.5 -145.5 c 128
 389 -129 389 -129 418 -96 c 128
 447 -63 447 -63 447 -15 c 257
 447 21 447 21 423.5 53 c 128
 400 85 400 85 348 105.5 c 128
 296 126 296 126 211 126 c 257
397 395 m 257
 390 429 l 257
 446 497 l 257
 454 507 454 507 460 511 c 128
 466 515 466 515 476 515 c 257
 484 515 484 515 491.5 508.5 c 128
 499 502 499 502 499 492 c 257
 499 485 499 485 495 479.5 c 128
 491 474 491 474 483 466 c 257
 397 395 l 257
EndSplineSet
EndChar

StartChar: ordfeminine
Encoding: 530 170 530
GlifName: ordfeminine
Width: 349
VWidth: 0
Flags: W
LayerCount: 2
Fore
SplineSet
149 391 m 257
 108 391 108 391 80.5 413.5 c 128
 53 436 53 436 39 473 c 128
 25 510 25 510 25 555 c 257
 25 599 25 599 42.5 634 c 128
 60 669 60 669 90 689.5 c 128
 120 710 120 710 157 710 c 257
 206 710 206 710 240.5 677.5 c 128
 275 645 275 645 275 583 c 257
 259 624 l 257
 259 674 l 257
 259 682 259 682 264.5 688 c 128
 270 694 270 694 279 694 c 257
 288 694 288 694 293.5 688 c 128
 299 682 299 682 299 674 c 257
 299 421 l 257
 299 412 299 412 293 406.5 c 128
 287 401 287 401 279 401 c 257
 270 401 270 401 264.5 407 c 128
 259 413 259 413 259 421 c 257
 259 474 l 257
 275 503 l 257
 275 478 275 478 258 452 c 128
 241 426 241 426 212.5 408.5 c 128
 184 391 184 391 149 391 c 257
156 429 m 257
 203 429 203 429 233 462.5 c 128
 263 496 263 496 263 555 c 257
 263 611 263 611 235.5 641.5 c 128
 208 672 208 672 164 672 c 257
 124 672 124 672 94.5 638.5 c 128
 65 605 65 605 65 555 c 257
 65 503 65 503 87.5 466 c 128
 110 429 110 429 156 429 c 257
EndSplineSet
EndChar

StartChar: ordmasculine
Encoding: 531 186 531
GlifName: ordmasculine
Width: 348
VWidth: 0
Flags: W
LayerCount: 2
Fore
SplineSet
323 549 m 257
 323 504 323 504 303.5 468.5 c 128
 284 433 284 433 250 412.5 c 128
 216 392 216 392 173 392 c 257
 131 392 131 392 97.5 412.5 c 128
 64 433 64 433 44.5 468.5 c 128
 25 504 25 504 25 549 c 257
 25 595 25 595 44.5 631 c 128
 64 667 64 667 97.5 688.5 c 128
 131 710 131 710 173 710 c 257
 216 710 216 710 250 688.5 c 128
 284 667 284 667 303.5 631 c 128
 323 595 323 595 323 549 c 257
285 549 m 257
 285 602 285 602 254.5 637 c 128
 224 672 224 672 173 672 c 257
 123 672 123 672 93 637 c 128
 63 602 63 602 63 549 c 257
 63 499 63 499 93 464 c 128
 123 429 123 429 173 429 c 257
 224 429 224 429 254.5 464 c 128
 285 499 285 499 285 549 c 257
EndSplineSet
EndChar

StartChar: pi
Encoding: 532 960 532
GlifName: pi
Width: 619
VWidth: 0
Flags: W
LayerCount: 2
Fore
SplineSet
149 0 m 257
 140 0 140 0 134.5 6 c 128
 129 12 129 12 129 20 c 257
 129 470 l 257
 129 475 129 475 124 475 c 257
 65 475 l 257
 57 475 57 475 51 480.5 c 128
 45 486 45 486 45 495 c 257
 45 504 45 504 51 509.5 c 128
 57 515 57 515 65 515 c 257
 554 515 l 257
 562 515 562 515 568 509.5 c 128
 574 504 574 504 574 495 c 257
 574 486 574 486 568 480.5 c 128
 562 475 562 475 554 475 c 257
 494 475 l 257
 489 475 489 475 489 470 c 257
 489 20 l 257
 489 12 489 12 483.5 6 c 128
 478 0 478 0 469 0 c 257
 460 0 460 0 454.5 6 c 128
 449 12 449 12 449 20 c 257
 449 470 l 257
 449 475 449 475 444 475 c 257
 174 475 l 257
 169 475 169 475 169 470 c 257
 169 20 l 257
 169 12 169 12 163.5 6 c 128
 158 0 158 0 149 0 c 257
EndSplineSet
EndChar

StartChar: zero
Encoding: 533 48 533
GlifName: zero
Width: 588
VWidth: 0
Flags: W
LayerCount: 2
Fore
SplineSet
294 -10 m 257
 215 -10 215 -10 163 38.5 c 128
 111 87 111 87 85.5 169 c 128
 60 251 60 251 60 350 c 257
 60 450 60 450 85.5 531.5 c 128
 111 613 111 613 163 661.5 c 128
 215 710 215 710 294 710 c 257
 374 710 374 710 425.5 661.5 c 128
 477 613 477 613 502.5 531.5 c 128
 528 450 528 450 528 350 c 257
 528 251 528 251 502.5 169 c 128
 477 87 477 87 425.5 38.5 c 128
 374 -10 374 -10 294 -10 c 257
294 32 m 257
 358 32 358 32 400.5 73 c 128
 443 114 443 114 464.5 186 c 128
 486 258 486 258 486 350 c 257
 486 443 486 443 464.5 515 c 128
 443 587 443 587 400.5 627.5 c 128
 358 668 358 668 294 668 c 257
 230 668 230 668 187.5 627.5 c 128
 145 587 145 587 123.5 515 c 128
 102 443 102 443 102 350 c 257
 102 258 102 258 123.5 186 c 128
 145 114 145 114 187.5 73 c 128
 230 32 230 32 294 32 c 257
EndSplineSet
EndChar

StartChar: one
Encoding: 534 49 534
GlifName: one
Width: 363
VWidth: 0
Flags: W
LayerCount: 2
Fore
SplineSet
222 0 m 257
 213 0 213 0 207 6 c 128
 201 12 201 12 201 20 c 257
 201 654 l 257
 211 648 l 257
 58 547 l 257
 52 543 52 543 47 543 c 257
 38 543 38 543 31.5 550.5 c 128
 25 558 25 558 25 565 c 257
 25 576 25 576 36 582 c 257
 211 697 l 257
 216 700 216 700 220 700.5 c 128
 224 701 224 701 228 700 c 257
 235 699 235 699 239 693.5 c 128
 243 688 243 688 243 680 c 257
 243 20 l 257
 243 12 243 12 237 6 c 128
 231 0 231 0 222 0 c 257
EndSplineSet
EndChar

StartChar: two
Encoding: 535 50 535
GlifName: two
Width: 549
VWidth: 0
Flags: W
LayerCount: 2
Fore
SplineSet
479 40 m 257
 487 40 487 40 493 34 c 128
 499 28 499 28 499 20 c 257
 499 11 499 11 493 5.5 c 128
 487 0 487 0 479 0 c 257
 93 0 l 257
 84 0 84 0 76 4.5 c 128
 68 9 68 9 68 21 c 257
 68 27 68 27 73 34 c 257
 308 296 l 257
 370 363 370 363 399.5 416.5 c 128
 429 470 429 470 429 513 c 257
 429 584 429 584 385 627 c 128
 341 670 341 670 267 670 c 257
 232 670 232 670 198 656 c 128
 164 642 164 642 138.5 619 c 128
 113 596 113 596 101 568 c 257
 97 559 97 559 92.5 555.5 c 128
 88 552 88 552 80 552 c 257
 72 552 72 552 66 556.5 c 128
 60 561 60 561 60 568 c 257
 60 572 60 572 61 575.5 c 128
 62 579 62 579 65 586 c 257
 81 619 81 619 113.5 647 c 128
 146 675 146 675 187.5 692.5 c 128
 229 710 229 710 270 710 c 257
 332 710 332 710 377.5 686 c 128
 423 662 423 662 448 619 c 128
 473 576 473 576 473 517 c 257
 473 466 473 466 441 406 c 128
 409 346 409 346 341 272 c 257
 126 28 l 257
 117 40 l 257
 479 40 l 257
EndSplineSet
EndChar

StartChar: three
Encoding: 536 51 536
GlifName: three
Width: 519
VWidth: 0
Flags: W
LayerCount: 2
Fore
SplineSet
81 90 m 257
 85 90 85 90 89 88.5 c 128
 93 87 93 87 99 80 c 257
 121 56 121 56 152 44 c 128
 183 32 183 32 222 32 c 257
 277 32 277 32 321.5 56 c 128
 366 80 366 80 392.5 123 c 128
 419 166 419 166 419 221 c 257
 419 285 419 285 390 324.5 c 128
 361 364 361 364 317 382.5 c 128
 273 401 273 401 227 401 c 257
 220 401 220 401 211 400.5 c 128
 202 400 202 400 194.5 399 c 128
 187 398 187 398 186 398 c 257
 177 398 177 398 171.5 404 c 128
 166 410 166 410 166 420 c 257
 166 424 166 424 168 428 c 128
 170 432 170 432 174 437 c 257
 386 669 l 257
 392 655 l 257
 70 655 l 257
 62 655 62 655 56 661 c 128
 50 667 50 667 50 675 c 257
 50 684 50 684 56 689.5 c 128
 62 695 62 695 70 695 c 257
 416 695 l 257
 429 695 429 695 433 686.5 c 128
 437 678 437 678 437 674 c 257
 437 670 437 670 435.5 666.5 c 128
 434 663 434 663 430 659 c 257
 219 427 l 257
 199 433 l 257
 199 436 199 436 215.5 439 c 128
 232 442 232 442 242 442 c 257
 295 442 295 442 345.5 418 c 128
 396 394 396 394 428.5 345 c 128
 461 296 461 296 461 221 c 257
 461 152 461 152 428 100 c 128
 395 48 395 48 340.5 19 c 128
 286 -10 286 -10 222 -10 c 257
 179 -10 179 -10 138 5.5 c 128
 97 21 97 21 66 54 c 257
 63 57 63 57 61.5 60.5 c 128
 60 64 60 64 60 68 c 257
 60 76 60 76 66 83 c 128
 72 90 72 90 81 90 c 257
EndSplineSet
EndChar

StartChar: four
Encoding: 537 52 537
GlifName: four
Width: 506
VWidth: 0
Flags: W
LayerCount: 2
Fore
SplineSet
360 0 m 257
 351 0 351 0 345.5 6 c 128
 340 12 340 12 340 20 c 257
 340 645 l 257
 351 637 l 257
 65 252 l 257
 62 263 l 257
 456 263 l 257
 464 263 464 263 470 257.5 c 128
 476 252 476 252 476 244 c 257
 476 236 476 236 470 230.5 c 128
 464 225 464 225 456 225 c 257
 35 225 l 257
 26 225 26 225 20.5 232 c 128
 15 239 15 239 15 246 c 257
 15 254 15 254 20 259 c 257
 343 692 l 257
 348 698 348 698 353.5 699 c 128
 359 700 359 700 360 700 c 257
 369 700 369 700 374.5 694 c 128
 380 688 380 688 380 680 c 257
 380 20 l 257
 380 12 380 12 374 6 c 128
 368 0 368 0 360 0 c 257
EndSplineSet
EndChar

StartChar: five
Encoding: 538 53 538
GlifName: five
Width: 535
VWidth: 0
Flags: W
LayerCount: 2
Fore
SplineSet
232 1 m 257
 189 1 189 1 148 15 c 128
 107 29 107 29 73 57 c 257
 69 60 69 60 67 64 c 128
 65 68 65 68 65 72 c 257
 65 79 65 79 71 87 c 128
 77 95 77 95 85 95 c 257
 93 95 93 95 99 89 c 257
 128 65 128 65 162.5 53 c 128
 197 41 197 41 232 41 c 257
 295 41 295 41 342 65.5 c 128
 389 90 389 90 414.5 135 c 128
 440 180 440 180 440 239 c 257
 440 294 440 294 416.5 335.5 c 128
 393 377 393 377 348.5 400.5 c 128
 304 424 304 424 242 424 c 257
 204 424 204 424 172 412.5 c 128
 140 401 140 401 118 389.5 c 128
 96 378 96 378 85 378 c 257
 80 378 80 378 75.5 381 c 128
 71 384 71 384 69 389.5 c 128
 67 395 67 395 68 402 c 257
 115 677 l 257
 116 682 116 682 121.5 688 c 128
 127 694 127 694 137 694 c 257
 442 694 l 257
 450 694 450 694 456 688 c 128
 462 682 462 682 462 673 c 257
 462 664 462 664 456 658 c 128
 450 652 450 652 442 652 c 257
 145 652 l 257
 154 661 l 257
 108 412 l 257
 88 417 l 257
 104 427 104 427 129.5 437.5 c 128
 155 448 155 448 187.5 455.5 c 128
 220 463 220 463 257 463 c 257
 321 463 321 463 371 435 c 128
 421 407 421 407 450.5 357.5 c 128
 480 308 480 308 480 242 c 257
 480 170 480 170 449.5 116 c 128
 419 62 419 62 363.5 31.5 c 128
 308 1 308 1 232 1 c 257
EndSplineSet
EndChar

StartChar: six
Encoding: 539 54 539
GlifName: six
Width: 533
VWidth: 0
Flags: W
LayerCount: 2
Fore
SplineSet
288 -10 m 257
 228 -10 228 -10 184.5 10.5 c 128
 141 31 141 31 113.5 65.5 c 128
 86 100 86 100 73 143.5 c 128
 60 187 60 187 60 232 c 257
 60 285 60 285 74 343 c 128
 88 401 88 401 114.5 459 c 128
 141 517 141 517 178.5 568.5 c 128
 216 620 216 620 263.5 661 c 128
 311 702 311 702 366 725 c 257
 372 727 372 727 375 727 c 257
 384 727 384 727 390.5 721.5 c 128
 397 716 397 716 397 704 c 257
 397 698 397 698 393.5 693.5 c 128
 390 689 390 689 383 686 c 257
 338 666 338 666 294.5 628.5 c 128
 251 591 251 591 214 542.5 c 128
 177 494 177 494 151 440 c 128
 125 386 125 386 115 332 c 257
 95 314 l 257
 114 352 114 352 145.5 380 c 128
 177 408 177 408 216.5 423.5 c 128
 256 439 256 439 299 439 c 257
 347 439 347 439 384.5 419.5 c 128
 422 400 422 400 448.5 367.5 c 128
 475 335 475 335 489 294.5 c 128
 503 254 503 254 503 211 c 257
 503 154 503 154 475.5 103.5 c 128
 448 53 448 53 399.5 21.5 c 128
 351 -10 351 -10 288 -10 c 257
286 30 m 257
 337 30 337 30 376.5 53 c 128
 416 76 416 76 438.5 116.5 c 128
 461 157 461 157 461 211 c 257
 461 259 461 259 442.5 301.5 c 128
 424 344 424 344 386.5 371 c 128
 349 398 349 398 292 398 c 257
 231 398 231 398 188.5 371.5 c 128
 146 345 146 345 123.5 301.5 c 128
 101 258 101 258 101 207 c 257
 101 162 101 162 122.5 121.5 c 128
 144 81 144 81 185.5 55.5 c 128
 227 30 227 30 286 30 c 257
EndSplineSet
EndChar

StartChar: seven
Encoding: 540 55 540
GlifName: seven
Width: 501
VWidth: 0
Flags: W
LayerCount: 2
Fore
SplineSet
170 -2 m 257
 163 -2 163 -2 156 3 c 128
 149 8 149 8 149 16 c 257
 149 20 149 20 151 26 c 257
 423 664 l 257
 435 655 l 257
 80 655 l 257
 72 655 72 655 66 660.5 c 128
 60 666 60 666 60 675 c 257
 60 684 60 684 66 689.5 c 128
 72 695 72 695 80 695 c 257
 454 695 l 257
 465 695 465 695 468 690 c 128
 471 685 471 685 471 677 c 257
 471 671 471 671 469 667 c 257
 190 11 l 257
 188 5 188 5 182.5 1.5 c 128
 177 -2 177 -2 170 -2 c 257
EndSplineSet
EndChar

StartChar: eight
Encoding: 541 56 541
GlifName: eight
Width: 537
VWidth: 0
Flags: W
LayerCount: 2
Fore
SplineSet
356 351 m 257
 353 355 l 257
 386 343 386 343 414 318 c 128
 442 293 442 293 459.5 258 c 128
 477 223 477 223 477 179 c 257
 477 127 477 127 449.5 84 c 128
 422 41 422 41 374.5 15.5 c 128
 327 -10 327 -10 268 -10 c 257
 209 -10 209 -10 162 15.5 c 128
 115 41 115 41 87.5 84 c 128
 60 127 60 127 60 179 c 257
 60 223 60 223 77 257.5 c 128
 94 292 94 292 122 316.5 c 128
 150 341 150 341 182 354 c 257
 180 350 l 257
 153 363 153 363 129.5 387 c 128
 106 411 106 411 91 443.5 c 128
 76 476 76 476 76 514 c 257
 76 567 76 567 101.5 609 c 128
 127 651 127 651 171 675.5 c 128
 215 700 215 700 268 700 c 257
 321 700 321 700 364.5 675.5 c 128
 408 651 408 651 433.5 609 c 128
 459 567 459 567 459 514 c 257
 459 476 459 476 444.5 444 c 128
 430 412 430 412 406.5 388 c 128
 383 364 383 364 356 351 c 257
118 514 m 257
 118 470 118 470 139 437 c 128
 160 404 160 404 194.5 385.5 c 128
 229 367 229 367 268 367 c 257
 307 367 307 367 341 385.5 c 128
 375 404 375 404 396 437 c 128
 417 470 417 470 417 514 c 257
 417 579 417 579 375.5 619.5 c 128
 334 660 334 660 268 660 c 257
 201 660 201 660 159.5 619.5 c 128
 118 579 118 579 118 514 c 257
268 30 m 257
 343 30 343 30 389 72 c 128
 435 114 435 114 435 179 c 257
 435 223 435 223 412 257.5 c 128
 389 292 389 292 351 311.5 c 128
 313 331 313 331 268 331 c 257
 224 331 224 331 186 311.5 c 128
 148 292 148 292 125 257.5 c 128
 102 223 102 223 102 179 c 257
 102 114 102 114 147.5 72 c 128
 193 30 193 30 268 30 c 257
EndSplineSet
EndChar

StartChar: nine
Encoding: 542 57 542
GlifName: nine
Width: 555
VWidth: 0
Flags: W
LayerCount: 2
Fore
SplineSet
275 710 m 257
 335 710 335 710 378.5 689.5 c 128
 422 669 422 669 449.5 634.5 c 128
 477 600 477 600 490 556.5 c 128
 503 513 503 513 503 468 c 257
 503 415 503 415 489 358.5 c 128
 475 302 475 302 448.5 246.5 c 128
 422 191 422 191 384.5 141.5 c 128
 347 92 347 92 299.5 52.5 c 128
 252 13 252 13 197 -10 c 257
 191 -12 191 -12 188 -12 c 257
 179 -12 179 -12 172.5 -4.5 c 128
 166 3 166 3 166 11 c 257
 166 17 166 17 169.5 21.5 c 128
 173 26 173 26 180 29 c 257
 241 56 241 56 297 108.5 c 128
 353 161 353 161 394 229 c 128
 435 297 435 297 448 368 c 257
 468 386 l 257
 449 348 449 348 417.5 320.5 c 128
 386 293 386 293 347 278 c 128
 308 263 308 263 264 263 c 257
 201 263 201 263 155 296 c 128
 109 329 109 329 84.5 380.5 c 128
 60 432 60 432 60 489 c 257
 60 547 60 547 87.5 597 c 128
 115 647 115 647 163.5 678.5 c 128
 212 710 212 710 275 710 c 257
277 670 m 257
 226 670 226 670 186.5 647.5 c 128
 147 625 147 625 124.5 584 c 128
 102 543 102 543 102 489 c 257
 102 442 102 442 120.5 399.5 c 128
 139 357 139 357 177 330.5 c 128
 215 304 215 304 271 304 c 257
 332 304 332 304 374.5 330 c 128
 417 356 417 356 439.5 399 c 128
 462 442 462 442 462 493 c 257
 462 539 462 539 440.5 579 c 128
 419 619 419 619 378 644.5 c 128
 337 670 337 670 277 670 c 257
EndSplineSet
EndChar

StartChar: zero.dnom
Encoding: 544 -1 544
GlifName: zero.dnom
Width: 308
VWidth: 0
Flags: W
LayerCount: 2
Fore
SplineSet
154 -10 m 257
 112 -10 112 -10 84.5 11.5 c 128
 57 33 57 33 43.5 69.5 c 128
 30 106 30 106 30 150 c 257
 30 195 30 195 43.5 231 c 128
 57 267 57 267 84.5 288.5 c 128
 112 310 112 310 154 310 c 257
 196 310 196 310 223.5 288.5 c 128
 251 267 251 267 264.5 231 c 128
 278 195 278 195 278 150 c 257
 278 106 278 106 264.5 69.5 c 128
 251 33 251 33 223.5 11.5 c 128
 196 -10 196 -10 154 -10 c 257
154 26 m 257
 196 26 196 26 218 60.5 c 128
 240 95 240 95 240 150 c 257
 240 203 240 203 218 238.5 c 128
 196 274 196 274 154 274 c 257
 112 274 112 274 90 238.5 c 128
 68 203 68 203 68 150 c 257
 68 95 68 95 90 60.5 c 128
 112 26 112 26 154 26 c 257
EndSplineSet
EndChar

StartChar: one.dnom
Encoding: 545 -1 545
GlifName: one.dnom
Width: 189
VWidth: 0
Flags: W
LayerCount: 2
Fore
SplineSet
120 -6 m 257
 111 -6 111 -6 106 0 c 128
 101 6 101 6 101 14 c 257
 100 249 l 257
 106 247 l 257
 55 216 l 257
 52 215 52 215 49 213.5 c 128
 46 212 46 212 43 212 c 257
 36 212 36 212 31 217.5 c 128
 26 223 26 223 26 230 c 257
 26 240 26 240 36 247 c 257
 106 290 l 257
 113 295 113 295 123 293 c 257
 130 292 130 292 134 286.5 c 128
 138 281 138 281 138 273 c 257
 139 14 l 257
 139 6 139 6 133.5 0 c 128
 128 -6 128 -6 120 -6 c 257
EndSplineSet
EndChar

StartChar: two.dnom
Encoding: 546 -1 546
GlifName: two.dnom
Width: 301
VWidth: 0
Flags: W
LayerCount: 2
Fore
SplineSet
70 0 m 257
 61 0 61 0 55.5 4.5 c 128
 50 9 50 9 50 20 c 257
 50 24 50 24 52.5 28.5 c 128
 55 33 55 33 60 39 c 257
 144 134 l 257
 163 160 163 160 184 183.5 c 128
 205 207 205 207 205 233 c 257
 205 249 205 249 192 261.5 c 128
 179 274 179 274 152 274 c 257
 132 274 132 274 114 262 c 128
 96 250 96 250 89 227 c 257
 88 221 88 221 83 216 c 128
 78 211 78 211 70 211 c 257
 63 211 63 211 57.5 215 c 128
 52 219 52 219 52 225 c 257
 52 236 52 236 62.5 256.5 c 128
 73 277 73 277 96 293.5 c 128
 119 310 119 310 158 310 c 257
 187 310 187 310 206.5 299 c 128
 226 288 226 288 235.5 271 c 128
 245 254 245 254 245 235 c 257
 245 206 245 206 232.5 185 c 128
 220 164 220 164 203.5 146.5 c 128
 187 129 187 129 173 110 c 257
 104 28 l 257
 99 36 l 257
 231 36 l 257
 239 36 239 36 245 31 c 128
 251 26 251 26 251 18 c 257
 251 11 251 11 245 5.5 c 128
 239 0 239 0 231 0 c 257
 70 0 l 257
EndSplineSet
EndChar

StartChar: three.dnom
Encoding: 547 -1 547
GlifName: three.dnom
Width: 299
VWidth: 0
Flags: W
LayerCount: 2
Fore
SplineSet
140 -10 m 257
 118 -10 118 -10 94.5 -2 c 128
 71 6 71 6 54 19 c 257
 45 26 45 26 45 37 c 257
 45 45 45 45 50 51 c 128
 55 57 55 57 63 57 c 257
 69 57 69 57 73 53.5 c 128
 77 50 77 50 85 45 c 257
 91 41 91 41 107 35.5 c 128
 123 30 123 30 140 30 c 257
 170 30 170 30 192 48 c 128
 214 66 214 66 214 92 c 257
 214 118 214 118 196.5 131 c 128
 179 144 179 144 153 144 c 257
 144 144 144 144 131 142 c 128
 118 140 118 140 107 136 c 257
 97 134 97 134 90.5 140.5 c 128
 84 147 84 147 84 154 c 257
 84 158 84 158 85 161 c 128
 86 164 86 164 89 167 c 257
 197 274 l 257
 200 262 l 257
 78 262 l 257
 70 262 70 262 64 268 c 128
 58 274 58 274 58 281 c 257
 58 289 58 289 64 294.5 c 128
 70 300 70 300 78 300 c 257
 222 300 l 257
 230 300 230 300 235.5 295.5 c 128
 241 291 241 291 242 284 c 257
 245 275 245 275 237 265 c 257
 141 171 l 257
 117 166 l 257
 117 169 117 169 133.5 174 c 128
 150 179 150 179 160 179 c 257
 183 179 183 179 204.5 171.5 c 128
 226 164 226 164 240 145 c 128
 254 126 254 126 254 92 c 257
 254 62 254 62 238 39 c 128
 222 16 222 16 196.5 3 c 128
 171 -10 171 -10 140 -10 c 257
EndSplineSet
EndChar

StartChar: four.dnom
Encoding: 548 -1 548
GlifName: four.dnom
Width: 272
VWidth: 0
Flags: W
LayerCount: 2
Fore
SplineSet
182 -7 m 257
 175 -7 175 -7 169 -1.5 c 128
 163 4 163 4 163 12 c 257
 163 242 l 257
 168 234 l 257
 66 99 l 257
 67 108 l 257
 238 108 l 257
 257 106 257 106 257 90 c 257
 257 72 257 72 238 72 c 257
 44 72 l 257
 37 72 37 72 30.5 78 c 128
 24 84 24 84 24 92 c 257
 24 96 24 96 25 99 c 128
 26 102 26 102 29 106 c 257
 164 285 l 257
 166 288 166 288 171 290.5 c 128
 176 293 176 293 181 293 c 257
 190 293 190 293 195.5 287 c 128
 201 281 201 281 201 273 c 257
 201 12 l 257
 201 4 201 4 195.5 -1.5 c 128
 190 -7 190 -7 182 -7 c 257
EndSplineSet
EndChar

StartChar: five.dnom
Encoding: 549 -1 549
GlifName: five.dnom
Width: 305
VWidth: 0
Flags: W
LayerCount: 2
Fore
SplineSet
147 -10 m 257
 124 -10 124 -10 100 1.5 c 128
 76 13 76 13 58 31 c 257
 50 39 50 39 50 47 c 257
 50 54 50 54 54.5 61 c 128
 59 68 59 68 69 68 c 257
 73 68 73 68 76.5 66.5 c 128
 80 65 80 65 83 62 c 257
 98 46 98 46 114.5 37 c 128
 131 28 131 28 147 28 c 257
 179 28 179 28 198 46.5 c 128
 217 65 217 65 217 93 c 257
 217 120 217 120 200.5 138 c 128
 184 156 184 156 155 156 c 257
 136 156 136 156 123.5 147.5 c 128
 111 139 111 139 102.5 130 c 128
 94 121 94 121 85 121 c 257
 75 121 75 121 68.5 128 c 128
 62 135 62 135 64 145 c 257
 90 272 l 257
 92 278 92 278 96.5 283.5 c 128
 101 289 101 289 112 289 c 257
 229 289 l 257
 237 289 237 289 243 283 c 128
 249 277 249 277 249 269 c 257
 249 260 249 260 243 254.5 c 128
 237 249 237 249 229 249 c 257
 114 249 l 257
 121 256 l 257
 102 155 l 257
 84 160 l 257
 97 175 97 175 113.5 183.5 c 128
 130 192 130 192 162 192 c 257
 191 192 191 192 212 179.5 c 128
 233 167 233 167 244 145.5 c 128
 255 124 255 124 255 96 c 257
 255 65 255 65 242 41 c 128
 229 17 229 17 205 3.5 c 128
 181 -10 181 -10 147 -10 c 257
EndSplineSet
EndChar

StartChar: six.dnom
Encoding: 550 -1 550
GlifName: six.dnom
Width: 253
VWidth: 0
Flags: W
LayerCount: 2
Fore
SplineSet
128 -10 m 257
 93 -10 93 -10 71.5 5 c 128
 50 20 50 20 40 43.5 c 128
 30 67 30 67 30 92 c 257
 30 126 30 126 47.5 163.5 c 128
 65 201 65 201 91.5 233.5 c 128
 118 266 118 266 145.5 286 c 128
 173 306 173 306 193 306 c 257
 202 306 202 306 209.5 301.5 c 128
 217 297 217 297 217 286 c 257
 217 279 217 279 213.5 274 c 128
 210 269 210 269 203 266 c 257
 163 252 163 252 130 216.5 c 128
 97 181 97 181 85 141 c 257
 45 104 l 257
 57 139 57 139 81.5 159 c 128
 106 179 106 179 133 179 c 257
 180 179 180 179 201.5 148.5 c 128
 223 118 223 118 223 81 c 257
 223 56 223 56 210.5 35.5 c 128
 198 15 198 15 176.5 2.5 c 128
 155 -10 155 -10 128 -10 c 257
126 28 m 257
 149 28 149 28 166 43 c 128
 183 58 183 58 183 81 c 257
 183 104 183 104 170.5 122 c 128
 158 140 158 140 132 140 c 257
 101 140 101 140 85 122.5 c 128
 69 105 69 105 69 83 c 257
 69 61 69 61 83.5 44.5 c 128
 98 28 98 28 126 28 c 257
EndSplineSet
EndChar

StartChar: seven.dnom
Encoding: 551 -1 551
GlifName: seven.dnom
Width: 272
VWidth: 0
Flags: W
LayerCount: 2
Fore
SplineSet
101 -10 m 257
 94 -10 94 -10 87.5 -5 c 128
 81 0 81 0 81 8 c 257
 81 10 81 10 82 13 c 128
 83 16 83 16 84 18 c 257
 196 261 l 257
 206 254 l 257
 60 254 l 257
 52 254 52 254 46 259 c 128
 40 264 40 264 40 273 c 257
 40 281 40 281 46 286.5 c 128
 52 292 52 292 60 292 c 257
 225 292 l 257
 235 292 235 292 238.5 285 c 128
 242 278 242 278 242 273 c 257
 242 270 242 270 241.5 268 c 128
 241 266 241 266 240 264 c 257
 121 3 l 257
 119 -3 119 -3 113.5 -6.5 c 128
 108 -10 108 -10 101 -10 c 257
EndSplineSet
EndChar

StartChar: eight.dnom
Encoding: 552 -1 552
GlifName: eight.dnom
Width: 273
VWidth: 0
Flags: W
LayerCount: 2
Fore
SplineSet
136 -10 m 257
 106 -10 106 -10 82 2 c 128
 58 14 58 14 44 33.5 c 128
 30 53 30 53 30 77 c 257
 30 97 30 97 39 112.5 c 128
 48 128 48 128 62 139 c 128
 76 150 76 150 91 156 c 257
 91 154 l 257
 71 162 71 162 54.5 182 c 128
 38 202 38 202 38 227 c 257
 38 250 38 250 51 268 c 128
 64 286 64 286 86.5 296.5 c 128
 109 307 109 307 136 307 c 257
 164 307 164 307 186 296.5 c 128
 208 286 208 286 221 268 c 128
 234 250 234 250 234 227 c 257
 234 202 234 202 217.5 183 c 128
 201 164 201 164 181 155 c 257
 180 157 l 257
 204 148 204 148 223.5 127 c 128
 243 106 243 106 243 77 c 257
 243 53 243 53 229 33.5 c 128
 215 14 215 14 191 2 c 128
 167 -10 167 -10 136 -10 c 257
136 170 m 257
 158 170 158 170 176 183 c 128
 194 196 194 196 194 220 c 257
 194 243 194 243 177.5 257 c 128
 161 271 161 271 136 271 c 257
 111 271 111 271 94.5 257 c 128
 78 243 78 243 78 220 c 257
 78 196 78 196 96 183 c 128
 114 170 114 170 136 170 c 257
136 26 m 257
 164 26 164 26 182 42 c 128
 200 58 200 58 200 83 c 257
 200 107 200 107 180 120.5 c 128
 160 134 160 134 136 134 c 257
 112 134 112 134 92.5 120.5 c 128
 73 107 73 107 73 83 c 257
 73 58 73 58 90.5 42 c 128
 108 26 108 26 136 26 c 257
EndSplineSet
EndChar

StartChar: nine.dnom
Encoding: 553 -1 553
GlifName: nine.dnom
Width: 283
VWidth: 0
Flags: W
LayerCount: 2
Fore
SplineSet
80 -11 m 257
 71 -11 71 -11 63.5 -6.5 c 128
 56 -2 56 -2 56 9 c 257
 56 17 56 17 59.5 21.5 c 128
 63 26 63 26 70 29 c 257
 110 43 110 43 143 78.5 c 128
 176 114 176 114 188 154 c 257
 228 191 l 257
 216 157 216 157 191.5 136.5 c 128
 167 116 167 116 140 116 c 257
 94 116 94 116 72 146.5 c 128
 50 177 50 177 50 214 c 257
 50 239 50 239 62.5 259.5 c 128
 75 280 75 280 96.5 292.5 c 128
 118 305 118 305 145 305 c 257
 180 305 180 305 201.5 290 c 128
 223 275 223 275 233 252 c 128
 243 229 243 229 243 203 c 257
 243 169 243 169 225.5 131.5 c 128
 208 94 208 94 181.5 61.5 c 128
 155 29 155 29 127.5 9 c 128
 100 -11 100 -11 80 -11 c 257
141 155 m 257
 172 155 172 155 188 172.5 c 128
 204 190 204 190 204 212 c 257
 204 235 204 235 189.5 251 c 128
 175 267 175 267 147 267 c 257
 125 267 125 267 107.5 252 c 128
 90 237 90 237 90 214 c 257
 90 192 90 192 103 173.5 c 128
 116 155 116 155 141 155 c 257
EndSplineSet
EndChar

StartChar: fraction
Encoding: 584 8260 584
GlifName: fraction
Width: 527
VWidth: 0
Flags: W
LayerCount: 2
Fore
SplineSet
45 -3 m 257
 36 -3 36 -3 30.5 2 c 128
 25 7 25 7 25 16 c 257
 25 22 25 22 28 28 c 257
 466 694 l 257
 472 703 472 703 482 703 c 257
 491 703 491 703 496.5 698 c 128
 502 693 502 693 502 684 c 257
 502 678 502 678 499 672 c 257
 61 6 l 257
 55 -3 55 -3 45 -3 c 257
EndSplineSet
EndChar

StartChar: period
Encoding: 600 46 600
GlifName: period
Width: 158
VWidth: 0
Flags: W
LayerCount: 2
Fore
SplineSet
77 0 m 257
 64 0 64 0 57 9 c 128
 50 18 50 18 50 31 c 257
 50 54 l 257
 50 68 50 68 57 76.5 c 128
 64 85 64 85 77 85 c 257
 81 85 l 257
 95 85 95 85 101.5 76.5 c 128
 108 68 108 68 108 54 c 257
 108 31 l 257
 108 18 108 18 101.5 9 c 128
 95 0 95 0 81 0 c 257
 77 0 l 257
EndSplineSet
EndChar

StartChar: comma
Encoding: 601 44 601
GlifName: comma
Width: 167
VWidth: 0
Flags: W
LayerCount: 2
Fore
SplineSet
139 -13 m 257
 139 -38 139 -38 124 -61 c 128
 109 -84 109 -84 88.5 -98.5 c 128
 68 -113 68 -113 49 -113 c 257
 42 -113 42 -113 36.5 -109.5 c 128
 31 -106 31 -106 31 -95 c 257
 31 -84 31 -84 38.5 -83 c 128
 46 -82 46 -82 62 -74 c 257
 80 -65 80 -65 89.5 -52 c 128
 99 -39 99 -39 99 -23 c 257
 99 -9 99 -9 92.5 -2.5 c 128
 86 4 86 4 78 4 c 257
 71 4 71 4 64 1.5 c 128
 57 -1 57 -1 52 -5 c 257
 48 0 48 0 45.5 6 c 128
 43 12 43 12 44 18 c 257
 46 30 46 30 59 39 c 128
 72 48 72 48 88 48 c 257
 110 48 110 48 124.5 28.5 c 128
 139 9 139 9 139 -13 c 257
EndSplineSet
EndChar

StartChar: colon
Encoding: 602 58 602
GlifName: colon
Width: 158
VWidth: 0
Flags: W
LayerCount: 2
Fore
SplineSet
77 425 m 257
 64 425 64 425 57 434 c 128
 50 443 50 443 50 456 c 257
 50 479 l 257
 50 493 50 493 57 501.5 c 128
 64 510 64 510 77 510 c 257
 81 510 l 257
 95 510 95 510 101.5 501.5 c 128
 108 493 108 493 108 479 c 257
 108 456 l 257
 108 443 108 443 101.5 434 c 128
 95 425 95 425 81 425 c 257
 77 425 l 257
77 0 m 257
 64 0 64 0 57 9 c 128
 50 18 50 18 50 31 c 257
 50 54 l 257
 50 68 50 68 57 76.5 c 128
 64 85 64 85 77 85 c 257
 81 85 l 257
 95 85 95 85 101.5 76.5 c 128
 108 68 108 68 108 54 c 257
 108 31 l 257
 108 18 108 18 101.5 9 c 128
 95 0 95 0 81 0 c 257
 77 0 l 257
EndSplineSet
EndChar

StartChar: semicolon
Encoding: 603 59 603
GlifName: semicolon
Width: 167
VWidth: 0
Flags: W
LayerCount: 2
Fore
SplineSet
94 425 m 257
 81 425 81 425 72 434 c 128
 63 443 63 443 63 456 c 257
 63 479 l 257
 63 493 63 493 72 501.5 c 128
 81 510 81 510 94 510 c 257
 98 510 l 257
 112 510 112 510 120.5 501.5 c 128
 129 493 129 493 129 479 c 257
 129 456 l 257
 129 443 129 443 120.5 434 c 128
 112 425 112 425 98 425 c 257
 94 425 l 257
139 -13 m 257
 139 -38 139 -38 124 -61 c 128
 109 -84 109 -84 88.5 -98.5 c 128
 68 -113 68 -113 49 -113 c 257
 42 -113 42 -113 36.5 -109.5 c 128
 31 -106 31 -106 31 -95 c 257
 31 -84 31 -84 38.5 -83 c 128
 46 -82 46 -82 62 -74 c 257
 80 -65 80 -65 89.5 -52 c 128
 99 -39 99 -39 99 -23 c 257
 99 -9 99 -9 92.5 -2.5 c 128
 86 4 86 4 78 4 c 257
 71 4 71 4 64 1.5 c 128
 57 -1 57 -1 52 -5 c 257
 48 0 48 0 45.5 6 c 128
 43 12 43 12 44 18 c 257
 46 30 46 30 59 39 c 128
 72 48 72 48 88 48 c 257
 110 48 110 48 124.5 28.5 c 128
 139 9 139 9 139 -13 c 257
EndSplineSet
EndChar

StartChar: exclam
Encoding: 605 33 605
GlifName: exclam
Width: 158
VWidth: 0
Flags: W
LayerCount: 2
Fore
SplineSet
79 187 m 257
 65 187 65 187 64 203 c 257
 59 669 l 257
 59 683 59 683 62.5 691.5 c 128
 66 700 66 700 79 700 c 257
 92 700 92 700 95.5 691.5 c 128
 99 683 99 683 99 669 c 257
 94 203 l 257
 93 187 93 187 79 187 c 257
77 0 m 257
 64 0 64 0 57 9 c 128
 50 18 50 18 50 31 c 257
 50 54 l 257
 50 68 50 68 57 76.5 c 128
 64 85 64 85 77 85 c 257
 81 85 l 257
 95 85 95 85 101.5 76.5 c 128
 108 68 108 68 108 54 c 257
 108 31 l 257
 108 18 108 18 101.5 9 c 128
 95 0 95 0 81 0 c 257
 77 0 l 257
EndSplineSet
EndChar

StartChar: exclamdown
Encoding: 606 161 606
GlifName: exclamdown
Width: 158
VWidth: 0
Flags: W
LayerCount: 2
Fore
SplineSet
79 314 m 257
 93 314 93 314 94 298 c 257
 99 -168 l 257
 99 -181 99 -181 95.5 -190 c 128
 92 -199 92 -199 79 -199 c 257
 66 -199 66 -199 62.5 -190 c 128
 59 -181 59 -181 59 -168 c 257
 64 298 l 257
 65 314 65 314 79 314 c 257
81 501 m 257
 95 501 95 501 101.5 492.5 c 128
 108 484 108 484 108 470 c 257
 108 447 l 257
 108 434 108 434 101.5 425 c 128
 95 416 95 416 81 416 c 257
 77 416 l 257
 64 416 64 416 57 425 c 128
 50 434 50 434 50 447 c 257
 50 470 l 257
 50 484 50 484 57 492.5 c 128
 64 501 64 501 77 501 c 257
 81 501 l 257
EndSplineSet
EndChar

StartChar: question
Encoding: 607 63 607
GlifName: question
Width: 471
VWidth: 0
Flags: W
LayerCount: 2
Fore
SplineSet
216 343 m 257
 216 351 216 351 222 357 c 128
 228 363 228 363 236 363 c 257
 283 367 283 367 320 389.5 c 128
 357 412 357 412 378.5 448.5 c 128
 400 485 400 485 400 529 c 257
 400 580 400 580 379.5 617.5 c 128
 359 655 359 655 324.5 676 c 128
 290 697 290 697 247 697 c 257
 201 697 201 697 161.5 675 c 128
 122 653 122 653 96 618 c 257
 91 611 91 611 84.5 609 c 128
 78 607 78 607 70 611 c 257
 61 616 61 616 59.5 624.5 c 128
 58 633 58 633 63 640 c 257
 93 682 93 682 142.5 708.5 c 128
 192 735 192 735 247 735 c 257
 301 735 301 735 345.5 710.5 c 128
 390 686 390 686 416.5 640 c 128
 443 594 443 594 443 529 c 257
 443 492 443 492 427 456 c 128
 411 420 411 420 382.5 390.5 c 128
 354 361 354 361 317 343.5 c 128
 280 326 280 326 237 326 c 257
 233 326 233 326 240.5 328 c 128
 248 330 248 330 254 337 c 257
 254 209 l 257
 254 201 254 201 248.5 195 c 128
 243 189 243 189 235 189 c 257
 226 189 226 189 220.5 195 c 128
 215 201 215 201 216 209 c 257
 216 343 l 257
237 0 m 257
 224 0 224 0 217 9 c 128
 210 18 210 18 210 31 c 257
 210 54 l 257
 210 68 210 68 217 76.5 c 128
 224 85 224 85 237 85 c 257
 241 85 l 257
 255 85 255 85 261.5 76.5 c 128
 268 68 268 68 268 54 c 257
 268 31 l 257
 268 18 268 18 261.5 9 c 128
 255 0 255 0 241 0 c 257
 237 0 l 257
EndSplineSet
EndChar

StartChar: questiondown
Encoding: 608 191 608
GlifName: questiondown
Width: 459
VWidth: 0
Flags: W
LayerCount: 2
Fore
SplineSet
277 214 m 257
 277 206 277 206 271 200 c 128
 265 194 265 194 257 194 c 257
 210 191 210 191 173 168 c 128
 136 145 136 145 114.5 108.5 c 128
 93 72 93 72 93 28 c 257
 93 -22 93 -22 113.5 -60 c 128
 134 -98 134 -98 168.5 -119 c 128
 203 -140 203 -140 246 -140 c 257
 293 -140 293 -140 332.5 -118 c 128
 372 -96 372 -96 397 -61 c 257
 402 -54 402 -54 409 -52 c 128
 416 -50 416 -50 423 -54 c 257
 432 -58 432 -58 433.5 -66.5 c 128
 435 -75 435 -75 430 -83 c 257
 400 -125 400 -125 351 -151.5 c 128
 302 -178 302 -178 246 -178 c 257
 193 -178 193 -178 148 -153.5 c 128
 103 -129 103 -129 76.5 -83 c 128
 50 -37 50 -37 50 28 c 257
 50 65 50 65 66 101 c 128
 82 137 82 137 110.5 166.5 c 128
 139 196 139 196 176 213.5 c 128
 213 231 213 231 256 231 c 257
 260 231 260 231 252.5 229.5 c 128
 245 228 245 228 239 220 c 257
 239 348 l 257
 239 356 239 356 244.5 362 c 128
 250 368 250 368 258 368 c 257
 267 368 267 368 272.5 362 c 128
 278 356 278 356 277 348 c 257
 277 214 l 257
256 557 m 257
 270 557 270 557 276.5 548.5 c 128
 283 540 283 540 283 526 c 257
 283 503 l 257
 283 490 283 490 276.5 481 c 128
 270 472 270 472 256 472 c 257
 252 472 l 257
 239 472 239 472 232 481 c 128
 225 490 225 490 225 503 c 257
 225 526 l 257
 225 540 225 540 232 548.5 c 128
 239 557 239 557 252 557 c 257
 256 557 l 257
EndSplineSet
EndChar

StartChar: periodcentered
Encoding: 609 183 609
GlifName: periodcentered
Width: 186
VWidth: 0
Flags: W
LayerCount: 2
Fore
SplineSet
91 255 m 257
 78 255 78 255 69 264 c 128
 60 273 60 273 60 286 c 257
 60 309 l 257
 60 323 60 323 69 331.5 c 128
 78 340 78 340 91 340 c 257
 95 340 l 257
 109 340 109 340 117.5 331.5 c 128
 126 323 126 323 126 309 c 257
 126 286 l 257
 126 273 126 273 117.5 264 c 128
 109 255 109 255 95 255 c 257
 91 255 l 257
EndSplineSet
EndChar

StartChar: bullet
Encoding: 610 8226 610
GlifName: bullet
Width: 340
VWidth: 0
Flags: W
LayerCount: 2
Fore
SplineSet
170 228 m 257
 136 228 136 228 108 245 c 128
 80 262 80 262 63 290 c 128
 46 318 46 318 46 352 c 257
 46 386 46 386 63 414 c 128
 80 442 80 442 108 459 c 128
 136 476 136 476 170 476 c 257
 204 476 204 476 232 459 c 128
 260 442 260 442 277 414 c 128
 294 386 294 386 294 352 c 257
 294 318 294 318 277 290 c 128
 260 262 260 262 232 245 c 128
 204 228 204 228 170 228 c 257
EndSplineSet
EndChar

StartChar: asterisk
Encoding: 611 42 611
GlifName: asterisk
Width: 291
VWidth: 0
Flags: W
LayerCount: 2
Fore
SplineSet
145 406 m 257
 137 406 137 406 131.5 412.5 c 128
 126 419 126 419 127 428 c 257
 133 525 l 257
 134 528 134 528 132 529.5 c 128
 130 531 130 531 128 529 c 257
 46 473 l 257
 39 468 39 468 30.5 470 c 128
 22 472 22 472 17 480 c 257
 13 488 13 488 15.5 496 c 128
 18 504 18 504 27 508 c 257
 117 551 l 257
 120 552 120 552 120 554 c 128
 120 556 120 556 117 557 c 257
 27 600 l 257
 18 605 18 605 15.5 613.5 c 128
 13 622 13 622 18 630 c 257
 23 638 23 638 31 639 c 128
 39 640 39 640 46 635 c 257
 128 579 l 257
 130 578 130 578 132 579 c 128
 134 580 134 580 133 583 c 257
 127 680 l 257
 126 689 126 689 132 695.5 c 128
 138 702 138 702 147 702 c 257
 155 702 155 702 160.5 695.5 c 128
 166 689 166 689 165 680 c 257
 159 583 l 257
 158 580 158 580 160 579 c 128
 162 578 162 578 164 579 c 257
 246 635 l 257
 254 640 254 640 262.5 638 c 128
 271 636 271 636 275 628 c 257
 280 621 280 621 277 613 c 128
 274 605 274 605 265 600 c 257
 175 557 l 257
 172 556 172 556 172 554 c 128
 172 552 172 552 175 551 c 257
 265 508 l 257
 274 504 274 504 277 496 c 128
 280 488 280 488 275 480 c 257
 271 472 271 472 262.5 470 c 128
 254 468 254 468 246 473 c 257
 164 529 l 257
 162 531 162 531 160 529.5 c 128
 158 528 158 528 159 525 c 257
 165 428 l 257
 166 419 166 419 160 412.5 c 128
 154 406 154 406 145 406 c 257
EndSplineSet
EndChar

StartChar: numbersign
Encoding: 612 35 612
GlifName: numbersign
Width: 641
VWidth: 0
Flags: W
LayerCount: 2
Fore
SplineSet
137 0 m 257
 125 0 125 0 118.5 9.5 c 128
 112 19 112 19 114 32 c 257
 226 680 l 257
 228 689 228 689 234 694.5 c 128
 240 700 240 700 249 700 c 257
 261 700 261 700 267.5 691 c 128
 274 682 274 682 272 669 c 257
 160 20 l 257
 159 11 159 11 152.5 5.5 c 128
 146 0 146 0 137 0 c 257
86 470 m 257
 75 470 75 470 67.5 477.5 c 128
 60 485 60 485 60 495 c 257
 60 505 60 505 67.5 511 c 128
 75 517 75 517 85 517 c 257
 596 517 l 257
 607 517 607 517 614 510 c 128
 621 503 621 503 621 492 c 257
 621 482 621 482 614 476 c 128
 607 470 607 470 596 470 c 257
 86 470 l 257
392 0 m 257
 380 0 380 0 373.5 9.5 c 128
 367 19 367 19 369 32 c 257
 481 680 l 257
 483 689 483 689 489 694.5 c 128
 495 700 495 700 504 700 c 257
 516 700 516 700 522.5 691 c 128
 529 682 529 682 527 669 c 257
 415 20 l 257
 414 11 414 11 407.5 5.5 c 128
 401 0 401 0 392 0 c 257
45 187 m 257
 35 187 35 187 27.5 194.5 c 128
 20 202 20 202 20 212 c 257
 20 222 20 222 27.5 228 c 128
 35 234 35 234 45 234 c 257
 556 234 l 257
 567 234 567 234 574 227 c 128
 581 220 581 220 581 209 c 257
 581 199 581 199 574 193 c 128
 567 187 567 187 556 187 c 257
 45 187 l 257
EndSplineSet
EndChar

StartChar: slash
Encoding: 613 47 613
GlifName: slash
Width: 507
VWidth: 0
Flags: W
LayerCount: 2
Fore
SplineSet
20 -128 m 257
 10 -128 10 -128 5 -121.5 c 128
 0 -115 0 -115 0 -107 c 257
 0 -101 0 -101 3 -95 c 257
 448 776 l 257
 455 790 455 790 461 794 c 128
 467 798 467 798 477 798 c 257
 484 798 484 798 489.5 793 c 128
 495 788 495 788 495 779 c 257
 495 771 495 771 491 763 c 257
 46 -109 l 257
 40 -120 40 -120 34 -124 c 128
 28 -128 28 -128 20 -128 c 257
EndSplineSet
EndChar

StartChar: backslash
Encoding: 614 92 614
GlifName: backslash
Width: 508
VWidth: 0
Flags: W
LayerCount: 2
Fore
SplineSet
488 -133 m 257
 475 -133 475 -133 470 -127 c 128
 465 -121 465 -121 461 -114 c 257
 8 774 l 257
 6 778 6 778 5.5 781 c 128
 5 784 5 784 5 787 c 257
 5 794 5 794 10 798.5 c 128
 15 803 15 803 24 803 c 257
 40 803 40 803 44 797.5 c 128
 48 792 48 792 52 784 c 257
 505 -104 l 257
 508 -110 508 -110 508 -116 c 257
 508 -123 508 -123 502 -128 c 128
 496 -133 496 -133 488 -133 c 257
EndSplineSet
EndChar

StartChar: hyphen
Encoding: 621 45 621
GlifName: hyphen
Width: 388
VWidth: 0
Flags: W
LayerCount: 2
Fore
SplineSet
79 295 m 257
 71 295 71 295 65.5 301 c 128
 60 307 60 307 60 316 c 257
 60 324 60 324 65.5 329.5 c 128
 71 335 71 335 79 335 c 257
 309 335 l 257
 317 335 317 335 322.5 329 c 128
 328 323 328 323 328 314 c 257
 328 306 328 306 322.5 300.5 c 128
 317 295 317 295 309 295 c 257
 79 295 l 257
EndSplineSet
EndChar

StartChar: endash
Encoding: 623 8211 623
GlifName: endash
Width: 508
VWidth: 0
Flags: W
LayerCount: 2
Fore
SplineSet
81 228 m 257
 72 228 72 228 66 233 c 128
 60 238 60 238 60 247 c 257
 60 257 60 257 66 261.5 c 128
 72 266 72 266 81 266 c 257
 427 266 l 257
 436 266 436 266 442 261.5 c 128
 448 257 448 257 448 247 c 257
 448 238 448 238 442 233 c 128
 436 228 436 228 427 228 c 257
 81 228 l 257
EndSplineSet
EndChar

StartChar: emdash
Encoding: 624 8212 624
GlifName: emdash
Width: 822
VWidth: 0
Flags: W
LayerCount: 2
Fore
SplineSet
81 228 m 257
 72 228 72 228 66 234 c 128
 60 240 60 240 60 249 c 257
 60 259 60 259 66 265 c 128
 72 271 72 271 81 271 c 257
 741 271 l 257
 750 271 750 271 756 265 c 128
 762 259 762 259 762 249 c 257
 762 240 762 240 756 234 c 128
 750 228 750 228 741 228 c 257
 81 228 l 257
EndSplineSet
EndChar

StartChar: underscore
Encoding: 628 95 628
GlifName: underscore
Width: 654
VWidth: 0
Flags: W
LayerCount: 2
Fore
SplineSet
82 -160 m 257
 72 -160 72 -160 66 -154 c 128
 60 -148 60 -148 60 -140 c 257
 60 -130 60 -130 66 -125 c 128
 72 -120 72 -120 82 -120 c 257
 572 -120 l 257
 582 -120 582 -120 588 -125 c 128
 594 -130 594 -130 594 -140 c 257
 594 -148 594 -148 588 -154 c 128
 582 -160 582 -160 572 -160 c 257
 82 -160 l 257
EndSplineSet
EndChar

StartChar: parenleft
Encoding: 632 40 632
GlifName: parenleft
Width: 379
VWidth: 0
Flags: W
LayerCount: 2
Fore
SplineSet
331 -195 m 257
 326 -195 326 -195 320 -192 c 257
 233 -152 233 -152 175.5 -82 c 128
 118 -12 118 -12 89 76 c 128
 60 164 60 164 60 256 c 257
 60 349 60 349 90.5 433.5 c 128
 121 518 121 518 179.5 588 c 128
 238 658 238 658 321 705 c 257
 326 708 326 708 331 708 c 257
 339 708 339 708 344 702.5 c 128
 349 697 349 697 349 689 c 257
 349 678 349 678 339 672 c 257
 264 632 264 632 210.5 566 c 128
 157 500 157 500 128.5 419.5 c 128
 100 339 100 339 100 256 c 257
 100 173 100 173 127.5 91.5 c 128
 155 10 155 10 208.5 -56 c 128
 262 -122 262 -122 339 -160 c 257
 348 -164 348 -164 348 -177 c 257
 348 -184 348 -184 344 -189.5 c 128
 340 -195 340 -195 331 -195 c 257
EndSplineSet
EndChar

StartChar: parenright
Encoding: 633 41 633
GlifName: parenright
Width: 379
VWidth: 0
Flags: W
LayerCount: 2
Fore
SplineSet
48 -194 m 257
 41 -194 41 -194 35.5 -188.5 c 128
 30 -183 30 -183 30 -175 c 257
 30 -164 30 -164 40 -158 c 257
 115 -118 115 -118 168.5 -52 c 128
 222 14 222 14 250.5 94.5 c 128
 279 175 279 175 279 258 c 257
 279 341 279 341 251.5 422 c 128
 224 503 224 503 170.5 569.5 c 128
 117 636 117 636 40 674 c 257
 31 679 31 679 31 691 c 257
 31 699 31 699 35 704 c 128
 39 709 39 709 48 709 c 257
 53 709 53 709 59 706 c 257
 146 666 146 666 203.5 596 c 128
 261 526 261 526 290 438.5 c 128
 319 351 319 351 319 258 c 257
 319 166 319 166 288.5 80.5 c 128
 258 -5 258 -5 199.5 -75 c 128
 141 -145 141 -145 58 -191 c 257
 54 -194 54 -194 48 -194 c 257
EndSplineSet
EndChar

StartChar: braceleft
Encoding: 634 123 634
GlifName: braceleft
Width: 436
VWidth: 0
Flags: W
LayerCount: 2
Fore
SplineSet
369 -200 m 257
 367 -200 367 -200 365.5 -199.5 c 128
 364 -199 364 -199 362 -199 c 257
 282 -181 282 -181 240.5 -154 c 128
 199 -127 199 -127 185 -88.5 c 128
 171 -50 171 -50 171 0 c 257
 171 79 l 257
 171 118 171 118 160.5 154 c 128
 150 190 150 190 124 213 c 128
 98 236 98 236 51 236 c 257
 45 236 l 257
 37 236 37 236 31 242 c 128
 25 248 25 248 25 256 c 257
 25 264 25 264 31 269 c 128
 37 274 37 274 45 274 c 257
 51 274 l 257
 100 274 100 274 126 297 c 128
 152 320 152 320 161.5 356 c 128
 171 392 171 392 171 431 c 257
 171 510 l 257
 171 562 171 562 186 595.5 c 128
 201 629 201 629 227 649.5 c 128
 253 670 253 670 287 683.5 c 128
 321 697 321 697 360 708 c 257
 377 713 377 713 381.5 706 c 128
 386 699 386 699 386 694 c 257
 386 688 386 688 382 683 c 128
 378 678 378 678 370 676 c 257
 303 656 303 656 269 635 c 128
 235 614 235 614 223 583.5 c 128
 211 553 211 553 211 504 c 257
 211 429 l 257
 211 365 211 365 188 315.5 c 128
 165 266 165 266 121 255 c 257
 119 256 l 257
 166 244 166 244 188.5 195 c 128
 211 146 211 146 211 81 c 257
 211 6 l 257
 211 -42 211 -42 222.5 -73.5 c 128
 234 -105 234 -105 268.5 -126 c 128
 303 -147 303 -147 370 -166 c 257
 388 -171 388 -171 385 -189 c 257
 384 -193 384 -193 379.5 -196.5 c 128
 375 -200 375 -200 369 -200 c 257
EndSplineSet
EndChar

StartChar: braceright
Encoding: 635 125 635
GlifName: braceright
Width: 436
VWidth: 0
Flags: W
LayerCount: 2
Fore
SplineSet
68 -200 m 257
 58 -200 58 -200 54 -194.5 c 128
 50 -189 50 -189 50 -184 c 257
 50 -178 50 -178 54.5 -173 c 128
 59 -168 59 -168 66 -166 c 257
 133 -146 133 -146 167 -125 c 128
 201 -104 201 -104 213 -73 c 128
 225 -42 225 -42 225 6 c 257
 225 81 l 257
 225 145 225 145 248.5 195 c 128
 272 245 272 245 315 255 c 257
 317 254 l 257
 271 266 271 266 248 315.5 c 128
 225 365 225 365 225 429 c 257
 225 504 l 257
 225 553 225 553 213.5 584 c 128
 202 615 202 615 168 636.5 c 128
 134 658 134 658 66 676 c 257
 48 681 48 681 51 699 c 257
 53 704 53 704 57 707 c 128
 61 710 61 710 67 710 c 257
 69 710 69 710 71 709.5 c 128
 73 709 73 709 74 709 c 257
 155 692 155 692 196 664.5 c 128
 237 637 237 637 251 598.5 c 128
 265 560 265 560 265 510 c 257
 265 431 l 257
 265 392 265 392 275.5 356 c 128
 286 320 286 320 312 297 c 128
 338 274 338 274 385 274 c 257
 391 274 l 257
 399 274 399 274 405 268 c 128
 411 262 411 262 411 254 c 257
 411 247 411 247 405 241.5 c 128
 399 236 399 236 391 236 c 257
 385 236 l 257
 336 236 336 236 310 213 c 128
 284 190 284 190 274.5 154 c 128
 265 118 265 118 265 79 c 257
 265 0 l 257
 265 -37 265 -37 255.5 -63 c 128
 246 -89 246 -89 224.5 -109.5 c 128
 203 -130 203 -130 166 -150.5 c 128
 129 -171 129 -171 74 -199 c 257
 73 -200 73 -200 71.5 -200 c 128
 70 -200 70 -200 68 -200 c 257
EndSplineSet
EndChar

StartChar: bracketleft
Encoding: 636 91 636
GlifName: bracketleft
Width: 393
VWidth: 0
Flags: W
LayerCount: 2
Fore
SplineSet
100 -190 m 257
 92 -190 92 -190 86 -184 c 128
 80 -178 80 -178 80 -170 c 257
 80 680 l 257
 80 688 80 688 86 694 c 128
 92 700 92 700 100 700 c 257
 333 700 l 257
 341 700 341 700 347 694.5 c 128
 353 689 353 689 353 681 c 257
 353 673 353 673 347 667.5 c 128
 341 662 341 662 333 662 c 257
 110 662 l 257
 120 669 l 257
 120 -163 l 257
 114 -150 l 257
 333 -150 l 257
 341 -150 341 -150 347 -156.5 c 128
 353 -163 353 -163 353 -171 c 257
 353 -178 353 -178 347 -184 c 128
 341 -190 341 -190 333 -190 c 257
 100 -190 l 257
EndSplineSet
EndChar

StartChar: bracketright
Encoding: 637 93 637
GlifName: bracketright
Width: 393
VWidth: 0
Flags: W
LayerCount: 2
Fore
SplineSet
293 700 m 257
 301 700 301 700 307 694 c 128
 313 688 313 688 313 680 c 257
 313 -170 l 257
 313 -178 313 -178 307 -184 c 128
 301 -190 301 -190 293 -190 c 257
 60 -190 l 257
 52 -190 52 -190 46 -184.5 c 128
 40 -179 40 -179 40 -171 c 257
 40 -163 40 -163 46 -157.5 c 128
 52 -152 52 -152 60 -152 c 257
 283 -152 l 257
 273 -159 l 257
 273 673 l 257
 279 660 l 257
 60 660 l 257
 52 660 52 660 46 666.5 c 128
 40 673 40 673 40 681 c 257
 40 689 40 689 46 694.5 c 128
 52 700 52 700 60 700 c 257
 293 700 l 257
EndSplineSet
EndChar

StartChar: quoteleft
Encoding: 648 8216 648
GlifName: quoteleft
Width: 193
VWidth: 0
Flags: W
LayerCount: 2
Fore
SplineSet
40 608 m 257
 40 634 40 634 55 656.5 c 128
 70 679 70 679 91 693.5 c 128
 112 708 112 708 130 708 c 257
 137 708 137 708 142.5 704.5 c 128
 148 701 148 701 148 690 c 257
 148 679 148 679 141 678 c 128
 134 677 134 677 117 669 c 257
 99 660 99 660 89.5 647 c 128
 80 634 80 634 80 618 c 257
 80 605 80 605 86.5 598 c 128
 93 591 93 591 101 591 c 257
 108 591 108 591 115.5 593.5 c 128
 123 596 123 596 127 600 c 257
 132 595 132 595 134 589 c 128
 136 583 136 583 135 577 c 257
 134 565 134 565 120.5 556 c 128
 107 547 107 547 91 547 c 257
 69 547 69 547 54.5 566.5 c 128
 40 586 40 586 40 608 c 257
EndSplineSet
EndChar

StartChar: quoteright
Encoding: 649 8217 649
GlifName: quoteright
Width: 167
VWidth: 0
Flags: W
LayerCount: 2
Fore
SplineSet
126 647 m 257
 126 622 126 622 111 599 c 128
 96 576 96 576 75.5 561.5 c 128
 55 547 55 547 36 547 c 257
 29 547 29 547 23.5 550.5 c 128
 18 554 18 554 18 565 c 257
 18 576 18 576 25.5 577 c 128
 33 578 33 578 49 586 c 257
 67 595 67 595 76.5 608 c 128
 86 621 86 621 86 637 c 257
 86 651 86 651 79.5 657.5 c 128
 73 664 73 664 65 664 c 257
 58 664 58 664 51 661.5 c 128
 44 659 44 659 39 655 c 257
 35 660 35 660 32.5 666 c 128
 30 672 30 672 31 678 c 257
 33 690 33 690 46 699 c 128
 59 708 59 708 75 708 c 257
 97 708 97 708 111.5 688.5 c 128
 126 669 126 669 126 647 c 257
EndSplineSet
EndChar

StartChar: guilsinglleft
Encoding: 652 8249 652
GlifName: guilsinglleft
Width: 273
VWidth: 0
Flags: W
LayerCount: 2
Fore
SplineSet
203 50 m 257
 194 50 194 50 186 59 c 257
 52 238 l 257
 46 246 46 246 46 256 c 257
 46 265 46 265 52 272 c 257
 186 451 l 257
 194 461 194 461 204 461 c 257
 213 461 213 461 219 456 c 128
 225 451 225 451 225 442 c 257
 225 433 225 433 218 426 c 257
 89 249 l 257
 86 265 l 257
 218 87 l 257
 221 83 221 83 223 79.5 c 128
 225 76 225 76 225 72 c 257
 225 60 225 60 217.5 55 c 128
 210 50 210 50 203 50 c 257
EndSplineSet
EndChar

StartChar: guilsinglright
Encoding: 653 8250 653
GlifName: guilsinglright
Width: 273
VWidth: 0
Flags: W
LayerCount: 2
Fore
SplineSet
68 461 m 257
 78 461 78 461 85 452 c 257
 219 273 l 257
 225 266 225 266 225 255 c 257
 225 247 225 247 219 239 c 257
 85 60 l 257
 77 50 77 50 67 50 c 257
 58 50 58 50 52 55 c 128
 46 60 46 60 46 69 c 257
 46 78 46 78 53 85 c 257
 182 262 l 257
 185 246 l 257
 53 424 l 257
 50 428 50 428 48 431.5 c 128
 46 435 46 435 46 439 c 257
 46 451 46 451 53.5 456 c 128
 61 461 61 461 68 461 c 257
EndSplineSet
EndChar

StartChar: quotedbl
Encoding: 654 34 654
GlifName: quotedbl
Width: 367
VWidth: 0
Flags: W
LayerCount: 2
Fore
SplineSet
76 681 m 257
 79 700 79 700 98 700 c 257
 131 700 l 257
 139 700 139 700 140.5 694.5 c 128
 142 689 142 689 140 681 c 257
 78 463 l 257
 74 446 74 446 55 446 c 257
 44 446 44 446 47 467 c 257
 76 681 l 257
256 681 m 257
 259 700 259 700 278 700 c 257
 311 700 l 257
 319 699 319 699 320.5 694 c 128
 322 689 322 689 320 681 c 257
 258 463 l 257
 254 446 254 446 235 446 c 257
 224 446 224 446 227 467 c 257
 256 681 l 257
EndSplineSet
EndChar

StartChar: quotesingle
Encoding: 655 39 655
GlifName: quotesingle
Width: 187
VWidth: 0
Flags: W
LayerCount: 2
Fore
SplineSet
76 681 m 257
 79 700 79 700 98 700 c 257
 131 700 l 257
 139 699 139 699 140.5 694 c 128
 142 689 142 689 140 681 c 257
 78 463 l 257
 74 446 74 446 55 446 c 257
 44 446 44 446 47 467 c 257
 76 681 l 257
EndSplineSet
EndChar

StartChar: florin
Encoding: 660 402 660
GlifName: florin
Width: 600
VWidth: 0
Flags: W
LayerCount: 2
Fore
SplineSet
69 -96 m 257
 47 -96 47 -96 30.5 -90.5 c 128
 14 -85 14 -85 14 -70 c 257
 14 -62 14 -62 19 -57 c 128
 24 -52 24 -52 34 -52 c 257
 42 -52 42 -52 51 -56 c 128
 60 -60 60 -60 69 -60 c 257
 121 -60 121 -60 151 -31 c 128
 181 -2 181 -2 188 44 c 257
 268 508 l 257
 279 576 279 576 318 617.5 c 128
 357 659 357 659 428 659 c 257
 442 659 442 659 451.5 658.5 c 128
 461 658 461 658 469 656 c 257
 478 655 478 655 483 649 c 128
 488 643 488 643 486 633 c 257
 485 626 485 626 479 622.5 c 128
 473 619 473 619 462 620 c 257
 457 621 457 621 450.5 621.5 c 128
 444 622 444 622 436 622 c 257
 381 622 381 622 351 593.5 c 128
 321 565 321 565 313 518 c 257
 234 55 l 257
 222 -13 222 -13 183 -54.5 c 128
 144 -96 144 -96 69 -96 c 257
159 376 m 257
 150 376 150 376 144 381.5 c 128
 138 387 138 387 138 395 c 257
 138 404 138 404 144 409.5 c 128
 150 415 150 415 159 415 c 257
 411 411 l 257
 420 411 420 411 426 405.5 c 128
 432 400 432 400 432 391 c 257
 432 383 432 383 426 377.5 c 128
 420 372 420 372 411 372 c 257
 159 376 l 257
EndSplineSet
EndChar

StartChar: at
Encoding: 661 64 661
GlifName: at
Width: 975
VWidth: 0
Flags: W
LayerCount: 2
Fore
SplineSet
700 55 m 257
 670 55 670 55 649 66 c 128
 628 77 628 77 618 97.5 c 128
 608 118 608 118 611 145 c 257
 620 222 l 257
 634 230 l 257
 612 176 612 176 576 136.5 c 128
 540 97 540 97 497.5 76 c 128
 455 55 455 55 412 55 c 257
 367 55 367 55 334.5 78 c 128
 302 101 302 101 284 138.5 c 128
 266 176 266 176 266 220 c 257
 266 267 266 267 284 317.5 c 128
 302 368 302 368 334.5 412 c 128
 367 456 367 456 411 483 c 128
 455 510 455 510 507 510 c 257
 573 510 573 510 611 470 c 128
 649 430 649 430 658 376 c 257
 641 331 l 257
 664 477 l 257
 666 488 666 488 671 494 c 128
 676 500 676 500 687 500 c 257
 698 500 698 500 702 493.5 c 128
 706 487 706 487 704 472 c 257
 654 156 l 257
 649 122 649 122 665 107 c 128
 681 92 681 92 700 92 c 257
 738 92 738 92 771 118.5 c 128
 804 145 804 145 830 188.5 c 128
 856 232 856 232 870.5 286.5 c 128
 885 341 885 341 885 396 c 257
 885 478 885 478 847 540 c 128
 809 602 809 602 739.5 637 c 128
 670 672 670 672 576 672 c 257
 471 672 471 672 381 640.5 c 128
 291 609 291 609 223.5 548.5 c 128
 156 488 156 488 118 402 c 128
 80 316 80 316 80 206 c 257
 80 145 80 145 99 86 c 128
 118 27 118 27 158 -20.5 c 128
 198 -68 198 -68 261.5 -96 c 128
 325 -124 325 -124 414 -124 c 257
 469 -124 469 -124 507.5 -115.5 c 128
 546 -107 546 -107 576.5 -93 c 128
 607 -79 607 -79 639 -65 c 257
 644 -63 644 -63 651 -63 c 128
 658 -63 658 -63 662 -73 c 257
 669 -90 669 -90 653 -98 c 257
 610 -119 610 -119 554 -140.5 c 128
 498 -162 498 -162 414 -162 c 257
 313 -162 313 -162 242 -130.5 c 128
 171 -99 171 -99 126.5 -46 c 128
 82 7 82 7 61 72.5 c 128
 40 138 40 138 40 206 c 257
 40 323 40 323 81.5 416 c 128
 123 509 123 509 196.5 575 c 128
 270 641 270 641 367 675.5 c 128
 464 710 464 710 576 710 c 257
 690 710 690 710 768 667.5 c 128
 846 625 846 625 885.5 553.5 c 128
 925 482 925 482 925 396 c 257
 925 335 925 335 907.5 274.5 c 128
 890 214 890 214 859.5 164.5 c 128
 829 115 829 115 788 85 c 128
 747 55 747 55 700 55 c 257
414 93 m 257
 452 93 452 93 491.5 113.5 c 128
 531 134 531 134 564.5 169.5 c 128
 598 205 598 205 618.5 249.5 c 128
 639 294 639 294 639 343 c 257
 639 377 639 377 623.5 406.5 c 128
 608 436 608 436 578.5 454 c 128
 549 472 549 472 508 472 c 257
 461 472 461 472 424 448 c 128
 387 424 387 424 361 385.5 c 128
 335 347 335 347 321.5 303.5 c 128
 308 260 308 260 308 222 c 257
 308 161 308 161 340 127 c 128
 372 93 372 93 414 93 c 257
EndSplineSet
EndChar

StartChar: ampersand
Encoding: 662 38 662
GlifName: ampersand
Width: 669
VWidth: 0
Flags: W
LayerCount: 2
Fore
SplineSet
269 -10 m 257
 198 -10 198 -10 144 23.5 c 128
 90 57 90 57 60 110 c 128
 30 163 30 163 30 221 c 257
 30 263 30 263 47.5 303.5 c 128
 65 344 65 344 100.5 377 c 128
 136 410 136 410 191 428 c 257
 222 397 l 257
 142 379 142 379 107 330.5 c 128
 72 282 72 282 72 226 c 257
 72 176 72 176 95 131 c 128
 118 86 118 86 162.5 58 c 128
 207 30 207 30 269 30 c 257
 340 30 340 30 390 51 c 128
 440 72 440 72 473 108 c 128
 506 144 506 144 526 188.5 c 128
 546 233 546 233 555 279 c 257
 557 287 557 287 562.5 291.5 c 128
 568 296 568 296 576 296 c 257
 585 296 585 296 591 289.5 c 128
 597 283 597 283 595 273 c 257
 587 221 587 221 563 170.5 c 128
 539 120 539 120 499 79 c 128
 459 38 459 38 401.5 14 c 128
 344 -10 344 -10 269 -10 c 257
624 4 m 257
 621 4 621 4 618 5.5 c 128
 615 7 615 7 612 8 c 257
 554 51 554 51 498.5 93 c 128
 443 135 443 135 385.5 188 c 128
 328 241 328 241 262 316 c 257
 227 356 227 356 199 396.5 c 128
 171 437 171 437 154.5 476.5 c 128
 138 516 138 516 138 553 c 257
 138 599 138 599 159.5 634.5 c 128
 181 670 181 670 221 690 c 128
 261 710 261 710 316 710 c 257
 389 710 389 710 433 681.5 c 128
 477 653 477 653 496 616 c 257
 497 615 497 615 498.5 611.5 c 128
 500 608 500 608 500 604 c 257
 500 599 500 599 494.5 592.5 c 128
 489 586 489 586 480 586 c 257
 475 586 475 586 470.5 588.5 c 128
 466 591 466 591 463 595 c 257
 444 625 444 625 410.5 647.5 c 128
 377 670 377 670 316 670 c 257
 249 670 249 670 214.5 637.5 c 128
 180 605 180 605 180 551 c 257
 180 521 180 521 195 485 c 128
 210 449 210 449 236 411 c 128
 262 373 262 373 295 336 c 257
 338 287 338 287 384 243 c 128
 430 199 430 199 475 161.5 c 128
 520 124 520 124 561 94 c 128
 602 64 602 64 635 41 c 257
 640 38 640 38 642 34 c 128
 644 30 644 30 644 25 c 257
 644 18 644 18 638.5 11 c 128
 633 4 633 4 624 4 c 257
EndSplineSet
EndChar

StartChar: paragraph
Encoding: 663 182 663
GlifName: paragraph
Width: 620
VWidth: 0
Flags: W
LayerCount: 2
Fore
SplineSet
500 0 m 257
 490 0 490 0 485 6.5 c 128
 480 13 480 13 480 23 c 257
 480 671 l 257
 499 660 l 257
 361 660 l 257
 378 671 l 257
 378 55 l 257
 378 24 378 24 364.5 -2 c 128
 351 -28 351 -28 325.5 -43.5 c 128
 300 -59 300 -59 265 -59 c 257
 231 -59 231 -59 206.5 -46 c 128
 182 -33 182 -33 182 -17 c 257
 182 -9 182 -9 188 -2.5 c 128
 194 4 194 4 204 4 c 257
 211 4 211 4 216.5 1 c 128
 222 -2 222 -2 228 -7 c 257
 235 -12 235 -12 243.5 -16.5 c 128
 252 -21 252 -21 265 -21 c 257
 297 -21 297 -21 317.5 2 c 128
 338 25 338 25 338 56 c 257
 338 291 l 257
 355 264 l 257
 313 264 l 257
 217 266 217 266 159 288 c 128
 101 310 101 310 75.5 358.5 c 128
 50 407 50 407 50 487 c 257
 50 571 50 571 77.5 617 c 128
 105 663 105 663 167 681.5 c 128
 229 700 229 700 334 700 c 257
 500 700 l 257
 508 700 508 700 514 694 c 128
 520 688 520 688 520 680 c 257
 520 23 l 257
 520 13 520 13 515 6.5 c 128
 510 0 510 0 500 0 c 257
EndSplineSet
EndChar

StartChar: section
Encoding: 664 167 664
GlifName: section
Width: 524
VWidth: 0
Flags: W
LayerCount: 2
Fore
SplineSet
474 279 m 257
 474 231 474 231 436 192 c 128
 398 153 398 153 327 145 c 257
 324 158 l 257
 382 129 382 129 409 99 c 128
 436 69 436 69 436 22 c 257
 436 -20 436 -20 421.5 -50.5 c 128
 407 -81 407 -81 381.5 -100.5 c 128
 356 -120 356 -120 323.5 -129.5 c 128
 291 -139 291 -139 254 -139 c 257
 209 -139 209 -139 170.5 -125.5 c 128
 132 -112 132 -112 103.5 -93.5 c 128
 75 -75 75 -75 59 -60 c 257
 55 -56 55 -56 52 -51.5 c 128
 49 -47 49 -47 49 -41 c 257
 49 -34 49 -34 54.5 -28 c 128
 60 -22 60 -22 68 -22 c 257
 71 -22 71 -22 75 -23 c 128
 79 -24 79 -24 82 -27 c 257
 96 -41 96 -41 120.5 -58 c 128
 145 -75 145 -75 178 -87 c 128
 211 -99 211 -99 252 -99 c 257
 268 -99 268 -99 292 -95.5 c 128
 316 -92 316 -92 340 -80.5 c 128
 364 -69 364 -69 380 -44.5 c 128
 396 -20 396 -20 396 22 c 257
 396 51 396 51 376.5 74 c 128
 357 97 357 97 321.5 115 c 128
 286 133 286 133 236 148 c 257
 159 171 159 171 112.5 206 c 128
 66 241 66 241 66 305 c 257
 66 329 66 329 75 351.5 c 128
 84 374 84 374 101.5 393 c 128
 119 412 119 412 147 425 c 128
 175 438 175 438 212 443 c 257
 210 430 l 257
 159 450 159 450 133.5 485 c 128
 108 520 108 520 108 562 c 257
 108 603 108 603 125.5 630.5 c 128
 143 658 143 658 170 674.5 c 128
 197 691 197 691 227 698 c 128
 257 705 257 705 282 705 c 257
 332 705 332 705 367 688 c 128
 402 671 402 671 426 651 c 257
 435 644 435 644 435 636 c 257
 435 629 435 629 430.5 622 c 128
 426 615 426 615 416 615 c 257
 408 615 408 615 403 619 c 257
 381 636 381 636 352 650.5 c 128
 323 665 323 665 282 665 c 257
 252 665 252 665 221 655 c 128
 190 645 190 645 169 622.5 c 128
 148 600 148 600 148 562 c 257
 148 529 148 529 166.5 506 c 128
 185 483 185 483 212 469 c 128
 239 455 239 455 264.5 447 c 128
 290 439 290 439 304 435 c 257
 383 411 383 411 428.5 377.5 c 128
 474 344 474 344 474 279 c 257
244 188 m 257
 304 176 l 257
 345 176 345 176 374 191.5 c 128
 403 207 403 207 418.5 230.5 c 128
 434 254 434 254 434 279 c 257
 434 323 434 323 400.5 348 c 128
 367 373 367 373 296 395 c 257
 224 410 l 257
 193 410 193 410 166 395.5 c 128
 139 381 139 381 122.5 357.5 c 128
 106 334 106 334 106 307 c 257
 106 267 106 267 138.5 239 c 128
 171 211 171 211 244 188 c 257
EndSplineSet
EndChar

StartChar: copyright
Encoding: 665 169 665
GlifName: copyright
Width: 800
VWidth: 0
Flags: W
LayerCount: 2
Fore
SplineSet
400 0 m 257
 328 0 328 0 264.5 26 c 128
 201 52 201 52 152.5 98.5 c 128
 104 145 104 145 77 209.5 c 128
 50 274 50 274 50 350 c 257
 50 427 50 427 77 491 c 128
 104 555 104 555 152.5 601.5 c 128
 201 648 201 648 264.5 674 c 128
 328 700 328 700 400 700 c 257
 472 700 472 700 535.5 674 c 128
 599 648 599 648 647 601.5 c 128
 695 555 695 555 722.5 491 c 128
 750 427 750 427 750 350 c 257
 750 274 750 274 722.5 209.5 c 128
 695 145 695 145 647 98.5 c 128
 599 52 599 52 535.5 26 c 128
 472 0 472 0 400 0 c 257
400 38 m 257
 464 38 464 38 520 61 c 128
 576 84 576 84 619 125.5 c 128
 662 167 662 167 686 224 c 128
 710 281 710 281 710 350 c 257
 710 418 710 418 686 475 c 128
 662 532 662 532 619 574 c 128
 576 616 576 616 520 639 c 128
 464 662 464 662 400 662 c 257
 336 662 336 662 280 639 c 128
 224 616 224 616 181 574 c 128
 138 532 138 532 114 475 c 128
 90 418 90 418 90 350 c 257
 90 281 90 281 114 224 c 128
 138 167 138 167 181 125.5 c 128
 224 84 224 84 280 61 c 128
 336 38 336 38 400 38 c 257
419 158 m 257
 357 158 357 158 313 184 c 128
 269 210 269 210 245.5 253.5 c 128
 222 297 222 297 222 350 c 257
 222 403 222 403 245.5 446.5 c 128
 269 490 269 490 313 515.5 c 128
 357 541 357 541 419 541 c 257
 486 541 486 541 538 505 c 257
 544 501 544 501 545.5 492.5 c 128
 547 484 547 484 542 477 c 257
 538 470 538 470 530 469.5 c 128
 522 469 522 469 515 473 c 257
 494 487 494 487 470 495 c 128
 446 503 446 503 419 503 c 257
 369 503 369 503 333.5 483 c 128
 298 463 298 463 280 428.5 c 128
 262 394 262 394 262 350 c 257
 262 306 262 306 280 271 c 128
 298 236 298 236 333 216 c 128
 368 196 368 196 419 196 c 257
 446 196 446 196 470 204.5 c 128
 494 213 494 213 516 226 c 257
 522 230 522 230 530 229 c 128
 538 228 538 228 542 221 c 257
 547 216 547 216 546 207.5 c 128
 545 199 545 199 538 193 c 257
 513 177 513 177 482 167.5 c 128
 451 158 451 158 419 158 c 257
EndSplineSet
EndChar

StartChar: registered
Encoding: 666 174 666
GlifName: registered
Width: 548
VWidth: 0
Flags: W
LayerCount: 2
Fore
SplineSet
216 363 m 257
 209 363 209 363 203 368 c 128
 197 373 197 373 197 379 c 257
 197 587 l 257
 197 592 197 592 201.5 597 c 128
 206 602 206 602 212 602 c 257
 281 602 l 257
 322 602 322 602 344 587 c 128
 366 572 366 572 366 536 c 257
 366 508 366 508 349 493.5 c 128
 332 479 332 479 300 474 c 257
 297 483 l 257
 314 482 314 482 330.5 464 c 128
 347 446 347 446 347 420 c 257
 347 404 347 404 350 398 c 128
 353 392 353 392 360 390 c 257
 366 389 366 389 368 386 c 128
 370 383 370 383 370 379 c 257
 370 370 370 370 361.5 365 c 128
 353 360 353 360 341 360 c 257
 328 360 328 360 318 374.5 c 128
 308 389 308 389 308 417 c 257
 308 434 308 434 299.5 446 c 128
 291 458 291 458 274 458 c 257
 225 458 l 257
 235 468 l 257
 235 379 l 257
 235 373 235 373 229.5 368 c 128
 224 363 224 363 216 363 c 257
276 494 m 257
 298 494 298 494 313 503.5 c 128
 328 513 328 513 328 532 c 257
 328 553 328 553 315.5 559.5 c 128
 303 566 303 566 281 566 c 257
 218 566 l 257
 235 579 l 257
 235 486 l 257
 224 494 l 257
 276 494 l 257
274 258 m 257
 213 258 213 258 162 287 c 128
 111 316 111 316 80.5 366.5 c 128
 50 417 50 417 50 482 c 257
 50 547 50 547 80.5 597.5 c 128
 111 648 111 648 162 677 c 128
 213 706 213 706 274 706 c 257
 336 706 336 706 386.5 677 c 128
 437 648 437 648 467.5 597.5 c 128
 498 547 498 547 498 482 c 257
 498 417 498 417 467.5 366.5 c 128
 437 316 437 316 386.5 287 c 128
 336 258 336 258 274 258 c 257
274 296 m 257
 326 296 326 296 367 319.5 c 128
 408 343 408 343 432 385 c 128
 456 427 456 427 456 482 c 257
 456 538 456 538 432 579.5 c 128
 408 621 408 621 367 644.5 c 128
 326 668 326 668 274 668 c 257
 222 668 222 668 180.5 644.5 c 128
 139 621 139 621 114.5 579.5 c 128
 90 538 90 538 90 482 c 257
 90 427 90 427 114.5 385 c 128
 139 343 139 343 180.5 319.5 c 128
 222 296 222 296 274 296 c 257
EndSplineSet
EndChar

StartChar: trademark
Encoding: 667 8482 667
GlifName: trademark
Width: 835
VWidth: 0
Flags: W
LayerCount: 2
Fore
SplineSet
70 664 m 257
 62 664 62 664 56 669.5 c 128
 50 675 50 675 50 682 c 257
 50 690 50 690 56 695 c 128
 62 700 62 700 70 700 c 257
 305 700 l 257
 313 700 313 700 319 695 c 128
 325 690 325 690 325 682 c 257
 325 675 325 675 319 669.5 c 128
 313 664 313 664 305 664 c 257
 70 664 l 257
183 350 m 257
 174 350 174 350 169 356 c 128
 164 362 164 362 164 370 c 257
 164 676 l 257
 202 676 l 257
 202 370 l 257
 202 362 202 362 196.5 356 c 128
 191 350 191 350 183 350 c 257
415 700 m 257
 420 700 420 700 425 698 c 128
 430 696 430 696 434 691 c 257
 570 452 l 257
 550 452 l 257
 698 691 l 257
 702 696 702 696 707 698.5 c 128
 712 701 712 701 717 700 c 257
 725 699 725 699 730 693.5 c 128
 735 688 735 688 735 680 c 257
 735 360 l 257
 735 352 735 352 729 346 c 128
 723 340 723 340 715 340 c 257
 706 340 706 340 700.5 346 c 128
 695 352 695 352 695 360 c 257
 695 635 l 257
 704 635 l 257
 574 418 l 257
 572 414 572 414 568.5 412 c 128
 565 410 565 410 560 410 c 257
 555 410 555 410 550.5 412 c 128
 546 414 546 414 544 418 c 257
 420 643 l 257
 434 643 l 257
 434 360 l 257
 433 352 433 352 428 346 c 128
 423 340 423 340 415 340 c 257
 406 340 406 340 401 346 c 128
 396 352 396 352 396 360 c 257
 396 680 l 257
 396 687 396 687 401 693.5 c 128
 406 700 406 700 415 700 c 257
EndSplineSet
EndChar

StartChar: degree
Encoding: 668 176 668
GlifName: degree
Width: 312
VWidth: 0
Flags: W
LayerCount: 2
Fore
SplineSet
156 432 m 257
 119 432 119 432 89.5 451 c 128
 60 470 60 470 42.5 501 c 128
 25 532 25 532 25 568 c 257
 25 606 25 606 42.5 637 c 128
 60 668 60 668 89.5 687 c 128
 119 706 119 706 156 706 c 257
 194 706 194 706 223.5 687 c 128
 253 668 253 668 270 637.5 c 128
 287 607 287 607 287 570 c 257
 287 533 287 533 269.5 501.5 c 128
 252 470 252 470 222.5 451 c 128
 193 432 193 432 156 432 c 257
156 470 m 257
 195 470 195 470 221 500 c 128
 247 530 247 530 247 570 c 257
 247 608 247 608 221 638 c 128
 195 668 195 668 156 668 c 257
 117 668 117 668 91 638 c 128
 65 608 65 608 65 568 c 257
 65 530 65 530 91 500 c 128
 117 470 117 470 156 470 c 257
EndSplineSet
EndChar

StartChar: bar
Encoding: 670 124 670
GlifName: bar
Width: 190
VWidth: 0
Flags: W
LayerCount: 2
Fore
SplineSet
115 -180 m 257
 115 -188 115 -188 109.5 -194 c 128
 104 -200 104 -200 95 -200 c 257
 86 -200 86 -200 80.5 -194 c 128
 75 -188 75 -188 75 -180 c 257
 75 760 l 257
 75 768 75 768 80.5 774 c 128
 86 780 86 780 95 780 c 257
 104 780 104 780 109.5 774 c 128
 115 768 115 768 115 760 c 257
 115 -180 l 257
EndSplineSet
EndChar

StartChar: brokenbar
Encoding: 671 166 671
GlifName: brokenbar
Width: 191
VWidth: 0
Flags: W
LayerCount: 2
Fore
SplineSet
116 390 m 257
 116 382 116 382 110.5 376 c 128
 105 370 105 370 96 370 c 257
 87 370 87 370 81.5 376 c 128
 76 382 76 382 76 390 c 257
 76 760 l 257
 76 768 76 768 81.5 774 c 128
 87 780 87 780 96 780 c 257
 105 780 105 780 110.5 774 c 128
 116 768 116 768 116 760 c 257
 116 390 l 257
115 -180 m 257
 115 -188 115 -188 109.5 -194 c 128
 104 -200 104 -200 95 -200 c 257
 86 -200 86 -200 80.5 -194 c 128
 75 -188 75 -188 75 -180 c 257
 75 190 l 257
 75 198 75 198 80.5 204 c 128
 86 210 86 210 95 210 c 257
 104 210 104 210 109.5 204 c 128
 115 198 115 198 115 190 c 257
 115 -180 l 257
EndSplineSet
EndChar

StartChar: dagger
Encoding: 672 8224 672
GlifName: dagger
Width: 384
VWidth: 0
Flags: W
LayerCount: 2
Fore
SplineSet
172 682 m 257
 172 690 172 690 177 695 c 128
 182 700 182 700 192 700 c 257
 202 700 202 700 207 695 c 128
 212 690 212 690 212 682 c 257
 212 198 l 257
 213 190 213 190 207.5 185 c 128
 202 180 202 180 192 180 c 257
 182 180 182 180 176.5 185 c 128
 171 190 171 190 172 198 c 257
 172 682 l 257
70 505 m 257
 61 505 61 505 55.5 510.5 c 128
 50 516 50 516 50 525 c 257
 50 535 50 535 55.5 540 c 128
 61 545 61 545 70 545 c 257
 314 545 l 257
 323 545 323 545 328.5 539.5 c 128
 334 534 334 534 334 525 c 257
 334 515 334 515 328.5 510 c 128
 323 505 323 505 314 505 c 257
 70 505 l 257
EndSplineSet
EndChar

StartChar: uni2113
Encoding: 673 8467 673
GlifName: uni2113
Width: 456
VWidth: 0
Flags: W
LayerCount: 2
Fore
SplineSet
275 -10 m 257
 206 -10 206 -10 172 29.5 c 128
 138 69 138 69 138 142 c 257
 138 210 l 257
 138 217 138 217 132 213 c 257
 119 204 119 204 107.5 196.5 c 128
 96 189 96 189 86 183 c 257
 78 179 78 179 70 181.5 c 128
 62 184 62 184 57 193 c 257
 53 202 53 202 55.5 210 c 128
 58 218 58 218 64 222 c 257
 80 231 80 231 98 242.5 c 128
 116 254 116 254 135 268 c 257
 138 270 138 270 138 274 c 257
 138 338 138 338 138 402 c 128
 138 466 138 466 138 530 c 257
 138 567 138 567 149.5 601 c 128
 161 635 161 635 188.5 656.5 c 128
 216 678 216 678 263 678 c 257
 322 678 322 678 351 642 c 128
 380 606 380 606 380 554 c 257
 380 502 380 502 351 446.5 c 128
 322 391 322 391 277.5 341 c 128
 233 291 233 291 185 252 c 257
 182 249 182 249 182 246 c 257
 182 142 l 257
 182 91 182 91 206 60.5 c 128
 230 30 230 30 278 30 c 257
 304 30 304 30 324.5 41.5 c 128
 345 53 345 53 359 67 c 257
 365 73 365 73 372 74 c 128
 379 75 379 75 386 70 c 257
 394 63 394 63 394.5 55.5 c 128
 395 48 395 48 390 41 c 257
 373 22 373 22 345 6 c 128
 317 -10 317 -10 275 -10 c 257
188 309 m 257
 225 341 225 341 259 382 c 128
 293 423 293 423 314.5 467 c 128
 336 511 336 511 336 554 c 257
 336 587 336 587 318.5 612.5 c 128
 301 638 301 638 263 638 c 257
 231 638 231 638 213 621 c 128
 195 604 195 604 188.5 579 c 128
 182 554 182 554 182 530 c 257
 182 312 l 257
 182 305 182 305 188 309 c 257
EndSplineSet
EndChar

StartChar: daggerdbl
Encoding: 674 8225 674
GlifName: daggerdbl
Width: 384
VWidth: 0
Flags: W
LayerCount: 2
Fore
SplineSet
172 682 m 257
 172 690 172 690 177 695 c 128
 182 700 182 700 192 700 c 257
 202 700 202 700 207 695 c 128
 212 690 212 690 212 682 c 257
 212 198 l 257
 213 190 213 190 207.5 185 c 128
 202 180 202 180 192 180 c 257
 182 180 182 180 176.5 185 c 128
 171 190 171 190 172 198 c 257
 172 682 l 257
70 505 m 257
 61 505 61 505 55.5 510.5 c 128
 50 516 50 516 50 525 c 257
 50 535 50 535 55.5 540 c 128
 61 545 61 545 70 545 c 257
 314 545 l 257
 323 545 323 545 328.5 539.5 c 128
 334 534 334 534 334 525 c 257
 334 515 334 515 328.5 510 c 128
 323 505 323 505 314 505 c 257
 70 505 l 257
70 355 m 257
 61 355 61 355 55.5 360.5 c 128
 50 366 50 366 50 375 c 257
 50 385 50 385 55.5 390 c 128
 61 395 61 395 70 395 c 257
 314 395 l 257
 323 395 323 395 328.5 389.5 c 128
 334 384 334 384 334 375 c 257
 334 365 334 365 328.5 360 c 128
 323 355 323 355 314 355 c 257
 70 355 l 257
EndSplineSet
EndChar

StartChar: estimated
Encoding: 675 8494 675
GlifName: estimated
Width: 600
VWidth: 0
Flags: W
LayerCount: 2
Fore
SplineSet
318 -12 m 257
 237 -12 237 -12 177.5 26 c 128
 118 64 118 64 85 129 c 128
 52 194 52 194 52 273 c 257
 52 353 52 353 85 417.5 c 128
 118 482 118 482 177.5 520 c 128
 237 558 237 558 318 558 c 257
 394 558 394 558 452.5 524.5 c 128
 511 491 511 491 545.5 431.5 c 128
 580 372 580 372 584 294 c 257
 584 290 584 290 580.5 281.5 c 128
 577 273 577 273 564 273 c 257
 140 273 l 257
 148 278 l 257
 148 100 l 257
 148 99 148 99 148.5 98.5 c 130
 149 98 l 257
 180 61 180 61 226.5 43 c 128
 273 25 273 25 318 25 c 257
 379 25 379 25 430 50.5 c 128
 481 76 481 76 517 140 c 257
 522 148 522 148 530 148 c 257
 541 148 541 148 545.5 142.5 c 128
 550 137 550 137 550 130 c 257
 550 122 550 122 544 114 c 257
 499 47 499 47 447 17.5 c 128
 395 -12 395 -12 318 -12 c 257
500 311 m 257
 489 305 l 257
 489 448 l 257
 489 449 489 449 488.5 450 c 130
 488 451 l 257
 455 489 455 489 408 504.5 c 128
 361 520 361 520 317 520 c 257
 273 520 273 520 226.5 504 c 128
 180 488 180 488 149 451 c 257
 148 450 148 450 148 449 c 257
 148 298 l 257
 140 311 l 257
 500 311 l 257
EndSplineSet
EndChar

StartChar: uni2116
Encoding: 676 8470 676
GlifName: uni2116
Width: 1197
VWidth: 0
Flags: W
LayerCount: 2
Fore
SplineSet
1137 482 m 257
 1137 420 1137 420 1110 369.5 c 128
 1083 319 1083 319 1036.5 289.5 c 128
 990 260 990 260 931 260 c 257
 873 260 873 260 826 289.5 c 128
 779 319 779 319 751.5 369.5 c 128
 724 420 724 420 724 482 c 257
 724 545 724 545 751.5 595.5 c 128
 779 646 779 646 826 675.5 c 128
 873 705 873 705 931 705 c 257
 990 705 990 705 1036.5 675.5 c 128
 1083 646 1083 646 1110 595.5 c 128
 1137 545 1137 545 1137 482 c 257
1097 482 m 257
 1097 535 1097 535 1075.5 576.5 c 128
 1054 618 1054 618 1016.5 642.5 c 128
 979 667 979 667 931 667 c 257
 884 667 884 667 846 642.5 c 128
 808 618 808 618 786 576.5 c 128
 764 535 764 535 764 482 c 257
 764 430 764 430 786 388.5 c 128
 808 347 808 347 846 322.5 c 128
 884 298 884 298 931 298 c 257
 979 298 979 298 1016.5 322.5 c 128
 1054 347 1054 347 1075.5 388.5 c 128
 1097 430 1097 430 1097 482 c 257
118 700 m 257
 122 700 122 700 126 698.5 c 128
 130 697 130 697 133 693 c 257
 595 63 l 257
 587 43 l 257
 587 681 l 257
 587 689 587 689 593 694.5 c 128
 599 700 599 700 606 700 c 257
 615 700 615 700 620 694.5 c 128
 625 689 625 689 625 681 c 257
 625 22 l 257
 625 11 625 11 618.5 5.5 c 128
 612 0 612 0 604 0 c 257
 600 0 600 0 595.5 2 c 128
 591 4 591 4 588 8 c 257
 124 642 l 257
 138 649 l 257
 138 17 l 257
 138 10 138 10 132.5 5 c 128
 127 0 127 0 119 0 c 257
 110 0 110 0 105 5 c 128
 100 10 100 10 100 17 c 257
 100 680 l 257
 100 691 100 691 106 695.5 c 128
 112 700 112 700 118 700 c 257
770 149 m 257
 761 149 761 149 755 154 c 128
 749 159 749 159 749 168 c 257
 749 178 749 178 755 182.5 c 128
 761 187 761 187 770 187 c 257
 1096 187 l 257
 1105 187 1105 187 1111 181.5 c 128
 1117 176 1117 176 1117 168 c 257
 1117 159 1117 159 1111 154 c 128
 1105 149 1105 149 1096 149 c 257
 770 149 l 257
EndSplineSet
EndChar

StartChar: uni20B5
Encoding: 678 8373 678
GlifName: uni20B5
Width: 662
VWidth: 0
Flags: W
LayerCount: 2
Fore
SplineSet
425 -140 m 257
 425 -148 425 -148 419.5 -154 c 128
 414 -160 414 -160 405 -160 c 257
 396 -160 396 -160 390.5 -154 c 128
 385 -148 385 -148 385 -140 c 257
 385 -4 l 257
 385 17 l 257
 385 681 l 257
 385 699 l 257
 385 800 l 257
 385 808 385 808 390.5 814 c 128
 396 820 396 820 405 820 c 257
 414 820 414 820 419.5 814 c 128
 425 808 425 808 425 800 c 257
 425 692 l 257
 425 680 l 257
 425 18 l 257
 425 -1 l 257
 425 -140 l 257
618 642 m 257
 626 636 626 636 627 628.5 c 128
 628 621 628 621 623 613 c 257
 618 606 618 606 610.5 605.5 c 128
 603 605 603 605 596 609 c 257
 554 638 554 638 504.5 655 c 128
 455 672 455 672 399 672 c 257
 335 672 335 672 279.5 648.5 c 128
 224 625 224 625 182 582 c 128
 140 539 140 539 116 480 c 128
 92 421 92 421 92 350 c 257
 92 279 92 279 116 220 c 128
 140 161 140 161 182 118 c 128
 224 75 224 75 279.5 51.5 c 128
 335 28 335 28 399 28 c 257
 455 28 455 28 504 45 c 128
 553 62 553 62 595 90 c 257
 602 95 602 95 610 94 c 128
 618 93 618 93 623 86 c 257
 628 79 628 79 627 71 c 128
 626 63 626 63 619 58 c 257
 595 41 595 41 558.5 25 c 128
 522 9 522 9 481 -0.5 c 128
 440 -10 440 -10 399 -10 c 257
 327 -10 327 -10 264 17 c 128
 201 44 201 44 153 92.5 c 128
 105 141 105 141 77.5 206.5 c 128
 50 272 50 272 50 350 c 257
 50 428 50 428 77.5 493.5 c 128
 105 559 105 559 153 607.5 c 128
 201 656 201 656 264 683 c 128
 327 710 327 710 399 710 c 257
 460 710 460 710 516.5 692 c 128
 573 674 573 674 618 642 c 257
EndSplineSet
EndChar

StartChar: cent
Encoding: 679 162 679
GlifName: cent
Width: 513
VWidth: 0
Flags: W
LayerCount: 2
Fore
SplineSet
307 20 m 257
 307 12 307 12 301.5 6 c 128
 296 0 296 0 287 0 c 257
 278 0 278 0 272.5 6 c 128
 267 12 267 12 267 20 c 257
 267 96 l 257
 267 115 l 257
 267 578 l 257
 267 592 l 257
 267 665 l 257
 267 673 267 673 272.5 679 c 128
 278 685 278 685 287 685 c 257
 296 685 296 685 301.5 679 c 128
 307 673 307 673 307 665 c 257
 307 596 l 257
 307 582 l 257
 307 103 l 257
 307 92 l 257
 307 20 l 257
296 80 m 257
 223 80 223 80 167 114.5 c 128
 111 149 111 149 79.5 208.5 c 128
 48 268 48 268 48 343 c 257
 48 413 48 413 79.5 472.5 c 128
 111 532 111 532 167.5 568.5 c 128
 224 605 224 605 300 605 c 257
 345 605 345 605 384.5 595 c 128
 424 585 424 585 448.5 568.5 c 128
 473 552 473 552 473 534 c 257
 473 527 473 527 467.5 520.5 c 128
 462 514 462 514 454 514 c 257
 443 514 443 514 436.5 520 c 128
 430 526 430 526 423 534.5 c 128
 416 543 416 543 401 550 c 257
 387 557 387 557 361.5 562 c 128
 336 567 336 567 299 567 c 257
 241 567 241 567 193 537 c 128
 145 507 145 507 116.5 456.5 c 128
 88 406 88 406 88 343 c 257
 88 279 88 279 114.5 228 c 128
 141 177 141 177 188.5 147.5 c 128
 236 118 236 118 299 118 c 257
 344 118 344 118 367.5 126.5 c 128
 391 135 391 135 408 145 c 257
 429 157 429 157 437 168 c 128
 445 179 445 179 456 179 c 257
 464 179 464 179 468.5 174 c 128
 473 169 473 169 473 161 c 257
 473 149 473 149 451 129.5 c 128
 429 110 429 110 389.5 95 c 128
 350 80 350 80 296 80 c 257
EndSplineSet
EndChar

StartChar: colonmonetary
Encoding: 680 8353 680
GlifName: colonmonetary
Width: 662
VWidth: 0
Flags: W
LayerCount: 2
Fore
SplineSet
66 -111 m 257
 55 -111 55 -111 50.5 -104 c 128
 46 -97 46 -97 46 -89 c 257
 46 -82 46 -82 49 -78 c 257
 485 776 l 257
 492 790 492 790 498 794 c 128
 504 798 504 798 514 798 c 257
 521 798 521 798 526.5 793 c 128
 532 788 532 788 532 779 c 257
 532 771 532 771 528 763 c 257
 92 -92 l 257
 86 -103 86 -103 80 -107 c 128
 74 -111 74 -111 66 -111 c 257
216 -150 m 257
 206 -150 206 -150 201 -143 c 128
 196 -136 196 -136 196 -129 c 257
 196 -121 196 -121 199 -117 c 257
 644 754 l 257
 651 768 651 768 657 772 c 128
 663 776 663 776 673 776 c 257
 680 776 680 776 685.5 771.5 c 128
 691 767 691 767 691 758 c 257
 691 749 691 749 687 741 c 257
 242 -131 l 257
 236 -142 236 -142 230 -146 c 128
 224 -150 224 -150 216 -150 c 257
618 642 m 257
 626 636 626 636 627 628.5 c 128
 628 621 628 621 623 613 c 257
 618 606 618 606 610.5 605.5 c 128
 603 605 603 605 596 609 c 257
 554 638 554 638 504.5 655 c 128
 455 672 455 672 399 672 c 257
 335 672 335 672 279.5 648.5 c 128
 224 625 224 625 182 582 c 128
 140 539 140 539 116 480 c 128
 92 421 92 421 92 350 c 257
 92 279 92 279 116 220 c 128
 140 161 140 161 182 118 c 128
 224 75 224 75 279.5 51.5 c 128
 335 28 335 28 399 28 c 257
 455 28 455 28 504 45 c 128
 553 62 553 62 595 90 c 257
 602 95 602 95 610 94 c 128
 618 93 618 93 623 86 c 257
 628 79 628 79 627 71 c 128
 626 63 626 63 619 58 c 257
 595 41 595 41 558.5 25 c 128
 522 9 522 9 481 -0.5 c 128
 440 -10 440 -10 399 -10 c 257
 327 -10 327 -10 264 17 c 128
 201 44 201 44 153 92.5 c 128
 105 141 105 141 77.5 206.5 c 128
 50 272 50 272 50 350 c 257
 50 428 50 428 77.5 493.5 c 128
 105 559 105 559 153 607.5 c 128
 201 656 201 656 264 683 c 128
 327 710 327 710 399 710 c 257
 460 710 460 710 516.5 692 c 128
 573 674 573 674 618 642 c 257
EndSplineSet
EndChar

StartChar: currency
Encoding: 681 164 681
GlifName: currency
Width: 464
VWidth: 0
Flags: W
LayerCount: 2
Fore
SplineSet
68 467 m 257
 75 467 75 467 81 461 c 257
 141 408 l 257
 135 401 l 130
 129 394 129 394 123 387 c 130
 117 380 l 257
 57 435 l 257
 50 442 50 442 50 448 c 257
 50 453 50 453 52.5 457 c 128
 55 461 55 461 59.5 464 c 128
 64 467 64 467 68 467 c 257
396 467 m 257
 400 467 400 467 404 464 c 128
 408 461 408 461 411 457 c 128
 414 453 414 453 414 448 c 257
 414 442 414 442 407 435 c 257
 348 382 l 257
 342.5 389 l 130
 337 396 337 396 331.5 402.5 c 130
 326 409 l 257
 383 461 l 257
 389 467 389 467 396 467 c 257
396 131 m 257
 389 131 389 131 383 137 c 257
 326 189 l 257
 332 196 l 130
 338 203 338 203 344 209.5 c 130
 350 216 l 257
 407 163 l 257
 414 156 414 156 414 150 c 257
 414 146 414 146 411.5 141.5 c 128
 409 137 409 137 405 134 c 128
 401 131 401 131 396 131 c 257
68 131 m 257
 64 131 64 131 60 134 c 128
 56 137 56 137 53 141.5 c 128
 50 146 50 146 50 150 c 257
 50 156 50 156 57 163 c 257
 118 220 l 257
 124.5 213.5 l 130
 131 207 131 207 137 200 c 130
 143 193 l 257
 81 137 l 257
 75 131 75 131 68 131 c 257
232 144 m 257
 191 144 191 144 157 165 c 128
 123 186 123 186 103 221 c 128
 83 256 83 256 83 299 c 257
 83 342 83 342 103 377 c 128
 123 412 123 412 157 433 c 128
 191 454 191 454 232 454 c 257
 274 454 274 454 308 433 c 128
 342 412 342 412 362 377 c 128
 382 342 382 342 382 299 c 257
 382 256 382 256 362 221 c 128
 342 186 342 186 308 165 c 128
 274 144 274 144 232 144 c 257
232 174 m 257
 264 174 264 174 290 190.5 c 128
 316 207 316 207 331.5 235.5 c 128
 347 264 347 264 347 298 c 257
 347 333 347 333 331.5 361 c 128
 316 389 316 389 290 406 c 128
 264 423 264 423 232 423 c 257
 201 423 201 423 175 406 c 128
 149 389 149 389 133.5 361 c 128
 118 333 118 333 118 298 c 257
 118 264 118 264 133.5 235.5 c 128
 149 207 149 207 175 190.5 c 128
 201 174 201 174 232 174 c 257
EndSplineSet
EndChar

StartChar: dong
Encoding: 683 8363 683
GlifName: dong
Width: 447
VWidth: 0
Flags: W
LayerCount: 2
Fore
SplineSet
202 111 m 257
 156 111 156 111 119.5 135.5 c 128
 83 160 83 160 61.5 201.5 c 128
 40 243 40 243 40 294 c 257
 40 346 40 346 61.5 387 c 128
 83 428 83 428 119.5 452 c 128
 156 476 156 476 202 476 c 257
 240 476 240 476 271 459.5 c 128
 302 443 302 443 321 416.5 c 128
 340 390 340 390 340 360 c 257
 324 388 l 257
 324 680 l 257
 324 688 324 688 329.5 694 c 128
 335 700 335 700 344 700 c 257
 353 700 353 700 358.5 694 c 128
 364 688 364 688 364 680 c 257
 364 141 l 257
 364 132 364 132 358 126.5 c 128
 352 121 352 121 344 121 c 257
 335 121 335 121 329.5 127 c 128
 324 133 324 133 324 141 c 257
 324 233 l 257
 340 241 l 257
 340 208 340 208 321.5 178 c 128
 303 148 303 148 271.5 129.5 c 128
 240 111 240 111 202 111 c 257
204 149 m 257
 240 149 240 149 268 168 c 128
 296 187 296 187 312 220 c 128
 328 253 328 253 328 294 c 257
 328 335 328 335 311.5 367.5 c 128
 295 400 295 400 267 419 c 128
 239 438 239 438 204 438 c 257
 169 438 169 438 140.5 419 c 128
 112 400 112 400 96 367.5 c 128
 80 335 80 335 80 294 c 257
 80 254 80 254 96 221 c 128
 112 188 112 188 140.5 168.5 c 128
 169 149 169 149 204 149 c 257
64 -1 m 257
 54 -1 54 -1 48 4.5 c 128
 42 10 42 10 42 18 c 257
 42 26 42 26 48 31.5 c 128
 54 37 54 37 64 37 c 257
 381 37 l 257
 391 37 391 37 397 32.5 c 128
 403 28 403 28 403 18 c 257
 403 10 403 10 397 4.5 c 128
 391 -1 391 -1 381 -1 c 257
 64 -1 l 257
248 570 m 257
 240 570 240 570 234.5 576.5 c 128
 229 583 229 583 229 591 c 257
 229 599 229 599 234.5 604.5 c 128
 240 610 240 610 248 610 c 257
 418 610 l 257
 426 610 426 610 431.5 604 c 128
 437 598 437 598 437 589 c 257
 437 581 437 581 431.5 575.5 c 128
 426 570 426 570 418 570 c 257
 248 570 l 257
EndSplineSet
EndChar

StartChar: Euro
Encoding: 684 8364 684
GlifName: Euro
Width: 685
VWidth: 0
Flags: W
LayerCount: 2
Fore
SplineSet
46 246 m 257
 37 246 37 246 31 251.5 c 128
 25 257 25 257 25 265 c 257
 25 274 25 274 31 279.5 c 128
 37 285 37 285 46 285 c 257
 381 281 l 257
 390 281 390 281 396 275.5 c 128
 402 270 402 270 402 261 c 257
 402 253 402 253 396 247.5 c 128
 390 242 390 242 381 242 c 257
 46 246 l 257
46 376 m 257
 37 376 37 376 31 381.5 c 128
 25 387 25 387 25 395 c 257
 25 404 25 404 31 409.5 c 128
 37 415 37 415 46 415 c 257
 381 411 l 257
 390 411 390 411 396 405.5 c 128
 402 400 402 400 402 391 c 257
 402 383 402 383 396 377.5 c 128
 390 372 390 372 381 372 c 257
 46 376 l 257
442 -10 m 257
 374 -10 374 -10 314 17 c 128
 254 44 254 44 209 92.5 c 128
 164 141 164 141 138.5 206.5 c 128
 113 272 113 272 113 350 c 257
 113 428 113 428 138.5 493.5 c 128
 164 559 164 559 209 607.5 c 128
 254 656 254 656 314 683 c 128
 374 710 374 710 442 710 c 257
 497 710 497 710 549 692 c 128
 601 674 601 674 641 642 c 257
 649 636 649 636 650 628.5 c 128
 651 621 651 621 646 613 c 257
 641 606 641 606 633.5 605.5 c 128
 626 605 626 605 619 609 c 257
 582 638 582 638 537 655 c 128
 492 672 492 672 442 672 c 257
 362 672 362 672 296.5 631 c 128
 231 590 231 590 192 517.5 c 128
 153 445 153 445 153 350 c 257
 153 256 153 256 192 183 c 128
 231 110 231 110 296.5 69 c 128
 362 28 362 28 442 28 c 257
 492 28 492 28 536.5 45 c 128
 581 62 581 62 618 90 c 257
 625 95 625 95 633 94 c 128
 641 93 641 93 646 86 c 257
 651 79 651 79 650 71 c 128
 649 63 649 63 642 58 c 257
 620 41 620 41 587 25 c 128
 554 9 554 9 516.5 -0.5 c 128
 479 -10 479 -10 442 -10 c 257
EndSplineSet
EndChar

StartChar: uni20AD
Encoding: 687 8365 687
GlifName: uni20AD
Width: 682
VWidth: 0
Flags: W
LayerCount: 2
Fore
SplineSet
317 404 m 257
 526 404 l 257
 535 404 535 404 541 398 c 128
 547 392 547 392 547 382 c 257
 547 373 547 373 541 367 c 128
 535 361 535 361 526 361 c 257
 317 361 l 257
 317 404 l 257
267 361 m 257
 40 361 l 257
 31 361 31 361 25 367 c 128
 19 373 19 373 19 382 c 257
 19 392 19 392 25 398 c 128
 31 404 31 404 40 404 c 257
 282 404 l 257
 267 361 l 257
606 -5 m 257
 598 -5 598 -5 592 2 c 257
 290 376 l 257
 322 408 l 257
 624 30 l 257
 629 23 629 23 629 16 c 257
 629 4 629 4 620.5 -0.5 c 128
 612 -5 612 -5 606 -5 c 257
588 696 m 257
 596 696 596 696 602 690 c 128
 608 684 608 684 608 676 c 257
 608 668 608 668 602 662 c 257
 136 228 l 257
 127 271 l 257
 574 690 l 257
 580 696 580 696 588 696 c 257
121 0 m 257
 111 0 111 0 105.5 6 c 128
 100 12 100 12 100 21 c 257
 100 679 l 257
 100 688 100 688 106 694 c 128
 112 700 112 700 121 700 c 257
 130 700 130 700 136 694 c 128
 142 688 142 688 142 679 c 257
 142 21 l 257
 141 12 141 12 135 6 c 128
 129 0 129 0 121 0 c 257
EndSplineSet
EndChar

StartChar: lira
Encoding: 688 8356 688
GlifName: lira
Width: 611
VWidth: 0
Flags: W
LayerCount: 2
Fore
SplineSet
71 229 m 257
 62 229 62 229 56 234.5 c 128
 50 240 50 240 50 249 c 257
 50 257 50 257 56 263 c 128
 62 269 62 269 71 269 c 257
 464 269 l 257
 473 269 473 269 479 263 c 128
 485 257 485 257 485 249 c 257
 485 240 485 240 479 234.5 c 128
 473 229 473 229 464 229 c 257
 71 229 l 257
71 335 m 257
 62 335 62 335 56 340.5 c 128
 50 346 50 346 50 355 c 257
 50 363 50 363 56 369 c 128
 62 375 62 375 71 375 c 257
 464 375 l 257
 473 375 473 375 479 369 c 128
 485 363 485 363 485 355 c 257
 485 346 485 346 479 340.5 c 128
 473 335 473 335 464 335 c 257
 71 335 l 257
249 57 m 257
 291 57 291 57 336 47 c 128
 381 37 381 37 423.5 26.5 c 128
 466 16 466 16 500 16 c 257
 531 16 531 16 548.5 22 c 128
 566 28 566 28 579 40 c 257
 586 48 586 48 590.5 49.5 c 128
 595 51 595 51 599 51 c 257
 610 51 610 51 613.5 44.5 c 128
 617 38 617 38 617 33 c 257
 617 24 617 24 612 18.5 c 128
 607 13 607 13 604 10 c 257
 579 -7 579 -7 551.5 -15.5 c 128
 524 -24 524 -24 501 -24 c 257
 469 -24 469 -24 437.5 -17.5 c 128
 406 -11 406 -11 374.5 -2.5 c 128
 343 6 343 6 311.5 12.5 c 128
 280 19 280 19 248 19 c 257
 219 20 219 20 190.5 13.5 c 128
 162 7 162 7 140.5 0.5 c 128
 119 -6 119 -6 110 -8 c 257
 96 -10 96 -10 83.5 -15.5 c 128
 71 -21 71 -21 67 -21 c 257
 58 -21 58 -21 54 -14.5 c 128
 50 -8 50 -8 50 -3 c 257
 50 3 50 3 54 8.5 c 128
 58 14 58 14 67 16 c 257
 105 26 105 26 133 35 c 128
 161 44 161 44 188.5 50.5 c 128
 216 57 216 57 249 57 c 257
147 7 m 257
 120 23 l 257
 133 28 133 28 148 47 c 128
 163 66 163 66 174.5 96 c 128
 186 126 186 126 186 163 c 257
 186 198 186 198 178.5 232.5 c 128
 171 267 171 267 161 303 c 128
 151 339 151 339 143.5 380.5 c 128
 136 422 136 422 136 471 c 257
 136 544 136 544 162.5 597.5 c 128
 189 651 189 651 237.5 680.5 c 128
 286 710 286 710 351 710 c 257
 408 710 408 710 462 689.5 c 128
 516 669 516 669 547 628 c 257
 552 621 552 621 554.5 615.5 c 128
 557 610 557 610 557 607 c 257
 557 600 557 600 549.5 593 c 128
 542 586 542 586 533 586 c 257
 530 586 530 586 526.5 587 c 128
 523 588 523 588 520 592 c 257
 493 627 493 627 449 648.5 c 128
 405 670 405 670 351 670 c 257
 298 670 298 670 259 645.5 c 128
 220 621 220 621 199 576.5 c 128
 178 532 178 532 178 472 c 257
 178 422 178 422 185.5 379.5 c 128
 193 337 193 337 203 300 c 128
 213 263 213 263 220.5 229.5 c 128
 228 196 228 196 228 163 c 257
 228 126 228 126 217 95.5 c 128
 206 65 206 65 187.5 43 c 128
 169 21 169 21 147 7 c 257
EndSplineSet
EndChar

StartChar: uni20BA
Encoding: 689 8378 689
GlifName: uni20BA
Width: 550
VWidth: 0
Flags: W
LayerCount: 2
Fore
SplineSet
203 -10 m 257
 193 -10 193 -10 187.5 -4 c 128
 182 2 182 2 182 11 c 257
 182 679 l 257
 182 688 182 688 188 694 c 128
 194 700 194 700 203 700 c 257
 212 700 212 700 218 694 c 128
 224 688 224 688 224 679 c 257
 224 11 l 257
 203 30 l 257
 237 30 237 30 280 41.5 c 128
 323 53 323 53 365 74 c 128
 407 95 407 95 440 123 c 128
 473 151 473 151 486 184 c 257
 490 192 490 192 496.5 195 c 128
 503 198 503 198 510 196 c 257
 519 193 519 193 523 185 c 128
 527 177 527 177 523 169 c 257
 507 131 507 131 470.5 98.5 c 128
 434 66 434 66 387 41.5 c 128
 340 17 340 17 291.5 3.5 c 128
 243 -10 243 -10 203 -10 c 257
102 189 m 257
 92 189 92 189 86 196 c 128
 80 203 80 203 80 210 c 257
 80 217 80 217 85 222 c 257
 421 512 l 257
 434 523 434 523 440 528.5 c 128
 446 534 446 534 456 534 c 257
 462 534 462 534 468 530 c 128
 474 526 474 526 474 518 c 257
 474 514 474 514 472 509 c 128
 470 504 470 504 464 499 c 257
 128 208 l 257
 117 198 117 198 113.5 193.5 c 128
 110 189 110 189 102 189 c 257
72 319 m 257
 62 319 62 319 56.5 325 c 128
 51 331 51 331 50 338 c 257
 48 347 48 347 55 352 c 257
 354 610 l 257
 367 621 367 621 373 626.5 c 128
 379 632 379 632 389 632 c 257
 396 632 396 632 401.5 627.5 c 128
 407 623 407 623 407 615 c 257
 407 606 407 606 397 597 c 257
 98 338 l 257
 87 328 87 328 83.5 323.5 c 128
 80 319 80 319 72 319 c 257
EndSplineSet
EndChar

StartChar: uni20BC
Encoding: 690 8380 690
GlifName: uni20BC
Width: 715
VWidth: 0
Flags: W
LayerCount: 2
Fore
SplineSet
381 257 m 257
 381 249 381 249 375.5 243 c 128
 370 237 370 237 361 237 c 257
 352 237 352 237 346.5 243 c 128
 341 249 341 249 341 257 c 257
 341 780 l 257
 341 788 341 788 346.5 794 c 128
 352 800 352 800 361 800 c 257
 370 800 370 800 375.5 794 c 128
 381 788 381 788 381 780 c 257
 381 257 l 257
120 -10 m 257
 111 -10 111 -10 105.5 -4 c 128
 100 2 100 2 100 10 c 257
 100 442 l 257
 100 513 100 513 135 571.5 c 128
 170 630 170 630 228.5 665 c 128
 287 700 287 700 357 700 c 257
 428 700 428 700 486.5 665 c 128
 545 630 545 630 580 571.5 c 128
 615 513 615 513 615 442 c 257
 615 10 l 257
 615 2 615 2 609.5 -4 c 128
 604 -10 604 -10 594 -10 c 257
 585 -10 585 -10 579 -4 c 128
 573 2 573 2 573 10 c 257
 573 442 l 257
 573 502 573 502 544 551.5 c 128
 515 601 515 601 466 630.5 c 128
 417 660 417 660 357 660 c 257
 298 660 298 660 248.5 630.5 c 128
 199 601 199 601 169.5 551.5 c 128
 140 502 140 502 140 442 c 257
 140 10 l 257
 140 2 140 2 134.5 -4 c 128
 129 -10 129 -10 120 -10 c 257
EndSplineSet
EndChar

StartChar: uni20A6
Encoding: 691 8358 691
GlifName: uni20A6
Width: 725
VWidth: 0
Flags: W
LayerCount: 2
Fore
SplineSet
40 352 m 257
 31 352 31 352 25 357.5 c 128
 19 363 19 363 19 371 c 257
 19 380 19 380 25 385.5 c 128
 31 391 31 391 40 391 c 257
 105 391 l 257
 119 391 l 257
 598 391 l 257
 616 391 l 257
 680 391 l 257
 689 391 689 391 695 385.5 c 128
 701 380 701 380 701 371 c 257
 701 363 701 363 695 357.5 c 128
 689 352 689 352 680 352 c 257
 611 352 l 257
 594 352 l 257
 124 352 l 257
 111 352 l 257
 40 352 l 257
606 700 m 257
 615 700 615 700 620 694.5 c 128
 625 689 625 689 625 681 c 257
 625 22 l 257
 625 11 625 11 618.5 5.5 c 128
 612 0 612 0 604 0 c 257
 600 0 600 0 595.5 2 c 128
 591 4 591 4 588 8 c 257
 124 642 l 257
 138 649 l 257
 138 17 l 257
 138 10 138 10 132.5 5 c 128
 127 0 127 0 119 0 c 257
 110 0 110 0 105 5 c 128
 100 10 100 10 100 17 c 257
 100 680 l 257
 100 691 100 691 106 695.5 c 128
 112 700 112 700 118 700 c 257
 122 700 122 700 126 698.5 c 128
 130 697 130 697 133 693 c 257
 595 63 l 257
 587 43 l 257
 587 681 l 257
 587 689 587 689 593 694.5 c 128
 599 700 599 700 606 700 c 257
EndSplineSet
EndChar

StartChar: peseta
Encoding: 692 8359 692
GlifName: peseta
Width: 594
VWidth: 0
Flags: W
LayerCount: 2
Fore
SplineSet
40 479 m 257
 31 479 31 479 25 484.5 c 128
 19 490 19 490 19 498 c 257
 19 507 19 507 25 512.5 c 128
 31 518 31 518 40 518 c 257
 584 518 l 257
 593 518 593 518 599 512.5 c 128
 605 507 605 507 605 498 c 257
 605 490 605 490 599 484.5 c 128
 593 479 593 479 584 479 c 257
 40 479 l 257
360 700 m 257
 417 700 417 700 459.5 676 c 128
 502 652 502 652 525.5 609 c 128
 549 566 549 566 549 509 c 257
 549 453 549 453 525.5 408 c 128
 502 363 502 363 459.5 337 c 128
 417 311 417 311 360 311 c 257
 138 311 l 257
 142 318 l 257
 142 20 l 257
 142 12 142 12 135.5 6 c 128
 129 0 129 0 121 0 c 257
 111 0 111 0 105.5 6 c 128
 100 12 100 12 100 20 c 257
 100 680 l 257
 100 688 100 688 106 694 c 128
 112 700 112 700 120 700 c 257
 360 700 l 257
360 351 m 257
 406 351 406 351 438.5 371.5 c 128
 471 392 471 392 489 428 c 128
 507 464 507 464 507 509 c 257
 507 555 507 555 489 588.5 c 128
 471 622 471 622 438.5 641 c 128
 406 660 406 660 360 660 c 257
 139 660 l 257
 142 665 l 257
 142 348 l 257
 138 351 l 257
 360 351 l 257
EndSplineSet
EndChar

StartChar: uni20B1
Encoding: 693 8369 693
GlifName: uni20B1
Width: 594
VWidth: 0
Flags: W
LayerCount: 2
Fore
SplineSet
40 424 m 257
 31 424 31 424 25 429.5 c 128
 19 435 19 435 19 443 c 257
 19 452 19 452 25 457.5 c 128
 31 463 31 463 40 463 c 257
 109 463 l 257
 123 463 l 257
 512 463 l 257
 527 463 l 257
 584 463 l 257
 593 463 593 463 599 457.5 c 128
 605 452 605 452 605 443 c 257
 605 435 605 435 599 429.5 c 128
 593 424 593 424 584 424 c 257
 512 424 l 257
 496 424 l 257
 122 424 l 257
 107 424 l 257
 40 424 l 257
40 554 m 257
 31 554 31 554 25 559.5 c 128
 19 565 19 565 19 573 c 257
 19 582 19 582 25 587.5 c 128
 31 593 31 593 40 593 c 257
 113 593 l 257
 125 593 l 257
 504 593 l 257
 523 593 l 257
 584 593 l 257
 593 593 593 593 599 587.5 c 128
 605 582 605 582 605 573 c 257
 605 565 605 565 599 559.5 c 128
 593 554 593 554 584 554 c 257
 532 554 l 257
 512 554 l 257
 126 554 l 257
 110 554 l 257
 40 554 l 257
360 700 m 257
 417 700 417 700 459.5 676 c 128
 502 652 502 652 525.5 609 c 128
 549 566 549 566 549 509 c 257
 549 453 549 453 525.5 408 c 128
 502 363 502 363 459.5 337 c 128
 417 311 417 311 360 311 c 257
 138 311 l 257
 142 318 l 257
 142 20 l 257
 142 12 142 12 135.5 6 c 128
 129 0 129 0 121 0 c 257
 111 0 111 0 105.5 6 c 128
 100 12 100 12 100 20 c 257
 100 680 l 257
 100 688 100 688 106 694 c 128
 112 700 112 700 120 700 c 257
 360 700 l 257
360 351 m 257
 406 351 406 351 438.5 371.5 c 128
 471 392 471 392 489 428 c 128
 507 464 507 464 507 509 c 257
 507 555 507 555 489 588.5 c 128
 471 622 471 622 438.5 641 c 128
 406 660 406 660 360 660 c 257
 139 660 l 257
 142 665 l 257
 142 348 l 257
 138 351 l 257
 360 351 l 257
EndSplineSet
EndChar

StartChar: uni20BD
Encoding: 694 8381 694
GlifName: uni20BD
Width: 594
VWidth: 0
Flags: W
LayerCount: 2
Fore
SplineSet
127 312 m 257
 40 312 l 257
 31 312 31 312 25 317.5 c 128
 19 323 19 323 19 331 c 257
 19 340 19 340 25 345.5 c 128
 31 351 31 351 40 351 c 257
 127 351 l 257
 127 312 l 257
360 700 m 257
 417 700 417 700 459.5 676 c 128
 502 652 502 652 525.5 609 c 128
 549 566 549 566 549 509 c 257
 549 453 549 453 525.5 408 c 128
 502 363 502 363 459.5 337 c 128
 417 311 417 311 360 311 c 257
 138 311 l 257
 142 318 l 257
 142 20 l 257
 142 12 142 12 135.5 6 c 128
 129 0 129 0 121 0 c 257
 111 0 111 0 105.5 6 c 128
 100 12 100 12 100 20 c 257
 100 680 l 257
 100 688 100 688 106 694 c 128
 112 700 112 700 120 700 c 257
 360 700 l 257
360 351 m 257
 406 351 406 351 438.5 371.5 c 128
 471 392 471 392 489 428 c 128
 507 464 507 464 507 509 c 257
 507 555 507 555 489 588.5 c 128
 471 622 471 622 438.5 641 c 128
 406 660 406 660 360 660 c 257
 139 660 l 257
 142 665 l 257
 142 348 l 257
 138 351 l 257
 360 351 l 257
35 151 m 257
 25 151 25 151 20 155.5 c 128
 15 160 15 160 15 170 c 257
 15 179 15 179 20 184 c 128
 25 189 25 189 35 189 c 257
 195 189 l 257
 205 189 205 189 210 184 c 128
 215 179 215 179 215 169 c 257
 215 160 215 160 210 155.5 c 128
 205 151 205 151 195 151 c 257
 35 151 l 257
EndSplineSet
EndChar

StartChar: uni20B9
Encoding: 695 8377 695
GlifName: uni20B9
Width: 574
VWidth: 0
Flags: W
LayerCount: 2
Fore
SplineSet
428 1 m 257
 424 1 424 1 413 6 c 128
 402 11 402 11 390 27.5 c 128
 378 44 378 44 369 78 c 128
 360 112 360 112 360 170 c 257
 360 217 360 217 345.5 245 c 128
 331 273 331 273 308.5 288 c 128
 286 303 286 303 260.5 308 c 128
 235 313 235 313 214 313 c 257
 86 313 l 257
 78 313 78 313 72 318.5 c 128
 66 324 66 324 66 333 c 257
 66 341 66 341 72 347 c 128
 78 353 78 353 86 353 c 257
 227 353 l 257
 267 357 267 357 301 377 c 128
 335 397 335 397 356.5 433 c 128
 378 469 378 469 378 518 c 257
 378 579 378 579 334.5 619.5 c 128
 291 660 291 660 217 660 c 257
 75 660 l 257
 67 660 67 660 61 665.5 c 128
 55 671 55 671 55 680 c 257
 55 688 55 688 61 694 c 128
 67 700 67 700 75 700 c 257
 499 700 l 257
 507 700 507 700 513 694 c 128
 519 688 519 688 519 680 c 257
 519 671 519 671 513 665.5 c 128
 507 660 507 660 499 660 c 257
 277 660 l 257
 222 692 l 257
 281 692 281 692 325.5 669.5 c 128
 370 647 370 647 395 608 c 128
 420 569 420 569 420 519 c 257
 420 473 420 473 403.5 436 c 128
 387 399 387 399 357.5 374.5 c 128
 328 350 328 350 290 339 c 257
 244 347 l 257
 284 347 284 347 320 326.5 c 128
 356 306 356 306 379 266.5 c 128
 402 227 402 227 402 170 c 257
 402 121 402 121 406.5 95.5 c 128
 411 70 411 70 418.5 58 c 128
 426 46 426 46 436 39 c 257
 442 35 442 35 444.5 30.5 c 128
 447 26 447 26 447 21 c 257
 447 13 447 13 441.5 7 c 128
 436 1 436 1 428 1 c 257
75 496 m 257
 67 496 67 496 61 501.5 c 128
 55 507 55 507 55 516 c 257
 55 524 55 524 61 530 c 128
 67 536 67 536 75 536 c 257
 499 536 l 257
 507 536 507 536 513 530 c 128
 519 524 519 524 519 516 c 257
 519 507 519 507 513 501.5 c 128
 507 496 507 496 499 496 c 257
 75 496 l 257
EndSplineSet
EndChar

StartChar: sterling
Encoding: 696 163 696
GlifName: sterling
Width: 611
VWidth: 0
Flags: W
LayerCount: 2
Fore
SplineSet
71 335 m 257
 62 335 62 335 56 340.5 c 128
 50 346 50 346 50 355 c 257
 50 363 50 363 56 369 c 128
 62 375 62 375 71 375 c 257
 464 375 l 257
 473 375 473 375 479 369 c 128
 485 363 485 363 485 355 c 257
 485 346 485 346 479 340.5 c 128
 473 335 473 335 464 335 c 257
 71 335 l 257
249 57 m 257
 291 57 291 57 336 47 c 128
 381 37 381 37 423.5 26.5 c 128
 466 16 466 16 500 16 c 257
 531 16 531 16 548.5 22 c 128
 566 28 566 28 579 40 c 257
 586 48 586 48 590.5 49.5 c 128
 595 51 595 51 599 51 c 257
 610 51 610 51 613.5 44.5 c 128
 617 38 617 38 617 33 c 257
 617 24 617 24 612 18.5 c 128
 607 13 607 13 604 10 c 257
 579 -7 579 -7 551.5 -15.5 c 128
 524 -24 524 -24 501 -24 c 257
 469 -24 469 -24 437.5 -17.5 c 128
 406 -11 406 -11 374.5 -2.5 c 128
 343 6 343 6 311.5 12.5 c 128
 280 19 280 19 248 19 c 257
 219 20 219 20 190.5 13.5 c 128
 162 7 162 7 140.5 0.5 c 128
 119 -6 119 -6 110 -8 c 257
 96 -10 96 -10 83.5 -15.5 c 128
 71 -21 71 -21 67 -21 c 257
 58 -21 58 -21 54 -14.5 c 128
 50 -8 50 -8 50 -3 c 257
 50 3 50 3 54 8.5 c 128
 58 14 58 14 67 16 c 257
 105 26 105 26 133 35 c 128
 161 44 161 44 188.5 50.5 c 128
 216 57 216 57 249 57 c 257
147 7 m 257
 120 23 l 257
 133 28 133 28 148 47 c 128
 163 66 163 66 174.5 96 c 128
 186 126 186 126 186 163 c 257
 186 198 186 198 178.5 232.5 c 128
 171 267 171 267 161 303 c 128
 151 339 151 339 143.5 380.5 c 128
 136 422 136 422 136 471 c 257
 136 544 136 544 162.5 597.5 c 128
 189 651 189 651 237.5 680.5 c 128
 286 710 286 710 351 710 c 257
 408 710 408 710 462 689.5 c 128
 516 669 516 669 547 628 c 257
 552 621 552 621 554.5 615.5 c 128
 557 610 557 610 557 607 c 257
 557 600 557 600 549.5 593 c 128
 542 586 542 586 533 586 c 257
 530 586 530 586 526.5 587 c 128
 523 588 523 588 520 592 c 257
 493 627 493 627 449 648.5 c 128
 405 670 405 670 351 670 c 257
 298 670 298 670 259 645.5 c 128
 220 621 220 621 199 576.5 c 128
 178 532 178 532 178 472 c 257
 178 422 178 422 185.5 379.5 c 128
 193 337 193 337 203 300 c 128
 213 263 213 263 220.5 229.5 c 128
 228 196 228 196 228 163 c 257
 228 126 228 126 217 95.5 c 128
 206 65 206 65 187.5 43 c 128
 169 21 169 21 147 7 c 257
EndSplineSet
EndChar

StartChar: uni20A9
Encoding: 697 8361 697
GlifName: uni20A9
Width: 974
VWidth: 0
Flags: W
LayerCount: 2
Fore
SplineSet
40 352 m 257
 31 352 31 352 25 357.5 c 128
 19 363 19 363 19 371 c 257
 19 380 19 380 25 385.5 c 128
 31 391 31 391 40 391 c 257
 148 391 l 257
 168 391 l 257
 808 391 l 257
 826 391 l 257
 923 391 l 257
 932 391 932 391 938 385.5 c 128
 944 380 944 380 944 371 c 257
 944 363 944 363 938 357.5 c 128
 932 352 932 352 923 352 c 257
 811 352 l 257
 791 352 l 257
 172 352 l 257
 153 352 l 257
 40 352 l 257
918 702 m 257
 927 702 927 702 933 697.5 c 128
 939 693 939 693 939 683 c 257
 939 679 939 679 937 673 c 257
 708 13 l 257
 706 7 706 7 700.5 3.5 c 128
 695 0 695 0 690 0 c 257
 683 0 683 0 677.5 2.5 c 128
 672 5 672 5 670 12 c 257
 483 484 l 257
 491 484 l 257
 304 12 l 257
 301 5 301 5 295.5 2.5 c 128
 290 0 290 0 283 0 c 257
 278 0 278 0 273 3.5 c 128
 268 7 268 7 266 13 c 257
 37 673 l 257
 35 679 35 679 35 682 c 257
 35 692 35 692 42.5 697 c 128
 50 702 50 702 57 702 c 257
 63 702 63 702 68.5 698.5 c 128
 74 695 74 695 76 689 c 257
 291 68 l 257
 284 67 l 257
 468 532 l 257
 470 538 470 538 475 541.5 c 128
 480 545 480 545 487 545 c 257
 493 545 493 545 498.5 541.5 c 128
 504 538 504 538 506 532 c 257
 692 64 l 257
 683 63 l 257
 898 689 l 257
 900 695 900 695 905 698.5 c 128
 910 702 910 702 918 702 c 257
EndSplineSet
EndChar

StartChar: yen
Encoding: 698 165 698
GlifName: yen
Width: 547
VWidth: 0
Flags: W
LayerCount: 2
Fore
SplineSet
97 168 m 257
 88 168 88 168 82 173.5 c 128
 76 179 76 179 76 187 c 257
 76 196 76 196 82 201.5 c 128
 88 207 88 207 97 207 c 257
 452 203 l 257
 461 203 461 203 467 197.5 c 128
 473 192 473 192 473 183 c 257
 473 175 473 175 467 169.5 c 128
 461 164 461 164 452 164 c 257
 97 168 l 257
97 298 m 257
 88 298 88 298 82 303.5 c 128
 76 309 76 309 76 317 c 257
 76 326 76 326 82 331.5 c 128
 88 337 88 337 97 337 c 257
 452 333 l 257
 461 333 461 333 467 327.5 c 128
 473 322 473 322 473 313 c 257
 473 305 473 305 467 299.5 c 128
 461 294 461 294 452 294 c 257
 97 298 l 257
507 704 m 257
 517 704 517 704 522 697 c 128
 527 690 527 690 527 685 c 257
 527 681 527 681 526 678 c 128
 525 675 525 675 523 672 c 257
 286 350 l 257
 295 379 l 257
 295 20 l 257
 295 12 295 12 289 6 c 128
 283 0 283 0 274 0 c 257
 264 0 264 0 258.5 6 c 128
 253 12 253 12 253 20 c 257
 253 372 l 257
 258 351 l 257
 24 672 l 257
 22 675 22 675 21 678 c 128
 20 681 20 681 20 685 c 257
 20 690 20 690 23 694.5 c 128
 26 699 26 699 31 701.5 c 128
 36 704 36 704 41 704 c 257
 52 704 52 704 58 695 c 257
 280 392 l 257
 270 394 l 257
 490 695 l 257
 493 700 493 700 497.5 702 c 128
 502 704 502 704 507 704 c 257
EndSplineSet
EndChar

